<svg xmlns="http://www.w3.org/2000/svg" width="235" height="130" fill="none" xmlns:v="https://vecta.io/nano"><path d="M149.967 126.979v-14.031l-.964-.26-3.418 8.055c-3.068 7.362-3.068 7.362-11.92 6.409v-7.448c0-7.622.263-15.33-.088-22.952-.175-4.244 1.227-5.803 5.347-5.11.964.173 2.016.173 3.506.26v14.55c.35.087.701.174 1.139.26l3.769-8.747c2.892-6.929 2.892-7.015 11.307-5.803v34.903c-2.454-.086-5.259-.086-8.678-.086zm-121.218.26v-35.25h23.753v35.336h-8.765c0-7.362-.175-14.55.088-21.739.175-4.33-1.49-5.456-5.96-4.07v25.809c-3.243-.086-5.96-.086-9.115-.086zm77.306-35.337h8.59v10.047c.263 0 .526.086.789.086l1.84-3.724c3.331-7.708 3.419-7.708 12.709-6.149-2.278 4.59-4.645 9.007-6.573 13.597-.701 1.733-.701 4.158.087 5.89 2.016 4.85 4.558 9.527 6.925 14.55-1.403.52-2.367 1.039-3.419 1.299-4.82 1.299-6.661.433-8.502-4.157-.964-2.338-1.928-4.763-3.593-7.102v10.999h-8.853V91.902z" fill="#d5312b"/><path d="M0 127.065l5.61-35.336c4.295 0 8.502-.087 12.621.087.789 0 2.016 1.213 2.103 2.079l5.522 33.691c-1.928 0-3.418-.173-4.821 0-3.681.52-5.434-.78-5.259-4.59.088-1.819.351-4.244-2.805-4.331-3.331-.173-2.805 2.339-3.068 4.157-.789 5.457-.964 5.543-9.904 4.244zm14.462-16.542l-1.139-9.007c-2.367 6.842-2.279 7.708 1.14 9.007zm68.103 16.802V91.989h19.37l-1.578 7.795c-2.805 2.945-8.151-1.646-9.378 4.677 2.98.174 5.347.26 8.327.347l-1.139 8.574-6.661.347-.263 4.33h10.781l-1.841 9.181-17.617.086z" fill="#d63029"/><path d="M72.31 127.325h-9.028v-26.069l-7.187-.693c.438-2.512.614-4.764 1.315-6.929.263-.866 1.753-1.905 2.717-1.992 6.135-.173 12.183-.087 19.02-.087l-1.665 9.008-5.084.433-.088 26.329z" fill="#d62c25"/><path d="M78.125 24.065c.295-.332.749-.574 1.192-.574H155.5c3.222 0 6.055 2.723 4.537 5.564-1.304 2.441-3.508 4.307-5.989 5.859-16.38 10.249-34.052 12.491-52.587 6.939-5.711-1.708-11.422-4.377-16.379-7.687-2.935-1.939-4.805-5.374-6.979-8.387-.388-.538-.418-1.219.023-1.714h0z" fill="#d63029"/><g fill="#d43c36"><path d="M118.811 60.216c6.25-2.776 11.638-4.697 16.379-7.366 10.181-4.289 20.698-8.657 30.124-17.482 2.371-1.601 2.323-2.485 5.006-7.713s2.478-16.121-6.681-20.284c-11.531-5.124-23.276-4.804-34.483 1.388-2.479 1.388-4.419 2.882-4.311 6.512.06 1.004-.969 2.139-2.265 3.187-2.041 1.651-4.792 2.498-6.819.831-.309-.255-.506-.503-.506-.708-.108-1.922.646-4.27 1.832-5.979 10.129-14.733 39.44-16.014 53.772-6.619 8.836 5.765 11.099 14.733 4.849 23.487-4.203 5.765-9.591 11.316-15.625 14.946-8.944 5.445-18.966 8.861-28.449 13.558-1.401.641 4.466 5.539 7.16 9.702l-3.82-.201c-2.047-.32-13.146-5.444-16.163-7.259z"/><path d="M134.974 77.618c2.156-3.416 4.095-6.726 0-10.142 0 0 5.927-.64 6.574 2.349.97 5.018-3.341 5.978-6.574 7.793z"/></g><path d="M207.04 129.973c13.391-4.628 19.112-11.168 18.986-20.731-.189-9.748-6.224-16.227-19.363-20.114l24.266.062c2.389.062 3.961 1.789 4.024 4.319v32.021c0 2.777-1.886 4.319-4.652 4.381l-23.261.062zm-7.229-40.844c-11.001 3.023-18.231 9.316-18.168 21.1.063 7.774 4.526 15.857 18.105 19.744h-7.544-14.459c-3.269-.062-5.029-1.605-5.029-4.628V94.866c0-3.208 2.263-5.553 5.469-5.676 7.293-.185 14.459-.062 21.626-.062zm5.218 19.62c-.377 4.318-.943 7.588-3.709 10.303-3.521 3.332-8.11 3.764-11.756.617-5.218-4.504-5.155-15.856.126-20.298 5.406-4.504 10.687-1.851 13.767 3.701 1.069 1.851 1.195 4.258 1.572 5.677zm-7.607.802c-.063-1.111.126-2.283-.251-3.332h0c-.548-1.399-3.519-1.559-3.647-.062h0a32.37 32.37 0 0 0 0 6.972h0c.137 1.471 3.168 1.246 3.637-.155.003-.01.007-.02.01-.03.314-1.11.188-2.283.251-3.393z" fill="#d62c25"/><path d="M208.423 109.427l1.949-5.182-4.338-.371c.315-1.542.378-2.961.881-4.257.251-.679 1.194-1.604 1.823-1.604 3.96-.123 7.858-.062 12.259-.062l-3.207 7.404c4.715 4.257 5.47 8.329 2.389 12.71-2.829 4.072-8.738 4.874-15.087 1.851.691-1.851 1.445-3.702 2.2-5.615 2.452.124 5.783 2.592 6.538-1.419.754-3.702-2.64-3.27-5.407-3.455z" fill="#d63029"/></svg>