<svg width="512" height="512" fill="none" xmlns="http://www.w3.org/2000/svg">
  <style>
    @media (prefers-color-scheme: dark) {
         #sp1 { fill: white }
    }
  </style>
  <path id="sp1" d="M109.714 0C49.121 0 0 49.12 0 109.714v163.383h69.813a90.207 90.207 0 0060.66-23.44L291.886 103.01l.475-.546c27.183-31.324 74.2-34.371 105.09-6.873 16.22 14.44 23.267 29.079 23.834 43.033.567 13.964-5.26 29.548-19.467 46.06l-77.822 74.895c-10.559 10.162-27.319 9.967-37.64-.438L256.463 229c-19.111-19.267-49.935-20.276-70.266-2.301l-85.685 75.756-.528.608c-17.342 19.985-27.249 43.333-27.254 66.871-.006 23.77 10.105 46.516 30.514 64.685 40.86 36.373 103.025 32.492 139.17-8.481l154.2-136.503a65.829 65.829 0 0143.633-16.538h47.372v129.19c0 47.127-38.204 85.331-85.333 85.331h-292.57c-47.129 0-85.334-38.204-85.334-85.332v-91.232H0v91.232C0 462.88 49.12 512 109.714 512h292.571C462.879 512 512 462.879 512 402.286v-153.57h-71.754a90.21 90.21 0 00-59.794 22.664L225.071 408.929l-.527.606c-27.183 31.323-74.2 34.372-105.09 6.873-15.568-13.86-22.348-30.124-22.344-46.468.003-16.373 6.84-34.01 20.774-50.302l84.46-74.674c10.65-9.415 26.797-8.887 36.807 1.206l29.895 30.142c19.702 19.863 51.698 20.235 71.856.835l78.62-75.661.36-.414c17.162-19.777 26.663-41.336 25.764-63.437-.903-22.227-12.225-42.664-31.984-60.253-40.881-36.392-103.087-32.489-139.224 8.541L114.079 231.611a65.825 65.825 0 01-44.266 17.106H24.381V109.714c0-47.128 38.205-85.333 85.333-85.333h292.571c47.13 0 85.333 38.205 85.333 85.333v101.718H512V109.714C512 49.121 462.879 0 402.285 0z" fill="#5059c9" />
</svg>