<svg width="222" height="145" viewBox="0 0 222 145" fill="none" xmlns="http://www.w3.org/2000/svg">
<path d="M20.0301 145L6.74197 97.8746C2.41867 82.5423 4.24491 66.1284 11.8326 52.1213C25.9221 26.1116 56.6 13.9042 84.7077 23.1229L97.1005 27.1875C100.964 28.4546 105.004 29.1002 109.07 29.1002H150.966C172.091 29.1002 191.855 39.5243 203.784 56.9581L206.787 61.3467C216.516 75.5638 220.102 93.1026 216.735 109.997L209.759 145H20.0301Z" fill="#F2F2F2"/>
<g clip-path="url(#clip0)">
<g clip-path="url(#clip1)">
<path d="M138.666 141.286L144 139.15L145.13 142.557L143.592 148.556L144.529 154.386L140.204 154.818L136.84 148.724L138.666 141.286Z" fill="#ECC7B4"/>
<path d="M148.349 62.3232L144.985 71.5847L141.694 104.48L136.504 142.078L146.595 142.869V113.214L146.619 94.6425L148.349 62.3232Z" fill="#073856"/>
<path d="M140.997 131.064L140.252 137.999L144.312 267.78L157.647 268.547L161.323 131.064H140.997Z" fill="#5A3736"/>
<path d="M174.418 131.064L177.685 136.391L193.999 269.027L182.491 268.019L154.356 144.885L147.772 141.478L146.595 131.064H174.418Z" fill="#6A5150"/>
<path d="M190.131 64.9864L178.358 107.911L178.166 119.716L174.418 131.065H164.999H140.997L140.468 119.188L148.349 62.3232L171.198 52.1499L190.131 64.9864Z" fill="#1A5370"/>
<path d="M182.466 83.7975L178.526 84.2534L175.259 106.183L172.976 110.094H176.58L177.109 122.355L174.418 131.065L178.622 121.179L178.358 107.911L185.181 83.0537L182.466 83.7975Z" fill="#073856"/>
<path d="M178.79 141.286L184.124 139.15L185.254 142.557L183.716 148.556L184.653 154.386L180.328 154.818L176.964 148.724L178.79 141.286Z" fill="#FFDAC7"/>
<path d="M190.131 64.9863L178.526 84.2531L181.361 109.23L176.58 141.55L186.767 143.325L195.176 109.686L190.131 64.9863Z" fill="#1A5370"/>
<path d="M164.999 62.0833L160.578 54.2134H150.655L150.751 51.2862L149.214 48.2871L152.313 46.5835H148.661L149.142 43.5843L144.985 40.6571L149.142 32.8832V25.8771L158.055 16.9995L174.369 19.3749L180.28 25.2053L177.901 38.5697L171.847 46.0796L173.841 53.9255L164.999 62.0833Z" fill="#FFDAC7"/>
<path d="M166.176 43.2964H168.411H173.648L171.846 46.0796L173.985 54.3574L165.816 60.4038L161.251 61.6514L160.578 54.2134H154.283L162.14 48.431L166.176 43.2964Z" fill="#ECC7B4"/>
<path d="M161.611 38.8096H159.569L160.602 32.0195L154.283 29.2842L146.763 26.405L147.027 19.8548L156.83 15.248L167.234 14.0483L175.523 15.8239L181.121 25.1573L178.742 38.8096L172.015 46.6555L166.176 43.2964L168.195 39.4815V33.4591H163.846L161.611 38.8096Z" fill="#3C3D3F"/>
<path d="M167.234 14.0483L156.83 15.248L147.027 19.8548L146.763 26.405L153.034 28.8044L149.142 25.8771L149.43 21.6063L157.671 26.9569L152.049 20.3346L156.662 17.5514L167.522 16.9995L172.952 23.2858L170.477 16.9995L173.312 18.5111L178.958 25.6852L180.64 27.9406L181.121 25.1573L175.523 15.8239L167.234 14.0483Z" fill="#666668"/>
<path d="M149.142 43.5844V41.497L144.985 40.6572L149.142 43.5844Z" fill="#ECC7B4"/>
<path d="M176.652 55.8451L173.673 53.3018L166.465 59.5641L161.251 61.6515L160.819 56.7568L159.329 57.4286L159.281 62.9951L161.419 65.6344L165.96 63.7389L176.652 55.8451Z" fill="#EAE4D8"/>
<path d="M175.427 128.617H140.997V131.736H175.427V128.617Z" fill="#073856"/>
<path d="M152.746 127.945H146.763V132.768H152.746V127.945Z" fill="#FCC659"/>
<path d="M90.5897 87.1087H122.425L131.146 49.151L130.041 47.5435L89.4845 85.4772L90.5897 87.1087Z" fill="#073856"/>
<path d="M89.4845 85.4772H121.319L130.041 47.5435H98.206L89.4845 85.4772Z" fill="#1A5370"/>
<path d="M127.158 49.5586H99.6235L92.3435 83.4614H119.878L127.158 49.5586Z" fill="#E4DDCD"/>
<path d="M105.318 76.3592L108.802 76.2393L106.447 77.295L105.318 76.3592Z" fill="#EAE4D8"/>
<path d="M47.1498 132.408L43.2095 136.463L45.6361 138.694L50.7778 140.734L54.4538 137.687L57.0487 141.598L54.4298 135.983L47.1498 132.408Z" fill="#EFB095"/>
<path d="M53.5648 54.1176V42.0249L64.0884 44.4962L65.3137 58.1246L53.5648 54.1176Z" fill="#EFB095"/>
<path d="M38.1157 104.408L48.0386 78.351L37.8274 66.4263L26.2707 106.231L43.2093 136.463L46.5009 135.624L47.1496 132.408L38.1157 104.408Z" fill="#BDDBE0"/>
<path d="M86.3127 137.231L83.1893 195.271L78.4561 266.604H68.9656L67.5961 191.312L63.1272 137.231H86.3127Z" fill="#1A5370"/>
<path d="M48.4471 137.231L30.9559 266.604H38.8846L66.9474 150.787L74.78 137.231H76.5339H73.0982H73.2183H65.3136H48.4471Z" fill="#073856"/>
<path d="M80.9307 63.6911L63.6798 57.4288L52.6277 55.5093L37.8274 66.4263L50.0328 100.065L48.5672 126.026L48.4471 137.231L34.5598 220.921L67.9565 222.36L75.8612 152.011L74.78 137.231H76.5339H86.3127L86.577 102.729L80.9307 63.6911Z" fill="#BDDBE0"/>
<path d="M50.0331 57.4046L53.3488 52.9658L65.0256 54.9573L66.6834 58.6763L50.0331 57.4046Z" fill="#EAE4D8"/>
<path d="M81.7958 117.461L71.8249 113.046L67.7644 137.231V148.172L71.4885 155.442L67.9566 222.36L84.7751 220.921L86.3128 137.231L86.7453 113.046L81.7958 117.461Z" fill="white"/>
<path d="M102.205 85.8383C102.479 85.5253 102.844 85.3056 103.249 85.2099L104.471 84.9214C104.721 84.8624 104.936 84.7057 105.07 84.4865L107.038 81.252C107.31 80.806 107.857 80.6118 108.349 80.7868C108.997 81.0175 109.277 81.7794 108.933 82.3754L107.232 85.3247C107.174 85.4245 107.144 85.5376 107.144 85.6528V87.2333H110.584L106.879 90.2757L104.765 91.9792L100.272 88.0443L102.205 85.8383Z" fill="#EFB095"/>
<path d="M80.931 63.6909L88.1149 93.5868L100.272 88.0443L103.876 88.8841L104.765 91.9793L84.3908 108.463L80.8349 107.071L73.5068 81.998L74.9965 68.4896L80.931 63.6909Z" fill="white"/>
<path d="M75.5011 27.7966L74.2277 45.2159L68.7497 52.342H62.1184L53.1325 43.7523L50.0331 27.7966L54.6222 16.6396H70.1432L75.5011 27.7966Z" fill="#EFB095"/>
<path d="M73.5067 26.285L76.7503 28.3245L78.2159 29.2362L78.1438 22.4221L72.0466 17.0828C69.8157 15.1293 66.9407 14.0709 63.9757 14.1118L61.9564 14.1396C59.4671 14.1739 57.0501 14.9815 55.0403 16.4506L53.3792 17.6648C50.4845 19.7807 48.6877 23.0801 48.4806 26.6597L48.0388 34.2989L50.7537 46.4876L54.6941 48.0471L63.3436 48.2871L68.1488 42.9845L67.4281 41.4969L66.6832 36.6742L68.5813 35.4026L70.8638 38.3298L70.7677 30.6998L73.5067 26.285Z" fill="#1D2327"/>
<path d="M61.9564 14.1396C59.4671 14.1739 57.0501 14.9815 55.0403 16.4506L53.3792 17.6648C50.4845 19.7807 48.6877 23.0801 48.4806 26.6597L48.0388 34.2989L50.7537 46.4876L52.2194 47.0874L49.5044 35.6425L53.5648 22.59L59.4513 17.9593L68.7015 17.7913L78.1438 22.4221L72.0466 17.0828C69.8157 15.1293 66.9407 14.0709 63.9757 14.1118L61.9564 14.1396Z" fill="#32393E"/>
</g>
</g>
<defs>
<clipPath id="clip0">
<rect width="170.708" height="130.951" fill="white" transform="translate(25.6461 14.0483)"/>
</clipPath>
<clipPath id="clip1">
<rect width="170.708" height="260.306" fill="white" transform="translate(25.6461 14.0483)"/>
</clipPath>
</defs>
</svg>
