<svg width="222" height="145" viewBox="0 0 222 145" fill="none" xmlns="http://www.w3.org/2000/svg">
<path d="M19.3793 144.796L14.7459 131.44C6.27677 107.029 16.9893 80.0989 39.9125 68.1749L95.854 32.8552C106.08 26.3986 117.927 22.9717 130.021 22.9717H147.071C177.03 22.9717 202.981 43.7551 209.525 72.991L211.509 81.8507C213.665 91.4837 213.564 101.485 211.213 111.072L202.944 144.796H19.3793Z" fill="#F2F2F2"/>
<g clip-path="url(#clip0)">
<path d="M121.879 65.1371C121.879 65.1371 114.263 80.2726 106.528 90.7205C103.449 94.8786 100.352 98.2938 97.709 99.7185C95.1215 101.112 92.9309 103.278 91.1182 105.677C86.4236 111.891 84.2577 119.669 84.2577 119.669L64.4758 89.9382C64.4758 89.9382 65.1511 60.8764 67.5262 56.0143C70.9878 48.9302 72.6598 34.6165 73.9897 31.7663C74.976 29.6525 77.7934 18.7328 78.0638 17.9299C78.1816 17.5838 79.1186 17.0536 80.3363 17.0552C81.3131 17.0552 82.9723 17.9931 83.3899 19.9212C85.5057 29.6652 82.9588 36.0918 82.9882 36.3779C83.7343 43.8658 81.4913 49.4248 83.0646 50.897C83.1235 50.9515 83.2316 50.9254 83.386 50.8282C86.1126 49.089 103.039 24.5747 105.123 24.0453C107.325 23.4874 121.879 65.1371 121.879 65.1371Z" fill="#FFDAC7"/>
<path d="M90.2089 113.785C90.2089 113.785 89.9392 126.997 89.1685 144.791H39.2706C50.676 120.628 60.5916 100.291 60.5916 100.291C60.5916 100.291 89.003 101.154 90.2089 113.785Z" fill="#1A5370"/>
<path d="M139.174 13.9144L133.048 22.8358L127.037 31.5912C126.671 32.0305 126.247 32.183 125.788 32.1395C124.346 32.0036 122.561 29.9365 121.169 28.7923L121.029 28.6769C119.194 27.1692 118.935 24.4454 120.453 22.6248L129.641 11.5913V11.5905L132.366 8.31825C133.883 6.49606 136.624 6.23845 138.458 7.74615L138.599 7.86152C140.433 9.36843 140.691 12.0922 139.174 13.9144Z" fill="#ECC7B4"/>
<path d="M133.048 22.8358L127.038 31.5912C126.671 32.0306 126.247 32.1831 125.788 32.1396L129.641 11.5913C129.649 11.7059 130.303 20.9259 133.048 22.8358Z" fill="#ECC7B4"/>
<path d="M106.527 90.7203C103.449 94.8783 100.352 98.2936 97.7087 99.7183C95.1212 101.112 92.9307 103.277 91.1179 105.677C89.0331 104.712 86.6564 103.579 84.3338 102.457C81.5053 101.092 81.3964 97.1012 84.1676 95.6227C84.1946 95.6085 84.2209 95.5935 84.2471 95.5792C86.8434 94.1031 89.504 88.8926 89.504 88.8926L106.527 90.7203Z" fill="#ECC7B4"/>
<path d="M77.926 18.3828L76.3232 24.8111C76.3232 24.8111 77.7247 25.3808 78.6243 24.9383C79.5239 24.4966 80.2581 18.7289 77.926 18.3828Z" fill="#E8C0AC"/>
<path d="M124.019 93.7582H89.5541C86.1641 93.7582 83.3904 91.0028 83.3904 87.635V12.3742C83.3904 9.00639 86.1641 6.25098 89.5541 6.25098H124.019C127.409 6.25098 130.183 9.00639 130.183 12.3742V87.6342C130.183 91.0028 127.409 93.7582 124.019 93.7582Z" fill="#2B478B"/>
<path d="M127.864 12.9546V86.4706C127.864 88.9645 125.825 91.0048 123.334 91.0048H90.2397C87.7484 91.0048 85.7098 88.9645 85.7098 86.4706V12.9546C85.7098 10.4607 87.7484 8.42041 90.2397 8.42041H123.334C125.825 8.42041 127.864 10.4607 127.864 12.9546Z" fill="white"/>
<path d="M113.703 11.1542H99.8714C98.7451 11.1542 97.8232 10.2384 97.8232 9.11944V8.79941C97.8232 7.68049 98.7451 6.76465 99.8714 6.76465H113.703C114.829 6.76465 115.751 7.68049 115.751 8.79941V9.11944C115.751 10.2384 114.829 11.1542 113.703 11.1542Z" fill="#2B478B"/>
<path d="M136.125 47.6043L135.211 47.9488L129.068 50.2681C128.924 50.3226 128.779 50.3684 128.633 50.4048C126.599 50.9302 124.435 49.8524 123.672 47.8587L123.582 47.6241C122.765 45.4874 123.856 43.0741 126.007 42.2618L131.734 40.0998L132.15 39.9425L133.064 39.598C135.214 38.7857 137.643 39.8698 138.46 42.0073L138.549 42.242C139.367 44.3795 138.276 46.7928 136.125 47.6043Z" fill="#FFDAC7"/>
<path d="M131.136 47.745C130.111 48.1306 128.255 48.8157 127.263 48.9572C126.982 48.9975 126.464 48.8457 125.981 48.3203C125.692 48.0058 125.414 47.5569 125.209 46.9358C125.113 46.6435 125.032 46.3527 124.999 46.0524C124.961 45.7007 124.971 45.3499 125.032 45.0014C125.089 44.6877 125.304 44.4025 125.618 44.2515C125.619 44.2507 125.622 44.2507 125.623 44.2492C126.679 43.7482 128.101 43.1381 129.349 42.7976C130.211 42.5613 131.084 42.939 131.357 43.6889L131.485 44.039L132.145 45.8327C132.418 46.5787 131.974 47.4313 131.136 47.745Z" fill="#F9D2BF"/>
<path d="M131.136 47.7449C130.111 48.1305 128.255 48.8156 127.263 48.957C126.982 48.9973 126.464 48.8456 125.981 48.3201C125.93 48.2008 125.883 48.0744 125.837 47.94C125.741 47.6477 125.661 47.3569 125.627 47.0566C125.589 46.705 125.6 46.3541 125.661 46.0056C125.717 45.6919 125.933 45.4067 126.247 45.2557C126.248 45.2549 126.25 45.2549 126.252 45.2534C127.307 44.7524 128.73 44.1423 129.978 43.8018C130.53 43.65 131.086 43.7504 131.486 44.0396L132.145 45.8334C132.418 46.5785 131.974 47.4311 131.136 47.7449Z" fill="#E8C0AC"/>
<path d="M133.338 56.1842L128.6 57.4651C127.16 57.8547 125.663 57.0029 125.271 55.5726L125.125 55.04C124.733 53.6098 125.59 52.1218 127.03 51.7323L131.767 50.4514C133.207 50.0618 134.705 50.9136 135.097 52.3439L135.243 52.8765C135.634 54.3067 134.776 55.7955 133.338 56.1842Z" fill="#FFDAC7"/>
<path d="M130.776 55.9536C129.906 56.1844 128.332 56.5921 127.508 56.6364C127.208 56.653 126.608 56.4009 126.216 55.6178C126.119 55.4282 126.038 55.2085 125.973 54.9541C125.916 54.7233 125.872 54.4942 125.867 54.2626C125.862 53.9892 125.897 53.7206 125.973 53.4574C126.041 53.2196 126.24 53.0149 126.508 52.9201C126.511 52.9193 126.512 52.9193 126.513 52.9177C127.416 52.6008 128.628 52.2231 129.677 52.0406C130.402 51.9142 131.089 52.2603 131.259 52.8537L131.381 53.2772L131.746 54.5503C131.915 55.1397 131.487 55.7664 130.776 55.9536Z" fill="#F9D2BF"/>
<path d="M130.776 55.9536C129.905 56.1843 128.332 56.5921 127.508 56.6363C127.208 56.6529 126.608 56.4009 126.216 55.6178C126.163 55.4028 126.125 55.1871 126.12 54.9682C126.115 54.6964 126.149 54.4262 126.226 54.163C126.294 53.9267 126.493 53.7205 126.761 53.6257C126.764 53.6249 126.764 53.6249 126.766 53.6233C127.669 53.3064 128.882 52.9287 129.93 52.7478C130.53 52.6427 131.105 52.8623 131.381 53.278L131.746 54.551C131.915 55.1397 131.487 55.7663 130.776 55.9536Z" fill="#E8C0AC"/>
<path d="M55.7341 110.316C55.7341 110.316 65.4851 119.594 72.0576 123.176L77.0345 119.669V124.842C77.0345 124.842 86.8221 126.562 89.9091 124.842V110.735L62.418 97.0439L55.7341 110.316Z" fill="#073856"/>
<path d="M91.9867 123.72C88.1997 124.491 80.0379 121.535 80.0379 121.535L81.3544 108.903L72.1315 119.397C67.4378 117.662 60.0969 113.134 55.7349 110.316C53.5634 108.913 52.13 107.934 52.13 107.934C58.285 98.0942 64.4765 88.8916 64.4765 88.8916C66.294 92.5028 70.5948 95.6391 75.2567 98.1472C83.0048 102.316 91.7504 104.752 91.7504 104.752C91.7472 112.259 91.9867 123.72 91.9867 123.72Z" fill="white"/>
<path d="M135.975 38.585C135.942 38.5968 135.908 38.6087 135.873 38.6198L129.662 40.2041C126.931 40.9011 124.108 39.4337 123.386 36.9422L123.017 35.666C122.324 33.2741 123.813 30.7731 126.351 29.9624L128.401 29.4392L132.561 28.378C135.292 27.681 138.116 29.1484 138.837 31.6399L139.206 32.9161C139.89 35.2756 138.45 37.7395 135.975 38.585Z" fill="#FFDAC7"/>
<path d="M133.129 36.8634L130.112 38.2147C130.108 38.2155 130.102 38.217 130.093 38.2194C129.972 38.2518 129.85 38.2763 129.728 38.2945C129.677 38.3024 129.626 38.3079 129.575 38.3134C129.554 38.3158 129.533 38.3158 129.512 38.3142C129.179 38.3032 128.952 37.9531 129.095 37.6402C129.38 37.0231 129.458 36.3095 129.266 35.6078L129.194 35.347C129.194 35.3447 129.194 35.3415 129.192 35.3391L128.958 34.4881C128.773 33.8101 128.379 33.242 127.865 32.8318C127.802 32.7813 127.739 32.7347 127.674 32.6904C127.077 32.2803 127.229 31.351 127.927 31.1574C127.934 31.1551 127.94 31.1543 127.946 31.1519L131.258 30.6541C132.076 30.4336 132.865 31.0586 133.088 31.8725L133.354 32.8421L133.92 34.9093C134.142 35.7224 133.948 36.6422 133.129 36.8634Z" fill="#F9D2BF"/>
<path d="M133.13 36.863L130.113 38.2143C130.108 38.2151 130.102 38.2166 130.093 38.219C130.023 38.2324 129.802 38.2696 129.512 38.3138C129.18 38.3028 128.952 37.9527 129.095 37.6398C129.38 37.0226 129.458 36.3091 129.266 35.6074L129.195 35.3466C129.195 35.3443 129.194 35.3411 129.192 35.3387L128.958 34.4877C128.773 33.8097 128.379 33.2415 127.865 32.8314C127.971 32.6766 128.131 32.5533 128.34 32.4956C128.345 32.4932 128.352 32.4924 128.359 32.4901L131.67 31.9922C132.36 31.8058 133.026 32.2206 133.354 32.8409L133.92 34.9081C134.142 35.722 133.948 36.6418 133.13 36.863Z" fill="#E8C0AC"/>
<path d="M83.39 70.6782C83.39 70.6782 82.0354 58.9288 80.785 56.638C79.5346 54.3464 78.4775 49.7577 80.4 46.3488C82.3233 42.9383 82.9875 36.3789 82.9875 36.3789C83.7344 43.866 81.4913 49.4251 83.0646 50.8972C83.1235 50.9517 83.2317 50.9257 83.386 50.8285L83.39 70.6782Z" fill="#ECC7B4"/>
<path d="M92.0918 13.0188L91.6201 13.3547L91.146 13.022C91.251 12.875 91.4244 12.7778 91.6201 12.7778C91.8142 12.7778 91.9868 12.8727 92.0918 13.0188Z" fill="white"/>
<path d="M91.62 11.9585C91.1459 11.9585 90.7268 12.1932 90.473 12.5511L90.7721 12.7598C90.9606 12.495 91.2708 12.3228 91.62 12.3228C91.9668 12.3228 92.2754 12.4927 92.4632 12.7534L92.7614 12.5409C92.5061 12.1877 92.0893 11.9585 91.62 11.9585Z" fill="white"/>
<path d="M91.62 10.4009C90.6169 10.4009 89.7301 10.8963 89.1924 11.6541L89.4922 11.8627C89.9631 11.1998 90.7418 10.7652 91.62 10.7652C92.4909 10.7652 93.2649 11.1927 93.7373 11.8469L94.034 11.6344C93.4955 10.8876 92.615 10.4009 91.62 10.4009Z" fill="white"/>
<path d="M91.6202 11.2534C90.9067 11.2534 90.2743 11.6043 89.8893 12.1416L90.1884 12.3502C90.5074 11.9077 91.03 11.6177 91.6202 11.6177C92.2056 11.6177 92.725 11.903 93.0447 12.3391L93.3414 12.1282C92.9557 11.5979 92.3281 11.2534 91.6202 11.2534Z" fill="white"/>
<path d="M179.119 144.797H142.525C140.771 143.628 131.658 137.453 127.887 132.849C127.088 131.873 124.165 123.466 121.919 116.639C120.516 112.375 119.377 108.726 119.185 107.889C119.118 107.598 119.074 107.02 119.046 106.238V106.23C118.951 103.438 119.081 98.0544 119.216 93.7778L119.217 93.7581L119.219 93.702C119.225 93.5139 119.231 93.329 119.237 93.1457V93.1393C119.238 93.1212 119.238 93.1022 119.239 93.084C119.264 92.3412 119.287 91.6411 119.31 91.0042C119.366 89.4128 119.414 88.2156 119.434 87.747L119.442 87.5289C119.442 87.5289 119.443 87.5289 119.443 87.5282C119.501 87.4958 121.262 86.5625 123.615 88.2464C124.182 88.6534 124.707 89.6364 125.186 90.9189C125.492 91.7375 125.78 92.6779 126.047 93.6688C127.075 97.4799 127.812 102.036 128.206 103.256C128.84 105.228 136.322 113.898 136.79 114.437C136.797 114.446 136.805 114.455 136.812 114.464V100.772L131.164 85.7581L128.845 79.5946L127.68 76.497C127.68 76.497 125.893 73.582 124.393 70.0751C123.737 68.5405 123.136 66.8929 122.763 65.3268C122.674 64.9538 122.599 64.5848 122.538 64.2236C122.538 64.2229 122.538 64.2229 122.538 64.2221C122.318 62.8985 122.303 61.6705 122.609 60.6709C123.156 58.8906 124.387 58.5556 125.333 58.5919C125.43 58.5951 125.525 58.6038 125.617 58.614C125.709 58.6251 125.8 58.6425 125.889 58.6662C126.055 58.7096 126.212 58.776 126.359 58.8606C126.36 58.8606 126.36 58.8614 126.361 58.8622C126.604 59.0028 126.813 59.1964 126.975 59.4327C126.975 59.4327 127.774 60.4686 128.845 61.861C129.55 62.7776 130.373 63.8483 131.164 64.8803C132.572 66.7191 133.879 68.4346 134.239 68.9372C136.182 71.6547 141.414 80.5104 141.414 80.5104L147.539 80.7656C148.509 80.8059 149.433 81.19 150.142 81.8482C152.32 83.8687 157.016 88.2409 157.591 88.8912C157.591 89.1046 161.241 90.8478 164.059 92.3997C166.075 93.246 169.905 96.2456 169.905 96.2456C170.699 96.9418 171.304 97.6348 171.61 98.297C172.923 101.136 176.485 125.829 178.188 138.036C178.736 141.96 179.091 144.594 179.119 144.797Z" fill="#FFDAC7"/>
<path d="M141.414 80.5098C141.414 80.5098 147.088 89.7108 147.839 90.1257C148.59 90.5405 151.51 91.1205 151.844 90.1257C152.178 89.1308 141.414 80.5098 141.414 80.5098Z" fill="#ECC7B4"/>
<path d="M169.934 96.2711C169.924 96.2624 169.915 96.2545 169.905 96.2458C169.905 96.2458 166.075 93.2462 164.059 92.3999C161.472 90.9744 158.184 89.3893 157.663 88.9736C158.264 89.6556 162.49 94.4062 164.116 94.7626C165.543 95.0755 168.786 95.9566 169.934 96.2711Z" fill="#ECC7B4"/>
<path d="M136.812 114.464V100.771C136.812 100.771 140.086 106.213 140.337 109.197C140.587 112.18 138.976 117.011 136.812 114.464Z" fill="#ECC7B4"/>
<path d="M124.933 64.2199C124.454 63.4044 123.596 61.926 123.302 61.0986C123.219 60.8647 123.229 60.3969 123.518 59.8983C123.692 59.5996 123.965 59.2891 124.377 59.0125C124.572 58.8821 124.768 58.7668 124.98 58.6893C125.229 58.6 125.487 58.551 125.752 58.5479C125.991 58.5455 126.24 58.6838 126.411 58.9288C126.412 58.9295 126.413 58.9311 126.414 58.9319C126.982 59.7545 127.701 60.8742 128.19 61.8881C128.529 62.5882 128.421 63.3965 127.928 63.7521L127.698 63.9197L126.519 64.7746C126.029 65.1279 125.322 64.8861 124.933 64.2199Z" fill="#F9D2BF"/>
<path d="M124.933 64.2197C124.454 63.4042 123.596 61.9257 123.302 61.0984C123.219 60.8645 123.229 60.3967 123.518 59.8981C123.596 59.8349 123.678 59.774 123.767 59.7132C123.961 59.5828 124.158 59.4674 124.37 59.39C124.619 59.3007 124.877 59.2525 125.142 59.2486C125.381 59.2462 125.63 59.3845 125.801 59.6294C125.802 59.6302 125.803 59.6318 125.804 59.6326C126.372 60.4552 127.091 61.5749 127.58 62.5887C127.797 63.0375 127.831 63.5298 127.698 63.9186L126.519 64.7736C126.029 65.1276 125.322 64.8858 124.933 64.2197Z" fill="#E8C0AC"/>
<path d="M160.734 139.174L149.803 144.796H142.526C140.771 143.628 131.658 137.452 127.887 132.849C127.088 131.873 124.165 123.465 121.919 116.638V116.635C122.217 117.542 128.486 130.805 130.271 132.313C132.056 133.82 141.427 142.598 144.015 142.509C146.523 142.423 159.87 139.372 160.697 139.183C160.71 139.18 160.721 139.177 160.734 139.174Z" fill="#ECC7B4"/>
<path d="M182.729 144.796H143.319C145.296 144.026 152.858 141.156 160.697 139.183C160.709 139.18 160.721 139.177 160.734 139.174C167.466 137.482 174.397 136.456 178.161 137.995L178.188 138.035L182.729 144.796Z" fill="white"/>
<path d="M119.238 93.0835C119.239 93.0835 119.239 93.0835 119.24 93.0827C119.904 92.8409 120.837 92.6813 121.29 93.4336C121.996 94.6047 119.373 104.937 119.045 106.237L119.238 93.0835Z" fill="#ECC7B4"/>
<path d="M119.441 87.5281L119.216 93.7778C119.216 93.7778 120.539 93.9919 121.291 93.434C122.043 92.8761 121.644 87.4546 119.441 87.5281Z" fill="#E8C0AC"/>
<path d="M91.9865 123.72C88.1995 124.491 80.0378 121.535 80.0378 121.535L81.3542 108.903L72.1313 119.397C67.4376 117.662 60.0967 113.134 55.7347 110.316C66.9118 109.106 75.2565 98.1479 75.2565 98.1479C83.0046 102.317 91.7502 104.752 91.7502 104.752C91.747 112.259 91.9865 123.72 91.9865 123.72Z" fill="#F2F7FF"/>
<path d="M65.9996 112.246C66.0075 111.403 66.7011 110.727 67.549 110.735C68.397 110.743 69.0778 111.432 69.0699 112.274C69.0619 113.117 68.3683 113.793 67.5204 113.785C66.6725 113.777 65.9916 113.088 65.9996 112.246Z" fill="#073856"/>
<rect x="89.2149" y="18.7944" width="35.271" height="2.0656" rx="1.0328" fill="#B9B9B9"/>
<rect x="89.2149" y="23.9585" width="30.0841" height="2.0656" rx="1.0328" fill="#B9B9B9"/>
<rect x="89.2149" y="29.1226" width="32.1589" height="2.0656" rx="1.0328" fill="#B9B9B9"/>
<rect x="89.2149" y="41.5161" width="30.0841" height="1.0328" rx="0.516399" fill="#B9B9B9"/>
<rect x="89.2149" y="43.5815" width="24.8972" height="1.0328" rx="0.516399" fill="#B9B9B9"/>
<rect x="89.2149" y="45.6475" width="32.1589" height="1.03281" rx="0.516403" fill="#B9B9B9"/>
<rect x="89.2149" y="47.7129" width="28.0093" height="1.0328" rx="0.516401" fill="#B9B9B9"/>
<path d="M106.35 66.3034C106.35 70.5884 102.861 74.0658 98.5512 74.0658C94.2418 74.0658 90.7521 70.5884 90.7521 66.3034C90.7521 62.0184 94.2418 58.541 98.5512 58.541C102.861 58.541 106.35 62.0184 106.35 66.3034Z" stroke="#FFB5B5"/>
<path d="M93.3959 63.7612L92.5756 65.2887C92.3326 65.7412 91.9497 66.1028 91.484 66.3196L91.2993 66.4056C91.1066 66.4953 90.8966 66.5418 90.684 66.5418H90.2679C89.9873 66.5418 89.7293 66.3876 89.5966 66.1403V66.1403C89.3894 65.7545 89.5493 65.2739 89.9463 65.0891L90.3027 64.9231C90.3737 64.8901 90.4479 64.8645 90.5241 64.8468L91.5441 64.6093C92.3777 64.4153 93.2307 64.3173 94.0866 64.3173H94.5904V64.3173C95.326 64.3173 96.0021 63.913 96.3501 63.2649L96.3823 63.2051L94.9706 65.3957C94.7181 65.7875 94.4179 66.1464 94.0767 66.464V66.464C93.6259 66.8838 93.2472 67.3748 92.9557 67.9175L92.7986 68.2102V68.2102C92.4108 68.9322 91.3628 70.1797 91.0277 69.4318C91.0141 69.4014 91.0067 69.3651 91.0067 69.3224C91.0067 68.8775 91.0067 68.3956 91.0067 68.2102V68.076C91.0067 67.5358 91.4446 67.0979 91.9848 67.0979V67.0979C92.1274 67.0979 92.2683 67.0667 92.3976 67.0066L93.3959 66.5418L95.9234 65.3651C96.2613 65.2078 96.6047 65.5715 96.4284 65.8998V65.8998C96.3981 65.9562 96.3823 66.0192 96.3823 66.0832V66.1394C96.3823 66.5862 96.8462 66.882 97.2513 66.6934L97.3678 66.6391C97.5035 66.576 97.6151 66.4706 97.6859 66.3387L98.089 65.5881C98.1448 65.4842 98.2268 65.3968 98.327 65.3347L98.9593 64.9422C99.2919 64.7357 99.6986 65.0643 99.5666 65.4329L99.5428 65.4992C99.458 65.7362 99.6337 65.9857 99.8854 65.9857V65.9857C99.9385 65.9857 99.9909 65.9741 100.039 65.9517L101.161 65.4296L102.355 64.8734V64.8734C102.57 64.7732 102.759 65.0533 102.585 65.2152L102.529 65.2679C102.435 65.3553 102.435 65.5039 102.529 65.5912L102.675 65.7275C102.831 65.873 103.073 65.873 103.23 65.7275L103.432 65.5391C103.509 65.467 103.602 65.4133 103.703 65.3819L105.341 64.8734V64.8734C105.664 64.7232 105.976 65.0993 105.769 65.3887L104.208 67.5685C104.167 67.6254 104.121 67.6781 104.07 67.7258L103.114 68.6157C103.007 68.7158 102.909 68.8265 102.824 68.946L102.192 69.8288C101.94 70.1801 101.474 70.3026 101.082 70.1202V70.1202C100.766 69.9728 100.563 69.6552 100.563 69.306V69.081C100.563 68.8744 100.614 68.6711 100.712 68.4891L100.791 68.343C101.028 67.9015 101.429 67.5708 101.907 67.4223L102.952 67.0979L108.925 65.9857" stroke="#F59696" stroke-width="0.5" stroke-linecap="round" stroke-linejoin="round"/>
</g>
<defs>
<clipPath id="clip0">
<rect width="143.458" height="138.545" fill="white" transform="translate(39.2706 6.25098)"/>
</clipPath>
</defs>
</svg>
