<svg width="222" height="147" viewBox="0 0 222 147" fill="none" xmlns="http://www.w3.org/2000/svg">
<path d="M12.6529 146.224L3.36506 93.4436C1.17996 81.0263 3.0532 68.2354 8.70723 56.9661C20.2787 33.9024 45.5611 21.1068 70.9984 25.44L117.741 33.4025C127.077 34.9929 136.672 33.0866 144.691 28.0479C165.372 15.0535 192.77 24.3512 201.271 47.2486L212.467 77.405C218.555 93.8037 217.666 111.98 210.006 127.706L200.986 146.224H12.6529Z" fill="#F2F2F2"/>
<path d="M198.699 73.6196H100.793V144.955H198.699V73.6196Z" fill="#9D9D9D"/>
<path d="M193.091 85.4507H106.394V89.2885H193.091V85.4507Z" fill="#6C6869"/>
<path d="M110.245 85.4507H106.394V144.994H110.245V85.4507Z" fill="#6C6869"/>
<path d="M193.084 85.4507H189.233V144.994H193.084V85.4507Z" fill="#6C6869"/>
<path d="M198.712 79.5716L100.787 79.565L100.794 78.6304L199.797 78.637L198.712 79.5716Z" fill="#727272"/>
<path d="M199.796 73.4536H99.7093V79.0414H199.796V73.4536Z" fill="#DEDCDC"/>
<path d="M190.776 87.6255H108.622V145.034H190.776V87.6255Z" fill="#95BFFF"/>
<path d="M200.514 135.536H160.851V145.24H200.514V135.536Z" fill="#6D2B49"/>
<path d="M137.876 135.536H98.2125V145.24H137.876V135.536Z" fill="#6D2B49"/>
<path d="M137.876 135.536H98.2125V137.06H137.876V135.536Z" fill="#853459"/>
<path d="M200.514 135.536H160.851V137.06H200.514V135.536Z" fill="#853459"/>
<path d="M201.007 137.823H161.343L160.858 137.021H200.528L201.007 137.823Z" fill="#666666"/>
<g opacity="0.4">
<path opacity="0.4" d="M190.058 97.0643L181.125 88.1689H169.531L190.058 108.624V97.0643Z" fill="white"/>
<path opacity="0.4" d="M190.058 112.243L177.28 99.51C176.116 98.3567 174.234 98.3567 173.076 99.51C171.912 100.67 171.912 102.539 173.076 103.699L190.058 120.622V112.243Z" fill="white"/>
</g>
<g opacity="0.4">
<path opacity="0.4" d="M159.846 117.162L147.614 104.972H138.84V107.789L159.846 128.722V117.162Z" fill="white"/>
<path opacity="0.4" d="M159.846 132.341L141.461 114.02C140.743 113.311 139.765 113.039 138.84 113.205V119.787L159.846 140.719V132.341Z" fill="white"/>
</g>
<g opacity="0.3">
<path opacity="0.3" d="M132.242 112.11C133.845 110.513 133.845 107.928 132.242 106.33L113.092 87.2471H108.13V93.8623L126.442 112.11C128.045 113.708 130.646 113.708 132.242 112.11Z" fill="white"/>
<path opacity="0.3" d="M131.391 124.851C132.555 123.697 132.555 121.821 131.391 120.661L108.13 97.4883V105.867L127.187 124.857C128.344 126.01 130.227 126.01 131.391 124.851Z" fill="white"/>
</g>
<path d="M190.138 88.083H108.802V88.5801H190.138V88.083Z" fill="#C6C6C6"/>
<path d="M160.179 104.833H138.568V105.33H160.179V104.833Z" fill="#C6C6C6"/>
<path d="M160.299 123.797H138.688V124.579H160.299V123.797Z" fill="#C6C6C6"/>
<path d="M109.134 87.2451H108.13V135.527H109.134V87.2451Z" fill="white"/>
<path d="M160.598 103.971H137.923V104.972H160.598V103.971Z" fill="white"/>
<path d="M191.093 87.2446H108.14V88.2455H191.093V87.2446Z" fill="white"/>
<path d="M138.874 87.5195H137.87V145.24H138.874V87.5195Z" fill="white"/>
<path d="M160.851 87.4595H159.846V145.246H160.851V87.4595Z" fill="white"/>
<path d="M191.096 87.2344H190.091V135.536H191.096V87.2344Z" fill="white"/>
<path d="M160.219 122.312H138.441V124.002H160.219V122.312Z" fill="white"/>
<path d="M160.765 144.239H138.089V145.24H160.765V144.239Z" fill="white"/>
<path d="M194.568 127.064H193.736V138.956H194.568V127.064Z" fill="#593D35"/>
<path d="M192.2 145.637H196.111C197.847 144.749 199.058 142.727 199.058 140.367C199.058 139.512 198.898 138.704 198.612 137.975H189.706C189.42 138.704 189.26 139.512 189.26 140.367C189.253 142.727 190.464 144.749 192.2 145.637Z" fill="white"/>
<path d="M200.88 122.484C201.12 122.484 201.339 122.385 201.486 122.206C201.639 122.027 201.719 121.768 201.679 121.496C201.645 121.225 201.499 120.999 201.306 120.86C201.113 120.728 200.88 120.681 200.648 120.747C200.88 120.688 201.06 120.529 201.16 120.317C201.26 120.111 201.273 119.839 201.16 119.587C201.053 119.336 200.854 119.15 200.634 119.07C200.415 118.991 200.175 119.011 199.969 119.13C200.175 119.011 200.315 118.812 200.355 118.587C200.395 118.361 200.335 118.096 200.169 117.877C200.002 117.659 199.763 117.533 199.53 117.513C199.297 117.493 199.071 117.572 198.905 117.745C199.071 117.572 199.158 117.354 199.131 117.115C199.111 116.883 198.985 116.644 198.772 116.479C198.552 116.313 198.286 116.253 198.06 116.293C197.827 116.333 197.634 116.472 197.515 116.678V116.684C197.515 116.684 197.515 116.684 197.515 116.678C197.634 116.472 197.654 116.233 197.575 116.015C197.495 115.796 197.308 115.597 197.056 115.491C196.803 115.385 196.53 115.392 196.317 115.491C196.105 115.59 195.952 115.776 195.885 116.001C195.952 115.769 195.905 115.537 195.772 115.345C195.632 115.153 195.406 115.014 195.133 114.974C194.861 114.941 194.601 115.02 194.428 115.166C194.249 115.319 194.149 115.531 194.149 115.769C194.149 115.531 194.049 115.312 193.87 115.166C193.69 115.014 193.431 114.934 193.158 114.974C192.885 115.007 192.659 115.153 192.519 115.345C192.386 115.537 192.34 115.769 192.406 116.001C192.346 115.769 192.193 115.584 191.974 115.491C191.761 115.392 191.495 115.385 191.236 115.491C190.983 115.59 190.797 115.789 190.717 116.015C190.637 116.233 190.657 116.472 190.777 116.678V116.684C190.777 116.684 190.777 116.684 190.777 116.678C190.657 116.472 190.457 116.333 190.231 116.293C190.005 116.253 189.739 116.313 189.519 116.479C189.3 116.644 189.18 116.883 189.16 117.115C189.134 117.347 189.22 117.572 189.386 117.745C189.22 117.572 188.994 117.493 188.761 117.513C188.528 117.533 188.289 117.659 188.123 117.877C187.956 118.096 187.896 118.355 187.936 118.587C187.976 118.819 188.116 119.017 188.322 119.13C188.116 119.011 187.876 118.991 187.657 119.07C187.437 119.15 187.238 119.336 187.132 119.587C187.025 119.839 187.038 120.111 187.138 120.317C187.238 120.529 187.424 120.688 187.65 120.747C187.418 120.688 187.185 120.728 186.992 120.86C186.799 120.993 186.659 121.225 186.619 121.496C186.586 121.768 186.666 122.027 186.819 122.206C186.965 122.385 187.185 122.484 187.424 122.484C187.185 122.484 186.965 122.584 186.819 122.762C186.666 122.941 186.586 123.2 186.619 123.472C186.653 123.743 186.799 123.969 186.992 124.108C187.185 124.241 187.418 124.287 187.65 124.221C187.424 124.28 187.238 124.433 187.138 124.645C187.038 124.857 187.032 125.129 187.132 125.381C187.238 125.633 187.437 125.818 187.657 125.898C187.876 125.977 188.116 125.957 188.322 125.838C188.116 125.957 187.976 126.15 187.936 126.388C187.896 126.614 187.956 126.879 188.123 127.097C188.289 127.316 188.528 127.436 188.761 127.462C188.994 127.482 189.22 127.402 189.386 127.23C189.22 127.396 189.134 127.628 189.16 127.853C189.18 128.085 189.307 128.324 189.519 128.489C189.739 128.655 190.005 128.715 190.231 128.675C190.464 128.635 190.664 128.496 190.777 128.291C190.657 128.496 190.637 128.735 190.717 128.953C190.797 129.172 190.976 129.371 191.236 129.477C191.488 129.583 191.761 129.57 191.974 129.477C192.187 129.378 192.34 129.192 192.406 128.967C192.346 129.199 192.386 129.431 192.519 129.623C192.652 129.815 192.885 129.954 193.158 129.994C193.431 130.027 193.69 129.948 193.87 129.802C194.049 129.649 194.149 129.431 194.149 129.199C194.149 129.437 194.249 129.656 194.428 129.802C194.608 129.954 194.867 130.034 195.133 129.994C195.406 129.954 195.632 129.815 195.772 129.623C195.905 129.431 195.952 129.199 195.885 128.967C195.945 129.199 196.098 129.378 196.317 129.477C196.53 129.577 196.803 129.583 197.056 129.477C197.308 129.371 197.495 129.172 197.575 128.953C197.654 128.735 197.634 128.496 197.515 128.291C197.634 128.496 197.827 128.635 198.06 128.675C198.293 128.715 198.552 128.655 198.772 128.489C198.991 128.324 199.118 128.085 199.131 127.853C199.158 127.621 199.071 127.396 198.905 127.23C199.071 127.402 199.297 127.482 199.53 127.462C199.763 127.436 200.002 127.316 200.169 127.097C200.335 126.879 200.395 126.62 200.355 126.388C200.315 126.156 200.175 125.957 199.969 125.838C200.175 125.957 200.415 125.977 200.634 125.898C200.854 125.818 201.053 125.633 201.16 125.381C201.266 125.129 201.253 124.857 201.16 124.645C201.06 124.433 200.874 124.28 200.648 124.221C200.88 124.28 201.113 124.241 201.306 124.108C201.499 123.975 201.645 123.75 201.679 123.472C201.712 123.2 201.632 122.941 201.486 122.762C201.339 122.584 201.12 122.484 200.88 122.484Z" fill="#5E942F"/>
<path d="M199.199 137.836H189.195V146.135H199.199V137.836Z" fill="#DBDDE4"/>
<path d="M199.477 145.345H188.914V146.141H199.477V145.345Z" fill="#B4AEAE"/>
<path d="M199.477 137.709H188.914V138.505H199.477V137.709Z" fill="#B4AEAE"/>
<path d="M104.951 127.064H104.119V138.956H104.951V127.064Z" fill="#593D35"/>
<path d="M102.576 145.637H106.487C108.223 144.749 109.434 142.727 109.434 140.367C109.434 139.512 109.268 138.704 108.982 137.975H100.082C99.7958 138.704 99.6295 139.512 99.6295 140.367C99.6295 142.727 100.847 144.749 102.576 145.637Z" fill="white"/>
<path d="M111.256 122.484C111.496 122.484 111.715 122.385 111.862 122.206C112.015 122.027 112.094 121.768 112.061 121.496C112.028 121.225 111.882 120.999 111.689 120.86C111.496 120.728 111.263 120.681 111.03 120.747C111.263 120.688 111.443 120.529 111.542 120.317C111.642 120.111 111.649 119.839 111.542 119.587C111.436 119.336 111.236 119.15 111.017 119.07C110.797 118.991 110.558 119.011 110.352 119.13C110.558 119.011 110.698 118.812 110.737 118.587C110.777 118.361 110.718 118.096 110.551 117.877C110.385 117.659 110.145 117.533 109.913 117.513C109.68 117.493 109.454 117.572 109.287 117.745C109.454 117.572 109.54 117.354 109.514 117.115C109.494 116.883 109.367 116.644 109.154 116.479C108.935 116.313 108.669 116.253 108.443 116.293C108.21 116.333 108.01 116.472 107.891 116.678V116.684C107.891 116.684 107.891 116.684 107.891 116.678C108.01 116.472 108.03 116.233 107.95 116.015C107.871 115.796 107.691 115.597 107.432 115.491C107.179 115.385 106.906 115.392 106.693 115.491C106.48 115.59 106.327 115.776 106.261 116.001C106.321 115.769 106.281 115.537 106.148 115.345C106.015 115.153 105.782 115.014 105.509 114.974C105.237 114.941 104.984 115.02 104.798 115.166C104.618 115.319 104.518 115.531 104.518 115.769C104.518 115.531 104.418 115.312 104.239 115.166C104.059 115.014 103.8 114.934 103.527 114.974C103.254 115.007 103.028 115.153 102.889 115.345C102.756 115.537 102.709 115.769 102.775 116.001C102.716 115.769 102.563 115.584 102.343 115.491C102.13 115.392 101.864 115.385 101.611 115.491C101.359 115.59 101.172 115.789 101.093 116.015C101.013 116.233 101.033 116.472 101.152 116.678V116.684C101.152 116.684 101.152 116.684 101.152 116.678C101.033 116.472 100.833 116.333 100.6 116.293C100.368 116.253 100.108 116.313 99.8887 116.479C99.6692 116.644 99.5428 116.883 99.5228 117.115C99.5029 117.347 99.5827 117.572 99.7556 117.745C99.5893 117.572 99.3632 117.493 99.1304 117.513C98.8976 117.533 98.6581 117.659 98.4918 117.877C98.3255 118.096 98.2657 118.355 98.3056 118.587C98.3455 118.819 98.4852 119.017 98.6914 119.13C98.4852 119.011 98.2457 118.991 98.0262 119.07C97.8067 119.15 97.6071 119.336 97.5007 119.587C97.3943 119.839 97.4076 120.111 97.5007 120.317C97.6005 120.529 97.7867 120.688 98.0129 120.747C97.7801 120.688 97.5473 120.728 97.3544 120.86C97.1615 120.993 97.0218 121.225 96.9819 121.496C96.9486 121.768 97.0285 122.027 97.1814 122.206C97.3278 122.385 97.5473 122.484 97.7867 122.484C97.5473 122.484 97.3278 122.584 97.1814 122.762C97.0285 122.941 96.9486 123.2 96.9819 123.472C97.0218 123.743 97.1615 123.969 97.3544 124.108C97.5473 124.241 97.7801 124.287 98.0129 124.221C97.7801 124.28 97.6005 124.433 97.5007 124.645C97.4009 124.857 97.3943 125.129 97.5007 125.381C97.6071 125.633 97.8067 125.818 98.0262 125.898C98.2457 125.977 98.4852 125.957 98.6914 125.838C98.4852 125.957 98.3455 126.15 98.3056 126.388C98.2657 126.614 98.3255 126.879 98.4918 127.097C98.6581 127.316 98.8976 127.436 99.1304 127.462C99.3632 127.482 99.5893 127.402 99.7556 127.23C99.5893 127.396 99.5029 127.628 99.5228 127.853C99.5428 128.085 99.6692 128.324 99.8887 128.489C100.108 128.655 100.368 128.715 100.6 128.675C100.833 128.635 101.026 128.496 101.152 128.291C101.033 128.496 101.013 128.735 101.093 128.953C101.172 129.172 101.359 129.371 101.611 129.477C101.864 129.583 102.137 129.57 102.343 129.477C102.556 129.378 102.716 129.192 102.775 128.967C102.716 129.199 102.756 129.431 102.889 129.623C103.022 129.815 103.254 129.954 103.527 129.994C103.8 130.027 104.059 129.948 104.239 129.802C104.418 129.649 104.518 129.431 104.518 129.199C104.518 129.437 104.618 129.656 104.798 129.802C104.977 129.954 105.237 130.034 105.509 129.994C105.782 129.954 106.015 129.815 106.148 129.623C106.281 129.431 106.327 129.199 106.261 128.967C106.321 129.199 106.474 129.378 106.693 129.477C106.906 129.577 107.172 129.583 107.432 129.477C107.684 129.371 107.871 129.172 107.95 128.953C108.03 128.735 108.01 128.496 107.891 128.291C108.01 128.496 108.21 128.635 108.443 128.675C108.669 128.715 108.935 128.655 109.154 128.489C109.374 128.324 109.5 128.085 109.514 127.853C109.534 127.621 109.454 127.396 109.287 127.23C109.454 127.402 109.68 127.482 109.913 127.462C110.145 127.436 110.385 127.316 110.551 127.097C110.718 126.879 110.777 126.62 110.737 126.388C110.698 126.156 110.558 125.957 110.352 125.838C110.558 125.957 110.797 125.977 111.017 125.898C111.236 125.818 111.436 125.633 111.542 125.381C111.649 125.129 111.635 124.857 111.542 124.645C111.443 124.433 111.256 124.28 111.03 124.221C111.263 124.28 111.496 124.241 111.689 124.108C111.882 123.975 112.028 123.75 112.061 123.472C112.094 123.2 112.015 122.941 111.862 122.762C111.715 122.584 111.502 122.484 111.256 122.484Z" fill="#5E942F"/>
<path d="M109.568 137.836H99.5709V146.135H109.568V137.836Z" fill="#DBDDE4"/>
<path d="M109.853 145.345H99.2902V146.141H109.853V145.345Z" fill="#B4AEAE"/>
<path d="M109.853 137.709H99.2902V138.505H109.853V137.709Z" fill="#B4AEAE"/>
<path d="M110.345 138.916H99.7822L99.2966 138.505H109.866L110.345 138.916Z" fill="#B4AEAE"/>
<path opacity="0.61" d="M195.24 71.9489L194.708 71.9224H126.163C124.387 69.1119 121.261 67.2427 117.682 67.2427C114.11 67.2427 110.977 69.1119 109.201 71.9224H103.514L102.017 82.5544L103.514 83.6746H110.026C111.862 85.8421 114.609 87.2274 117.682 87.2274C120.755 87.2274 123.502 85.8487 125.338 83.6746H196.756L195.24 71.9489Z" fill="#ECE5E5"/>
<path d="M195.26 70.8018H102.017V82.554H195.26V70.8018Z" fill="#535353"/>
<path d="M194.255 71.8027H103.022V81.5532H194.255V71.8027Z" fill="#F3F3F3"/>
<path d="M144.696 77.2505H142.641L142.251 78.4224H141.005L143.122 72.7349H144.208L146.337 78.4224H145.091L144.696 77.2505ZM142.958 76.3013H144.38L143.665 74.1724L142.958 76.3013ZM151.557 78.4224H150.381V73.6841H148.104V78.4224H146.932V72.7349H151.557V78.4224ZM156.925 73.6841H155.183V78.4224H154.011V73.6841H152.292V72.7349H156.925V73.6841ZM161.075 75.9575H158.825V77.481H161.466V78.4224H157.653V72.7349H161.458V73.6841H158.825V75.0396H161.075V75.9575ZM164.065 76.0981H163.389V78.4224H162.217V72.7349H163.389V75.0122H163.924L165.315 72.7349H166.744L164.99 75.4263L166.928 78.4224H165.529L164.065 76.0981ZM170.648 77.2505H168.593L168.203 78.4224H166.956L169.074 72.7349H170.16L172.288 78.4224H171.042L170.648 77.2505ZM168.91 76.3013H170.331L169.617 74.1724L168.91 76.3013Z" fill="#E53000"/>
<path d="M126.209 76.118C126.209 81.6329 121.719 86.1071 116.185 86.1071C110.651 86.1071 106.161 81.6329 106.161 76.118C106.161 70.6031 110.651 66.1289 116.185 66.1289C121.726 66.1289 126.209 70.5965 126.209 76.118Z" fill="#E53000"/>
<path d="M122.856 73.5599H118.719V69.437H114.01V73.5599H109.866V78.2529H114.01V82.3824H118.719V78.2529H122.856V73.5599Z" fill="#F3F3F3"/>
<path d="M209.907 85.2588H195.267V99.848H209.907V85.2588Z" fill="#535353"/>
<path d="M209.162 86.0078H196.018V99.1056H209.162V86.0078Z" fill="#F3F3F3"/>
<path d="M207.073 90.9528H204.246V88.1357H201.027V90.9528H198.2V94.161H201.027V96.9781H204.246V94.161H207.073V90.9528Z" fill="#E53000"/>
<path d="M195.646 87.8706H191.089V88.7389H195.646V87.8706Z" fill="#535353"/>
<path d="M195.646 96.4082H191.089V97.2831H195.646V96.4082Z" fill="#535353"/>
<path d="M176.489 115.889C176.436 115.882 176.39 115.875 176.336 115.869V113.999C180.115 113.92 183.168 110.838 183.168 107.053L183.161 106.841H169.352L169.213 106.874L169.206 107.06C169.206 110.844 172.259 113.933 176.044 114.006V115.836C172.392 115.345 168.408 114.709 167.057 112.037C165.853 109.645 166.046 106.841 167.53 105.071C168.674 103.706 170.397 103.222 172.286 103.719C172.272 103.838 172.286 103.964 172.345 104.097C172.498 104.421 172.864 104.72 173.33 104.885C173.569 104.972 173.815 105.018 174.048 105.018C174.514 105.018 174.853 104.839 174.96 104.541C175.132 104.077 174.68 103.5 173.935 103.228C173.696 103.142 173.45 103.096 173.217 103.096C172.831 103.096 172.532 103.228 172.385 103.447C170.377 102.91 168.534 103.427 167.31 104.885C165.754 106.741 165.547 109.664 166.798 112.163C168.215 114.987 172.312 115.623 176.037 116.127V120.018C173.17 120.111 170.343 120.489 170.343 123.2H170.636C170.636 120.741 173.223 120.396 176.044 120.303V122.935H172.931V123.22H179.443V122.935H176.33V120.29C176.616 120.283 176.895 120.277 177.181 120.27C179.835 120.217 182.343 120.164 182.343 118.368C182.349 116.677 179.636 116.313 176.489 115.889ZM172.612 103.971C172.592 103.938 172.592 103.904 172.585 103.871C172.592 103.904 172.592 103.931 172.612 103.971ZM172.578 103.666C172.645 103.487 172.891 103.374 173.223 103.374C173.423 103.374 173.636 103.414 173.842 103.487C174.414 103.692 174.8 104.123 174.693 104.428C174.68 104.461 174.66 104.494 174.627 104.527C174.654 104.494 174.673 104.461 174.687 104.428C174.8 104.123 174.414 103.692 173.835 103.487C173.629 103.414 173.416 103.374 173.217 103.374C172.891 103.381 172.645 103.493 172.578 103.666C172.578 103.672 172.578 103.672 172.578 103.666ZM169.499 107.126H182.882H169.499ZM177.181 119.985C176.902 119.992 176.616 119.998 176.336 120.005V116.16C176.376 116.167 176.41 116.167 176.449 116.174C179.463 116.578 182.063 116.929 182.063 118.374C182.063 119.886 179.689 119.932 177.181 119.985Z" fill="white"/>
<path d="M138.275 137.948H98.6116L98.126 137.14H137.79L138.275 137.948Z" fill="#666666"/>
<path d="M199.976 138.975H189.413L188.928 138.564H199.49L199.976 138.975Z" fill="#B4AEAE"/>
<path d="M17.877 98.4163L15.2701 144.799H53.4243L54.7097 112.905L60.3259 97.2735L86.5088 79.8675C89.2358 78.5434 90.5152 75.538 89.386 72.8348C88.2267 70.0712 84.9651 68.6152 81.9137 69.4064L85.4637 68.1591C88.6652 67.0383 90.263 63.7527 89.0376 60.8297C87.8123 57.9013 84.2203 56.4398 81.0248 57.5606L80.1057 57.8848C83.013 56.6266 84.4185 53.5168 83.2472 50.7257C82.0699 47.9291 78.7422 46.4731 75.6548 47.3357L85.5898 36.3581C87.6741 34.0505 87.3257 30.6385 84.8089 28.7265C82.2922 26.82 78.55 27.1386 76.4657 29.4407L71.9067 34.479V13.5951C71.9067 10.5458 69.1977 8.06787 65.87 8.06787H34.3652C31.0315 8.06787 28.3165 10.5458 28.3165 13.5951V39.2206C28.0402 37.0064 27.5597 35.0889 26.7308 34.4131C20.622 29.3638 18.0812 33.8856 18.0812 33.8856L12.7113 72.8843L12.471 74.7304L15.4503 88.642L17.877 98.4163ZM28.3225 52.374V68.4394L26.7728 70.7195L28.3225 52.374Z" fill="#EEEEEE"/>
<path d="M76.3397 83.3723C76.4298 83.3558 76.5139 83.3394 76.604 83.3174L76.2076 83.4602L76.3397 83.3723Z" fill="#E6E6E6"/>
<path d="M23.9321 82.6751L28.6113 90.2792C28.6113 90.2792 46.8715 96.4878 46.7573 96.8119C46.6372 97.1306 53.1964 94.4549 53.5448 94.1362C53.8932 93.812 67.3601 87.3892 67.3601 87.3892L76.4902 79.6807L84.1006 74.2193L82.9293 59.8682L73.4448 48.0884L46.6372 58.2584L23.9321 82.6751Z" fill="#ECC7B4"/>
<path d="M20.1478 93.2018L17.2312 146.224H56.9805V107.69L62.5967 92.059L89.4403 74.2135L74.5679 79.6858L65.5219 86.812L54.8301 88.9877L42.4624 90.202L35.2845 87.3834L32.1911 82.5319L36.7021 82.2517L43.0931 81.922L43.874 43.6596L29.0496 65.505L30.9057 43.4674C30.9057 43.4674 31.3982 31.1546 29.0076 29.1986C22.8988 24.1493 20.364 28.6712 20.364 28.6712L14.9941 67.6698L14.7598 69.5159L17.7391 83.4275L20.1478 93.2018Z" fill="#FFDAC7"/>
<path d="M63.6773 49.3575C66.2001 51.2641 69.9242 50.9454 72.0145 48.6378L87.8541 31.1494C89.9444 28.8418 89.59 25.4298 87.0732 23.5178C84.5564 21.6113 80.8143 21.9299 78.736 24.2375L62.8965 41.7259C60.8062 44.0336 61.1606 47.4455 63.6773 49.3575Z" fill="#FFD0B8"/>
<path d="M71.0838 96.4858H36.6185C33.2284 96.4858 30.4548 93.7141 30.4548 90.3263V14.6199C30.4548 11.2322 33.2284 8.46045 36.6185 8.46045H71.0838C74.4739 8.46045 77.2475 11.2322 77.2475 14.6199V90.3255C77.2475 93.7141 74.4739 96.4858 71.0838 96.4858Z" fill="#2B478B"/>
<path d="M74.9287 15.2036V89.1549C74.9287 91.6635 72.8892 93.7159 70.398 93.7159H37.304C34.8128 93.7159 32.7741 91.6635 32.7741 89.1549V15.2036C32.7741 12.6949 34.8128 10.6426 37.304 10.6426H70.398C72.8892 10.6426 74.9287 12.6949 74.9287 15.2036Z" fill="white"/>
<path d="M70.0201 10.0625H37.874C35.1125 10.0625 32.874 12.3011 32.874 15.0625V89.1624C32.874 91.9238 35.1125 94.1624 37.874 94.1624H70.0201C72.7816 94.1624 75.0201 91.9238 75.0201 89.1624V15.0625C75.0201 12.3011 72.7816 10.0625 70.0201 10.0625Z" fill="#E3CFC7"/>
<path d="M58.6109 55.9986C58.6804 54.8633 59.2319 53.8119 60.1264 53.1094C62.2204 51.4649 65.3072 52.2984 66.2888 54.7734L71.9264 68.9876C72.5683 70.6059 72.3221 72.4416 71.2766 73.8337L68.1904 77.9429C66.5662 80.1054 63.4954 80.5393 61.3357 78.9115C60.1793 78.04 59.4686 76.7008 59.3949 75.2546L59.3058 73.5051C59.2674 72.7522 59.0593 72.0177 58.697 71.3566L58.226 70.4971C57.7354 69.6018 57.5306 68.5777 57.6391 67.5626L58.257 61.7846L58.6109 55.9986Z" fill="#8CB302"/>
<path d="M75.05 18.7591C75.05 18.4333 74.7641 18.1814 74.4408 18.2224L56.3756 20.5184C51.2187 21.1738 50.3623 28.2865 55.2163 30.1472L62.0782 32.7776C64.3632 33.6535 66.9464 32.7469 68.1828 30.6351L74.9759 19.0325C75.0245 18.9496 75.05 18.8552 75.05 18.7591Z" fill="#8CB302"/>
<path d="M58.3924 74.9897C58.3924 77.8448 56.4115 80.165 53.9739 80.165C51.5364 80.165 49.5555 77.8523 49.5555 74.9897C49.5555 72.1347 51.5364 69.8145 53.9739 69.8145C56.4115 69.8145 58.3924 72.1271 58.3924 74.9897Z" fill="#8CB302"/>
<path d="M34.5317 20.9092C33.7337 20.5823 32.8591 21.1692 32.8591 22.0316C32.8591 22.524 33.1568 22.9675 33.6125 23.1541L73.3824 39.4363C74.1782 39.7621 75.0503 39.1768 75.0503 38.3168C75.0503 37.8258 74.7535 37.3836 74.2992 37.1975L34.5317 20.9092Z" fill="white"/>
<path d="M32.8591 53.9786C32.8591 55.0894 34.3105 55.5108 34.9054 54.5727L50.248 30.3777C50.5413 29.915 50.4524 29.3074 50.0388 28.9482C49.5272 28.5039 48.7401 28.619 48.3771 29.1912L33.0317 53.3844C32.919 53.5621 32.8591 53.7681 32.8591 53.9786Z" fill="white"/>
<path d="M75.0504 22.3304C75.0504 21.2134 73.584 20.7994 72.9999 21.7515L65.5491 33.8961C65.262 34.3642 65.361 34.9721 65.782 35.3248C66.3006 35.7594 67.0843 35.6316 67.4381 35.0548L74.8871 22.9091C74.9939 22.735 75.0504 22.5347 75.0504 22.3304Z" fill="white"/>
<path d="M75.0503 18.6039C75.0503 17.8743 74.4204 17.3043 73.6945 17.3769L36.4283 21.1066C35.7627 21.1732 35.2712 21.7578 35.32 22.4249C35.3707 23.1178 35.9829 23.6324 36.6742 23.5632L73.9401 19.8308C74.5704 19.7677 75.0503 19.2373 75.0503 18.6039Z" fill="white"/>
<path d="M75.0505 89.5935C75.0505 89.2216 74.8742 88.8716 74.5753 88.6501L60.4199 78.1623C59.8458 77.7369 59.0279 77.9191 58.6887 78.548C58.4117 79.0615 58.5541 79.7005 59.0228 80.0478L73.1772 90.5369C73.9521 91.1111 75.0505 90.558 75.0505 89.5935Z" fill="white"/>
<path d="M34.7324 59.1211C33.9576 58.5468 32.8591 59.0998 32.8591 60.0643C32.8591 60.4361 33.0352 60.7859 33.3339 61.0073L47.4262 71.4575C48.0003 71.8832 48.8183 71.7021 49.1591 71.0739C49.4382 70.5595 49.2962 69.9181 48.826 69.5696L34.7324 59.1211Z" fill="white"/>
<path d="M53.9545 82.5764C50.3657 82.5764 47.4521 79.1564 47.4521 74.9604C47.4521 70.757 50.3721 67.3369 53.9545 67.3369C57.5433 67.3369 60.4568 70.757 60.4568 74.9604C60.4568 79.1639 57.5369 82.5764 53.9545 82.5764ZM53.9545 69.8153C51.5298 69.8153 49.5617 72.1205 49.5617 74.9604C49.5617 77.8004 51.5362 80.1056 53.9545 80.1056C56.3792 80.1056 58.3473 77.8004 58.3473 74.9604C58.3473 72.1205 56.3792 69.8153 53.9545 69.8153Z" fill="white"/>
<path d="M42.6844 65.4966C42.2937 65.8172 41.9538 66.1952 41.6763 66.6177L33.0417 79.7666C32.9226 79.948 32.8591 80.1602 32.8591 80.3772C32.8591 81.4817 34.2949 81.911 34.9012 80.9878L43.1554 68.4184C43.433 67.9957 43.773 67.6176 44.164 67.2969L74.6232 42.315C74.8936 42.0932 75.0503 41.7619 75.0503 41.4121C75.0503 40.4263 73.9042 39.8841 73.142 40.5094L42.6844 65.4966Z" fill="white"/>
<path d="M57.8226 68.5057C57.7685 68.9526 57.3532 69.2644 56.909 69.1916C56.4906 69.1231 56.2006 68.737 56.2513 68.316L57.5308 57.6939C57.7689 55.7178 56.8122 53.7887 55.0949 52.7822L41.7127 44.9392C41.3245 44.7116 41.1659 44.2309 41.3426 43.817C41.554 43.3219 42.152 43.1246 42.6165 43.3967L56.8226 51.7193C58.5411 52.7261 59.4982 54.6568 59.2589 56.634L57.8226 68.5057Z" fill="white"/>
<path d="M44.1018 94.1093C44.5023 94.1093 44.871 93.8915 45.0642 93.5407L51.4366 81.9721C51.7006 81.4929 51.5725 80.8926 51.1359 80.5628C50.6008 80.1585 49.8316 80.3228 49.5082 80.9103L43.1392 92.4807C42.7361 93.213 43.2659 94.1093 44.1018 94.1093Z" fill="white"/>
<path d="M48.5179 10.0996C48.0412 10.0996 47.6727 10.5179 47.7327 10.9908L48.801 19.3992C48.8581 19.8487 49.2788 20.1597 49.7252 20.0825C50.1446 20.0101 50.4326 19.6202 50.3786 19.1981L49.303 10.7906C49.2524 10.3956 48.9162 10.0996 48.5179 10.0996Z" fill="white"/>
<path d="M63.3988 10.0996C62.9314 10.0996 62.5651 10.5015 62.6084 10.9669L63.3333 18.7564C63.3746 19.2009 63.7755 19.523 64.2185 19.4677C64.6419 19.4149 64.947 19.0355 64.9078 18.6105L64.1893 10.8205C64.1516 10.4121 63.809 10.0996 63.3988 10.0996Z" fill="white"/>
<path d="M55.1751 31.9375L47.2939 45.8241C47.0663 46.2252 47.1767 46.7799 47.5406 47.0632C47.9044 47.3465 48.3839 47.2511 48.6115 46.85L56.4928 32.9634C56.7204 32.5624 56.6099 32.0076 56.2461 31.7243C55.8822 31.441 55.4028 31.5365 55.1751 31.9375Z" fill="white"/>
<path d="M34.1656 30.8588C33.5654 30.5587 32.8591 30.9952 32.8591 31.6663C32.8591 32.0083 33.0525 32.321 33.3585 32.4739L42.5437 37.0622C43.0246 37.3024 43.6074 37.0709 43.7924 36.5662C43.9502 36.1356 43.7594 35.6552 43.3493 35.4502L34.1656 30.8588Z" fill="white"/>
<path d="M34.1662 42.0966C33.5668 41.7943 32.8591 42.23 32.8591 42.9013C32.8591 43.2417 33.0509 43.553 33.3548 43.7062L37.5323 45.8112C38.0132 46.0536 38.5979 45.8225 38.7832 45.3168C38.9405 44.8875 38.7513 44.4085 38.3431 44.2027L34.1662 42.0966Z" fill="white"/>
<path d="M75.0502 70.5975C75.0502 69.5075 73.6492 69.0623 73.0199 69.9524L65.3839 80.7537C65.0654 81.2042 65.1229 81.8197 65.5195 82.2034C66.0125 82.6805 66.815 82.6054 67.2109 82.0451L74.8452 71.2425C74.9786 71.0539 75.0502 70.8285 75.0502 70.5975Z" fill="white"/>
<path d="M73.8187 70.5839L65.6883 50.9781C65.4574 50.4212 64.8454 50.2115 64.3214 50.5096C63.7974 50.8077 63.5599 51.5007 63.7908 52.0576L71.9211 71.6634C72.152 72.2203 72.764 72.4301 73.288 72.132C73.812 71.8339 74.0496 71.1408 73.8187 70.5839Z" fill="white"/>
<path d="M48.3318 84.8085L38.783 75.6708C38.4339 75.3367 37.9268 75.3872 37.6504 75.7834C37.374 76.1797 37.4329 76.7718 37.7819 77.1058L47.3307 86.2436C47.6798 86.5776 48.1869 86.5272 48.4633 86.1309C48.7398 85.7346 48.6809 85.1426 48.3318 84.8085Z" fill="white"/>
<path d="M34.8211 82.2842C34.307 81.7924 33.4755 81.8749 33.0682 82.4581L32.8701 82.7416C32.863 82.7519 32.8591 82.764 32.8591 82.7765C32.8591 82.7931 32.8659 82.809 32.8779 82.8205L42.9202 92.4308C43.3044 92.7985 43.926 92.7366 44.2301 92.3004C44.4745 91.95 44.427 91.4739 44.1184 91.1786L34.8211 82.2842Z" fill="white"/>
<path d="M39.689 36.9569C39.0368 36.6465 38.2556 36.8924 37.8987 37.5204C37.521 38.1852 37.7567 39.0304 38.4239 39.4038L39.1639 39.8178C39.7808 40.163 40.5581 39.9965 40.9794 39.4289C41.5072 38.7178 41.2542 37.7018 40.4546 37.3213L39.689 36.9569Z" fill="#E3CFC7"/>
<path d="M37.5902 39.9735C37.185 39.7661 36.6849 39.9291 36.4716 40.3311C36.288 40.6772 35.8814 40.8494 35.5071 40.7339L35.2504 40.6547C35.0111 40.5809 34.7538 40.6936 34.6458 40.9196C34.5309 41.1601 34.6226 41.4484 34.8553 41.5784L36.9546 42.7507C37.573 43.0961 38.3523 42.9177 38.759 42.3379C39.2406 41.6512 39.0041 40.6974 38.2575 40.3152L37.5902 39.9735Z" fill="#E3CFC7"/>
<path d="M44.5069 43.5887C43.851 43.2046 43.6336 42.3599 44.0224 41.7069C44.4102 41.0556 45.2534 40.8434 45.9033 41.2335L47.1971 42.0101C47.8269 42.3882 48.0431 43.1979 47.6854 43.8395C47.3139 44.5059 46.4673 44.7368 45.809 44.3513L44.5069 43.5887Z" fill="#E3CFC7"/>
<path d="M35.7012 45.5269C35.1534 45.267 34.4988 45.5059 34.2473 46.0577L34.0597 46.4692C33.848 46.9334 33.9957 47.4825 34.4117 47.7778C34.9215 48.1397 35.632 47.9861 35.9467 47.4459L36.1743 47.055C36.4945 46.5054 36.2759 45.7995 35.7012 45.5269Z" fill="#E3CFC7"/>
<path d="M52.3743 17.6695C51.7208 17.8344 51.0706 17.3899 50.9871 16.7212L50.9129 16.1275C50.8432 15.5691 51.2034 15.0472 51.7503 14.9144C52.3726 14.7633 52.9929 15.1701 53.1024 15.801L53.2047 16.3905C53.305 16.9684 52.943 17.5259 52.3743 17.6695Z" fill="#E3CFC7"/>
<path d="M55.4595 14.1098C54.7721 14.259 54.3329 14.9338 54.4747 15.6228L54.6253 16.3544C54.7634 17.0251 55.4163 17.4591 56.0881 17.3268C56.7226 17.202 57.1565 16.6129 57.0876 15.9699L57.0079 15.2272C56.9266 14.4685 56.2052 13.9479 55.4595 14.1098Z" fill="#E3CFC7"/>
<path d="M60.0251 13.2434C59.2831 13.445 58.8289 14.1923 58.9915 14.9438L59.2027 15.9193C59.313 16.4289 59.8157 16.7524 60.3252 16.6415L60.5876 16.5844C60.8486 16.5277 61.0392 16.3032 61.0529 16.0365C61.0659 15.784 61.2384 15.5675 61.4814 15.4978C61.7729 15.4143 61.9552 15.1244 61.9034 14.8256L61.7977 14.2157C61.6686 13.4708 60.9266 12.9984 60.1971 13.1967L60.0251 13.2434Z" fill="#E3CFC7"/>
<path d="M51.2992 10.0625C50.5858 10.0625 50.0312 10.6834 50.1116 11.3923C50.1922 12.1037 50.8759 12.5851 51.5729 12.4212L52.2987 12.2504C52.8787 12.114 53.2471 11.5435 53.133 10.9587C53.0313 10.4382 52.5752 10.0625 52.0448 10.0625H51.2992Z" fill="#E3CFC7"/>
<path d="M67.119 16.5761C66.3772 16.5517 65.7693 15.9793 65.7003 15.2403C65.6223 14.4052 66.2562 13.6736 67.0939 13.6317L67.3127 13.6207C68.1019 13.5813 68.7834 14.1677 68.862 14.954C68.9511 15.8462 68.2342 16.6127 67.338 16.5833L67.119 16.5761Z" fill="#E3CFC7"/>
<path d="M71.1546 15.1739C71.2324 15.7453 71.7522 16.15 72.3252 16.0852C72.8994 16.0202 73.3161 15.5077 73.2624 14.9323L73.2165 14.4398C73.1607 13.8405 72.6221 13.4047 72.0243 13.4751C71.429 13.5453 71.0071 14.09 71.0879 14.6838L71.1546 15.1739Z" fill="#E3CFC7"/>
<path d="M39.9292 17.7106C39.3089 17.8436 38.9075 18.4465 39.0239 19.0701L39.0462 19.1898C39.1613 19.8063 39.7416 20.2227 40.3625 20.1343C41.0252 20.04 41.4741 19.4104 41.3473 18.7531L41.3243 18.6336C41.2 17.9894 40.5707 17.573 39.9292 17.7106Z" fill="#E3CFC7"/>
<path d="M39.9309 17.1114C39.2693 17.249 38.6241 16.8153 38.5016 16.1507L38.1174 14.0648C38.0029 13.4433 38.3868 12.8386 38.9979 12.6778C39.6793 12.4985 40.3689 12.9381 40.494 13.6315L40.8706 15.7188C40.9865 16.361 40.5697 16.9785 39.9309 17.1114Z" fill="#E3CFC7"/>
<path d="M45.0901 11.0326C46.1686 10.8087 47.2126 11.5403 47.3704 12.6304L47.5557 13.911C47.6436 14.5183 47.2137 15.0787 46.6044 15.1511L46.4601 15.1683C45.9583 15.2279 45.4991 14.8804 45.4202 14.3812L45.3998 14.2525C45.3295 13.8074 44.9097 13.5049 44.4652 13.579C44.0331 13.651 43.6219 13.367 43.5362 12.9374L43.4643 12.5768C43.3364 11.9354 43.7497 11.3109 44.3901 11.178L45.0901 11.0326Z" fill="#E3CFC7"/>
<path d="M44.8558 17.7502C44.7328 16.9455 45.2693 16.1879 46.0693 16.0368C46.9169 15.8766 47.7264 16.4573 47.8464 17.3116L47.9198 17.8336C48.0349 18.6531 47.4682 19.4122 46.6499 19.5349C45.8278 19.6581 45.0611 19.093 44.9355 18.2713L44.8558 17.7502Z" fill="#E3CFC7"/>
<path d="M72.9795 29.8175C72.3137 29.515 71.5273 29.7808 71.1815 30.4252C70.7939 31.1477 71.1134 32.0469 71.8699 32.363L72.1096 32.4631C72.8532 32.7738 73.704 32.3863 73.9576 31.6214C74.1804 30.9495 73.8606 30.2178 73.2161 29.925L72.9795 29.8175Z" fill="#E3CFC7"/>
<path d="M33.8126 26.2063C34.036 25.3793 34.955 24.9578 35.7275 25.3279L36.3537 25.628C37.056 25.9645 37.34 26.8158 36.9804 27.5065C36.632 28.1758 35.81 28.4403 35.1367 28.0997L34.517 27.7863C33.9374 27.4931 33.6432 26.8333 33.8126 26.2063Z" fill="#E3CFC7"/>
<path d="M60.1146 36.3956C60.3397 35.5698 61.258 35.1498 62.0299 35.5196L62.658 35.8206C63.3606 36.1573 63.6447 37.0089 63.285 37.7C62.9366 38.3691 62.115 38.6338 61.4415 38.294L60.8198 37.9802C60.238 37.6867 59.9433 37.0243 60.1146 36.3956Z" fill="#E3CFC7"/>
<path d="M38.3377 27.9448C38.6383 27.2306 39.4784 26.9171 40.1734 27.2597L40.8552 27.5959C41.4993 27.9135 41.7613 28.695 41.4387 29.3366C41.1506 29.9097 40.486 30.1849 39.8771 29.9834L39.1554 29.7446C38.4101 29.498 38.0332 28.6684 38.3377 27.9448Z" fill="#E3CFC7"/>
<path d="M67.8963 50.9199C67.5038 50.2954 67.6734 49.2901 68.2381 48.8156C68.4921 48.6022 68.7651 48.3718 69.0281 48.1494C69.7266 47.5587 70.7901 47.7427 71.2472 48.535C71.6402 49.216 71.4251 50.0858 70.7601 50.5052L69.5182 51.2885C68.9686 51.635 68.2421 51.4699 67.8963 50.9199Z" fill="#E3CFC7"/>
<path d="M69.0331 53.4334C68.6469 53.6702 68.4914 54.1534 68.6671 54.571L69.4384 56.4042C69.6808 56.9803 70.3874 57.1939 70.9083 56.8485C71.3328 56.567 71.4768 56.0108 71.2423 55.5586L70.3266 53.7931C70.0816 53.3205 69.487 53.1552 69.0331 53.4334Z" fill="#E3CFC7"/>
<path d="M71.429 57.7691C70.8397 58.2552 70.6457 59.0739 70.9542 59.7727L72.0219 62.1913C72.2605 62.7317 72.9274 62.9285 73.4211 62.6041C73.7946 62.3587 73.9482 61.8872 73.7908 61.4688L73.1823 59.8508C73.0409 59.4748 73.1773 59.0509 73.5114 58.8279C73.8502 58.6018 73.9851 58.1699 73.8353 57.7912L73.7754 57.64C73.5094 56.9675 72.6649 56.7499 72.1069 57.2101L71.429 57.7691Z" fill="#E3CFC7"/>
<path d="M40.7245 47.3211C41.0865 46.5268 42.0456 46.2054 42.8131 46.621L43.8946 47.2066C44.6698 47.6264 44.9382 48.608 44.4844 49.3638C44.0378 50.1075 43.0672 50.3388 42.3332 49.8765L41.2926 49.2211C40.6544 48.8191 40.4117 48.0073 40.7245 47.3211Z" fill="#E3CFC7"/>
<path d="M48.0574 49.5525C47.301 49.123 46.3392 49.4509 46.0026 50.253C45.7234 50.9182 45.9752 51.6875 46.5937 52.0589L48.176 53.0091C48.9221 53.4571 49.8919 53.1645 50.2657 52.3786C50.5976 51.6809 50.3343 50.8453 49.6624 50.4639L48.0574 49.5525Z" fill="#E3CFC7"/>
<path d="M40.0935 50.4248C39.5613 49.9648 38.7465 50.0753 38.3559 50.6603L37.1238 52.5061C36.7651 53.0434 36.8842 53.7668 37.3961 54.1607C37.9796 54.6098 38.8243 54.4479 39.2004 53.8149L40.3341 51.9071C40.6236 51.4199 40.5222 50.7954 40.0935 50.4248Z" fill="#E3CFC7"/>
<path d="M35.1022 58.2078C34.5736 57.7895 34.4381 57.0436 34.7857 56.466L35.2592 55.6793C35.6558 55.0205 36.5263 54.8336 37.1583 55.2716C37.7275 55.6661 37.8992 56.431 37.5533 57.0309L37.0947 57.8264C36.6862 58.535 35.7436 58.7154 35.1022 58.2078Z" fill="#E3CFC7"/>
<path d="M38.4395 58.93C38.0315 59.4927 38.1542 60.2792 38.7144 60.6908L40.769 62.2006C41.3332 62.6151 42.127 62.4911 42.5378 61.9242C42.9442 61.3633 42.8225 60.5797 42.2652 60.1685L40.2135 58.6548C39.6484 58.2378 38.8517 58.3614 38.4395 58.93Z" fill="#E3CFC7"/>
<path d="M36.5796 79.4987C37.073 78.6069 38.2893 78.4485 38.9948 79.1842C39.5479 79.761 39.5568 80.6687 39.0151 81.2563L38.8567 81.4281C38.2836 82.0497 37.3079 82.0678 36.7121 81.468C36.247 80.9997 36.1469 80.2806 36.4664 79.7032L36.5796 79.4987Z" fill="#E3CFC7"/>
<path d="M39.7232 82.2352C40.1853 81.5598 41.1413 81.4568 41.7367 82.0183L41.817 82.094C42.3762 82.6214 42.3762 83.5107 41.8169 84.038C41.2761 84.5481 40.4229 84.5185 39.9187 83.9723L39.8438 83.8912C39.4225 83.4348 39.3724 82.7478 39.7232 82.2352Z" fill="#E3CFC7"/>
<path d="M42.5438 84.8926C43.0035 84.1888 43.9741 84.0432 44.62 84.5813L44.7672 84.7039C45.3509 85.1902 45.4462 86.0507 44.983 86.6529C44.4617 87.3306 43.463 87.3943 42.8597 86.7884L42.7245 86.6526C42.2562 86.1822 42.1809 85.4483 42.5438 84.8926Z" fill="#E3CFC7"/>
<path d="M59.6097 82.7085C59.9279 82.2464 60.5671 82.1427 61.015 82.4806L66.5497 86.6558C67.0613 87.0417 67.142 87.779 66.7258 88.2664C66.3336 88.7259 65.6463 88.7883 65.1776 88.4071L59.7995 84.0321C59.4008 83.7078 59.3182 83.1317 59.6097 82.7085Z" fill="#E3CFC7"/>
<path d="M69.25 88.6845C68.8106 88.4388 68.2554 88.5911 68.0028 89.0266C67.7441 89.4727 67.9017 90.0442 68.3524 90.2947L68.5446 90.4015C68.967 90.6362 69.4989 90.5048 69.7634 90.1003C70.0556 89.6534 69.908 89.0524 69.4418 88.7918L69.25 88.6845Z" fill="#E3CFC7"/>
<path d="M69.5644 83.1214C68.8006 82.5319 68.6423 81.4427 69.2065 80.66L69.4855 80.273C70.0734 79.4576 71.2253 79.303 72.0074 79.9345C72.6525 80.4554 72.8441 81.3573 72.4665 82.0955L72.2492 82.5202C71.7395 83.5165 70.4503 83.8052 69.5644 83.1214Z" fill="#E3CFC7"/>
<path d="M66.986 37.4197C65.9251 36.9677 64.7025 37.5023 64.3139 38.5881C63.9444 39.6207 64.4737 40.7585 65.5015 41.1412L66.3702 41.4645C67.2111 41.7776 68.1573 41.4868 68.6773 40.7556C69.4107 39.7243 69.0031 38.2791 67.8388 37.783L66.986 37.4197Z" fill="#E3CFC7"/>
<path d="M56.6945 26.2646C56.688 26.2646 56.6752 26.2646 56.6687 26.2646C51.144 26.2646 46.6612 30.5701 46.6612 35.8763C46.6612 37.0376 46.8027 38.1804 47.2722 39.1873C49.311 43.5792 56.643 56.1807 56.643 56.1807L56.6687 56.2301C56.6687 56.2301 64.0265 43.5916 66.0653 39.1811C66.5284 38.1804 66.6763 37.0376 66.6763 35.8701C66.6763 30.5763 62.2063 26.277 56.6945 26.2646Z" fill="#FF3F3F"/>
<path d="M56.669 28.9639C52.5077 28.9639 49.1312 32.3428 49.1312 36.5124C49.1312 40.6819 52.5077 44.0609 56.669 44.0609C60.8302 44.0609 64.2068 40.6819 64.2068 36.5124C64.2068 32.3428 60.8302 28.9639 56.669 28.9639Z" fill="#CB2727"/>
<path d="M56.669 28.4575C52.5077 28.4575 49.1312 31.7005 49.1312 35.6972C49.1312 39.6938 52.5077 42.9368 56.669 42.9368C60.8302 42.9368 64.2068 39.6938 64.2068 35.6972C64.2068 31.7005 60.8302 28.4575 56.669 28.4575Z" fill="white"/>
<path d="M62.1362 35.6967C62.1362 38.6 59.6857 40.9535 56.6629 40.9535C53.64 40.9535 51.1896 38.6 51.1896 35.6967C51.1896 32.7934 53.64 30.4399 56.6629 30.4399C59.6922 30.4399 62.1362 32.7934 62.1362 35.6967Z" fill="#FF3F3F"/>
<path d="M60.8176 35.697C60.8176 37.9022 58.9589 39.6874 56.6628 39.6874C54.3668 39.6874 52.5081 37.9022 52.5081 35.697C52.5081 33.4917 54.3668 31.7065 56.6628 31.7065C58.9589 31.7065 60.8176 33.4917 60.8176 35.697Z" fill="white"/>
<path d="M60.7673 13.3926H46.9358C45.8095 13.3926 44.8876 12.4713 44.8876 11.3458V11.0239C44.8876 9.89831 45.8095 8.97705 46.9358 8.97705H60.7673C61.8936 8.97705 62.8155 9.89831 62.8155 11.0239V11.3458C62.8155 12.4713 61.8936 13.3926 60.7673 13.3926Z" fill="#2B478B"/>
<path d="M72.5406 56.789C69.339 57.9099 65.7531 56.4484 64.5277 53.5199C63.3024 50.5969 64.9001 47.3113 68.1017 46.1905L76.4088 43.2785C79.6104 42.1577 83.1963 43.6192 84.4217 46.5476C85.647 49.4706 84.0493 52.7562 80.8537 53.877L72.5406 56.789Z" fill="#FFDAC7"/>
<path d="M78.6856 78.8925C75.4841 80.0134 71.8981 78.5519 70.6728 75.6234C69.4474 72.695 71.0452 69.4149 74.2467 68.294L82.5539 65.382C85.7554 64.2612 89.3414 65.7227 90.5668 68.6512C91.7921 71.5796 90.1943 74.8597 86.9928 75.9806L78.6856 78.8925Z" fill="#FFDAC7"/>
<path d="M77.0155 67.3492C73.8139 68.47 70.2279 67.0086 69.0026 64.0801C67.7772 61.1516 69.375 57.8715 72.5766 56.7507L82.1932 53.3772C85.3947 52.2563 88.9807 53.7178 90.206 56.6463C91.4314 59.5747 89.8336 62.8548 86.6321 63.9757L77.0155 67.3492Z" fill="#FFDAC7"/>
<path d="M75.6592 64.1009C74.7028 64.4683 72.9736 65.1174 72.0679 65.1879C71.7383 65.2143 71.0783 64.813 70.6473 63.5663C70.5896 63.2241 70.5477 62.8806 70.5424 62.5322C70.5363 62.0994 70.5748 61.6691 70.6587 61.2502C70.7339 60.8741 70.9524 60.5457 71.247 60.3948C71.2496 60.3935 71.2505 60.3935 71.2523 60.391C72.2445 59.8865 73.5777 59.2852 74.7299 58.9971C75.3891 58.8298 76.0211 59.1795 76.3245 59.8412L76.7258 61.8679C76.9111 62.8051 76.4408 63.8028 75.6592 64.1009Z" fill="#E8C0AC"/>
<path d="M77.7341 76.5677C76.7777 76.9351 75.0485 77.5842 74.1428 77.6546C73.8133 77.6811 73.1532 77.2798 72.7222 76.033C72.6645 75.6909 72.6226 75.3474 72.6173 74.9989C72.6112 74.5662 72.6497 74.1359 72.7336 73.717C72.8088 73.3409 73.0273 73.0125 73.3219 72.8616C73.3246 72.8603 73.3254 72.8603 73.3272 72.8578C74.3194 72.3533 75.6526 71.752 76.8048 71.4639C77.464 71.2966 78.0961 71.6463 78.3994 72.308L78.8007 74.3347C78.986 75.2719 78.5157 76.2696 77.7341 76.5677Z" fill="#E8C0AC"/>
<path d="M71.5099 53.7118C70.5535 54.0791 68.8243 54.7282 67.9186 54.7987C67.589 54.8251 66.9289 54.4238 66.498 53.1771C66.4403 52.8349 66.3983 52.4915 66.3931 52.143C66.3869 51.7102 66.4254 51.28 66.5093 50.8611C66.5845 50.4849 66.8031 50.1566 67.0977 50.0056C67.1003 50.0043 67.1012 50.0043 67.1029 50.0018C68.0952 49.4974 69.4283 48.896 70.5806 48.6079C71.2397 48.4406 71.8718 48.7903 72.1751 49.4521L72.5764 51.4788C72.7617 52.416 72.2914 53.4136 71.5099 53.7118Z" fill="#E8C0AC"/>
</svg>
