<svg width="222" height="145" viewBox="0 0 222 145" fill="none" xmlns="http://www.w3.org/2000/svg">
<path d="M14.7495 144.953L11.6068 124.51C8.33006 103.194 17.8417 81.9349 35.918 70.1729L94.5623 35.1207C104.488 29.1883 115.834 26.0557 127.397 26.0557H148.603C178.276 26.0557 204.057 46.4518 210.886 75.3283L212.554 82.3863C214.95 92.5182 214.838 103.082 212.228 113.16L203.993 144.953H14.7495Z" fill="#F2F2F2"/>
<g clip-path="url(#clip0)">
<path d="M188.168 134.572C182.18 137.066 174.528 140.703 167.277 139.186C160.026 137.67 153.27 131.014 149.048 126.382C144.841 121.765 144.266 115.349 143.162 109.558C142.268 104.884 138.823 102.099 137.44 97.5429C153.42 92.0614 173.139 91.5518 190.78 97.5338C196.988 110.159 202.967 128.414 188.168 134.572Z" fill="#FFDAC7"/>
<path d="M146.114 121.762C146.114 121.762 132.125 98.5559 132.119 95.9137C132.113 92.9682 132.428 89.8195 133.12 87.3502C134.111 83.8102 137.314 81.7262 139.566 84.6413C139.588 84.6686 139.609 84.699 139.631 84.7263C141.249 86.8982 141.806 89.6496 142.32 92.3039C149.589 96.4173 148.442 94.7276 153.432 101.389C153.515 103.795 160.224 111.011 158.178 113.35C156.498 115.267 148.099 123.37 146.114 121.762Z" fill="#FFDAC7"/>
<path d="M139.514 91.8917L159.114 95.7199C155.338 86.9957 149.534 79.3089 142.871 72.8385C143.024 69.529 143.158 66.092 141.944 63.0737C140.732 60.0585 137.608 57.838 134.524 58.4811C133.986 63.7866 133.619 71.8951 133.147 78.3139C132.93 81.2958 133.793 84.2504 135.555 86.6741C136.88 88.4912 138.199 90.2112 139.514 91.8917Z" fill="#ECC7B4"/>
<path opacity="0.34" d="M153.882 100.819C158.312 103.774 163.654 106 167.423 109.75C171.19 113.499 174.356 118.189 175.406 123.379C175.733 121.532 175.085 120.364 175.415 118.516C176.565 112.028 176.213 105.381 179.264 99.5298L153.882 100.819Z" fill="#FFCCB3"/>
<path d="M164.239 93.9724H164.523C167.632 90.7023 169.623 85.6546 169.608 81.1742C163.728 72.8139 155.666 66.0098 146.894 60.6922C146.365 57.416 145.783 54.0155 143.877 51.2914C141.971 48.5644 138.217 46.987 135.106 48.2094C135.782 54.8345 136.834 62.491 137.51 69.1161L164.239 93.9724Z" fill="#ECC7B4"/>
<path opacity="0.34" d="M139.958 91.4365C138.642 92.4436 137.324 93.4538 136.008 94.4609C139.282 97.1546 142.167 100.312 144.547 103.81C147.212 101.972 150.345 100.804 153.57 100.446C149.871 100.303 145.948 100.127 143.137 97.7401C141.335 96.2082 139.967 93.7935 139.958 91.4365Z" fill="#FFCCB3"/>
<path d="M184.529 99.8151H144.428C141.858 99.8151 139.771 97.7493 139.771 95.1981V6.05053C139.771 3.50242 141.855 1.43359 144.428 1.43359H184.529C187.099 1.43359 189.186 3.49939 189.186 6.05053V95.1981C189.186 97.7493 187.102 99.8151 184.529 99.8151Z" fill="#E9EEF7"/>
<path d="M183.541 17.8809H145.416C143.764 17.8809 142.424 19.2095 142.424 20.8476V58.7053C142.424 60.3434 143.764 61.672 145.416 61.672H183.541C185.193 61.672 186.533 60.3434 186.533 58.7053V20.8446C186.533 19.2065 185.193 17.8809 183.541 17.8809Z" fill="#5887C8"/>
<path d="M176.899 71.9075C176.899 69.6082 175.021 67.7456 172.701 67.7456H156.256C153.937 67.7456 152.059 69.6082 152.059 71.9075C152.059 74.2069 153.937 76.0695 156.256 76.0695H172.701C175.021 76.0695 176.899 74.2069 176.899 71.9075Z" fill="#5887C8"/>
<path d="M184.505 100.731H144.452C141.362 100.731 138.85 98.2407 138.85 95.1769V6.07479C138.847 3.01099 141.362 0.520508 144.452 0.520508H184.508C187.598 0.520508 190.11 3.01099 190.11 6.07479V95.1739C190.11 98.2377 187.595 100.731 184.505 100.731ZM144.452 2.34969C142.381 2.34969 140.695 4.02113 140.695 6.07479V95.1739C140.695 97.2275 142.381 98.8989 144.452 98.8989H184.508C186.579 98.8989 188.265 97.2275 188.265 95.1739V6.07479C188.265 4.02113 186.579 2.34969 184.508 2.34969H144.452Z" fill="#2B478B"/>
<path d="M168.666 4.16367H160.292C159.285 4.16367 158.471 3.35677 158.471 2.35876V2.34056C158.471 1.34255 159.285 0.535645 160.292 0.535645H168.666C169.672 0.535645 170.486 1.34255 170.486 2.34056V2.35876C170.486 3.35677 169.669 4.16367 168.666 4.16367Z" fill="#2B478B"/>
<path d="M151.426 20.2261V21.1513H145.772V26.7571H144.839V20.2261H151.426Z" fill="#F9F9F9"/>
<path d="M177.532 59.2062V58.281H183.186V52.6782H184.119V59.2062H177.532Z" fill="#F9F9F9"/>
<path d="M184.134 26.7753H183.201V21.1664H177.55V20.2412H184.134V26.7753Z" fill="#F9F9F9"/>
<path d="M144.822 52.6602H145.755V58.266H151.406V59.1912H144.822V52.6602Z" fill="#F9F9F9"/>
<path d="M180.975 26.6172H150.78V56.5545H180.975V26.6172Z" fill="white"/>
<path d="M162.379 28.3916H160.981V29.7809H162.379H163.78V28.3916H162.379Z" fill="#2B478B"/>
<path d="M170.78 28.3916H169.379V29.7809H170.78V28.3916Z" fill="#2B478B"/>
<path d="M167.978 29.7809H166.58V28.3916H165.178V29.7809H163.78V31.1672V32.5566H162.379V33.9429H163.78V35.3322H165.178H166.58V33.9429H165.178V32.5566V31.1672H166.58H167.978H169.379V29.7809H167.978Z" fill="#2B478B"/>
<path d="M170.78 32.5563V31.167H169.379V32.5563V33.9426H170.78V32.5563Z" fill="#2B478B"/>
<path d="M160.981 35.3322V36.7185H162.379V35.3322V33.9429H160.981V35.3322Z" fill="#2B478B"/>
<path d="M169.379 33.9429H167.977V35.3322H169.379V33.9429Z" fill="#2B478B"/>
<path d="M163.78 43.6592H162.379V45.0485H163.78V43.6592Z" fill="#2B478B"/>
<path d="M153.98 36.7188H152.579V38.1081H153.98V36.7188Z" fill="#2B478B"/>
<path d="M167.978 38.1081H169.379V39.4975H170.78V38.1081H172.179V36.7188H170.78V35.3325H169.379V36.7188H167.978H166.58H165.178H163.78V38.1081H165.178H166.58V39.4975H167.978V38.1081Z" fill="#2B478B"/>
<path d="M177.778 38.1081V36.7188H176.379V38.1081V39.4974H177.778V38.1081Z" fill="#2B478B"/>
<path d="M153.98 39.4971H152.579V40.8864H153.98V39.4971Z" fill="#2B478B"/>
<path d="M159.579 40.8837H160.98V39.4974H162.379V38.1081H160.98H159.579V36.7188H158.178V38.1081V39.4974H159.579V40.8837Z" fill="#2B478B"/>
<path d="M166.58 39.4971H165.178V40.8864H166.58V39.4971Z" fill="#2B478B"/>
<path d="M174.978 39.4974V38.1081V36.7188H173.579V38.1081V39.4974H172.178H170.78V40.8837H172.178H173.579V42.273H174.978V40.8837H176.379V39.4974H174.978Z" fill="#2B478B"/>
<path d="M159.579 40.8837H158.178V39.4974H156.78V38.1081V36.7188H155.378V38.1081H153.98V39.4974H155.378V40.8837H156.78V42.273H158.178V43.6593H159.579V42.273V40.8837Z" fill="#2B478B"/>
<path d="M162.379 42.2727H163.78V43.659H165.178V42.2727V40.8834H163.78V39.4971H162.379V40.8834V42.2727Z" fill="#2B478B"/>
<path d="M177.778 40.8833H176.379V42.2726V43.6589H174.978V45.0482H176.379V46.4345H177.778V47.8239V49.2132H179.179V47.8239V46.4345V45.0482H177.778V43.6589H179.179V42.2726H177.778V40.8833Z" fill="#2B478B"/>
<path d="M153.98 42.2729H152.579V43.6592V45.0486H153.98V46.4349H155.378V45.0486V43.6592H153.98V42.2729Z" fill="#2B478B"/>
<path d="M156.78 42.2729H155.378V43.6623H156.78V42.2729Z" fill="#2B478B"/>
<path d="M170.78 42.2726V40.8833H169.379H167.977H166.579V42.2726V43.6589H167.977V42.2726H169.379V43.6589H170.78V45.0482H172.178V43.6589H173.579V42.2726H172.178H170.78Z" fill="#2B478B"/>
<path d="M158.181 43.6592H156.779V45.0485H158.181V43.6592Z" fill="#2B478B"/>
<path d="M160.981 43.6592H159.579V45.0485V46.4348H160.981V47.8241V49.2135H162.379V47.8241V46.4348V45.0485H160.981V43.6592Z" fill="#2B478B"/>
<path d="M166.58 43.6592H165.178V45.0485H166.58V43.6592Z" fill="#2B478B"/>
<path d="M165.181 45.0483H163.78V46.4377H165.181V45.0483Z" fill="#2B478B"/>
<path d="M169.379 47.824V46.4346V45.0483H167.977V46.4346H166.579V47.824H167.977H169.379Z" fill="#2B478B"/>
<path d="M165.181 47.8242H163.78V49.2135H165.181V47.8242Z" fill="#2B478B"/>
<path d="M167.98 49.2134H166.579V50.6027H167.98V49.2134Z" fill="#2B478B"/>
<path d="M175.005 49.2133V45.0483H169.379V50.6269H170.78V51.9889H172.181V50.6269H173.582V51.9889H174.984V50.6269H175.011V50.5996H176.379V51.9889H177.78H179.181V50.5996H177.78V49.2103H176.379H175.005V49.2133ZM170.456 46.1161H173.956V49.5864H170.456V46.1161Z" fill="#2B478B"/>
<path d="M162.379 51.989V53.3753H163.78V51.989V50.5997V49.2134H162.379V50.5997V51.989Z" fill="#2B478B"/>
<path d="M167.977 51.9893V53.3755H169.379H170.78V51.9893H169.379H167.977Z" fill="#2B478B"/>
<path d="M162.382 53.3755H160.981V54.7648H162.382V53.3755Z" fill="#2B478B"/>
<path d="M165.178 54.7648H166.58V53.3755H165.178H163.78V54.7648H165.178Z" fill="#2B478B"/>
<path d="M176.379 53.3755V54.7648H177.778H179.179V53.3755H177.778H176.379Z" fill="#2B478B"/>
<path d="M172.907 47.1567H171.505V48.5461H172.907V47.1567Z" fill="#2B478B"/>
<path d="M159.579 28.3916H152.579V35.3322H159.579V28.3916ZM158.53 34.2917H153.628V29.4321H158.53V34.2917Z" fill="#2B478B"/>
<path d="M157.477 30.4727H154.678V33.2483H157.477V30.4727Z" fill="#2B478B"/>
<path d="M172.178 28.3916V35.3322H179.178V28.3916H172.178ZM178.129 34.2917H173.228V29.4321H178.129V34.2917Z" fill="#2B478B"/>
<path d="M177.08 30.4727H174.28V33.2483H177.08V30.4727Z" fill="#2B478B"/>
<path d="M152.579 54.7829H159.579V47.8423H152.579V54.7829ZM153.628 48.8828H158.53V53.7424H153.628V48.8828Z" fill="#2B478B"/>
<path d="M157.477 49.9233H154.678V52.699H157.477V49.9233Z" fill="#2B478B"/>
<path d="M142.479 31.3525H186.478" stroke="#BF360C" stroke-miterlimit="10"/>
<path d="M133.744 85.7976C136.455 82.0573 139.163 78.314 141.873 74.5737C143.783 77.2796 144.587 80.3404 144.211 83.6226C143.835 86.9048 141.301 91.3549 138.826 93.5663C136.391 92.1133 134.95 88.3487 133.744 85.7976Z" fill="#FFDAC7"/>
<path d="M180.105 131.36C175.005 127.095 170.844 117.109 172.78 111.099C174.469 105.864 176.397 102.609 184.199 95.2495C183.92 89.6558 184.826 88.0117 183.801 82.1632C178.422 77.3945 174.185 71.1486 176.385 64.3354C182.54 68.7279 189.054 72.8049 195.21 77.1974C196.74 86.1673 198.355 95.0433 199.885 104.013C200.742 109.04 201.601 114.154 200.971 119.214C199.922 127.617 192.279 137.494 182.755 133.053C181.803 132.613 180.919 132.036 180.105 131.36Z" fill="#FFDAC7"/>
<path d="M177.303 125.578C175.195 115.698 168.244 107.132 158.933 103.019C157.866 102.545 156.911 104.105 157.988 104.581C166.906 108.521 173.503 116.566 175.525 126.043C175.773 127.186 177.548 126.722 177.303 125.578Z" fill="#FFCCB3"/>
<path d="M188.495 82.4879C181.017 80.1005 176.464 72.9021 177.358 65.194C177.492 64.0322 175.657 64.0201 175.522 65.1728C174.537 73.6908 179.79 81.6203 187.987 84.2382C189.116 84.5992 189.617 82.8458 188.495 82.4879Z" fill="#FFCCB3"/>
<path d="M143.25 74.8192C142.687 73.7909 141.09 74.6888 141.653 75.7201C144.544 80.9984 142.035 89.4526 137.562 93.4841C136.687 94.2728 137.972 95.5742 138.844 94.7855C143.929 90.205 146.521 80.7891 143.25 74.8192Z" fill="#FFCCB3"/>
<path d="M185.288 81.49C185.254 80.3221 183.419 80.2948 183.452 81.4687C183.575 85.8066 183.7 90.1444 183.823 94.4823C183.856 95.6502 185.692 95.6775 185.658 94.5035C185.536 90.1626 185.414 85.8248 185.288 81.49Z" fill="#FFCCB3"/>
<path d="M184.447 94.288C177.798 98.8231 173.148 105.736 171.407 113.457C171.967 114.066 172.444 114.731 172.882 115.419C174.191 107.581 178.713 100.4 185.356 95.8685C186.322 95.2132 185.423 93.6237 184.447 94.288Z" fill="#FFCCB3"/>
<path opacity="0.34" d="M190.386 84.3596C189.523 84.7509 189.076 85.6883 188.697 86.5498C187.5 89.2799 186.307 92.01 185.111 94.7371C185.111 91.4063 184.722 88.0271 184.523 84.6993C184.45 83.4435 184.214 82.2968 185.827 82.5001C187.317 82.6912 189.012 83.7832 190.386 84.3596Z" fill="#FFCCB3"/>
<path d="M158.539 133.195L159.114 144.953H199.8L197.401 128.257L158.539 133.195Z" fill="#FFDAC7"/>
<path opacity="0.34" d="M190.459 132.886C182.938 132.219 175.381 132.725 168.014 134.363C166.86 134.618 167.329 136.381 168.482 136.123C175.696 134.518 183.073 134.051 190.437 134.703C191.615 134.809 191.631 132.989 190.459 132.886Z" fill="#FFCCB3"/>
</g>
<g clip-path="url(#clip1)">
<path d="M80.3229 141.961H98.6581C100.891 141.961 102.701 140.158 102.701 137.933V75.6138C102.701 73.3897 100.891 71.5864 98.6581 71.5864H80.3229V141.961Z" fill="#C2C2C2"/>
<path d="M61.9876 71.5864C59.7551 71.5864 57.9451 73.3897 57.9451 75.6138V137.933C57.9451 140.158 59.7551 141.961 61.9876 141.961H80.3228V71.5864H61.9876Z" fill="#CDCDCD"/>
<path d="M78.3833 130.978C78.3833 133.011 76.7269 134.661 74.6865 134.661H64.6283C62.5878 134.661 60.9315 133.011 60.9315 130.978C60.9315 128.946 62.5878 127.295 64.6283 127.295H74.6865C76.7221 127.295 78.3833 128.95 78.3833 130.978Z" fill="#E2E2E2"/>
<path d="M78.3833 118.877C78.3833 120.91 76.7269 122.56 74.6865 122.56H64.6283C62.5878 122.56 60.9315 120.91 60.9315 118.877C60.9315 116.844 62.5878 115.194 64.6283 115.194H74.6865C76.7221 115.194 78.3833 116.844 78.3833 118.877Z" fill="#E2E2E2"/>
<path d="M78.3833 106.776C78.3833 108.809 76.7269 110.459 74.6865 110.459H64.6283C62.5878 110.459 60.9315 108.809 60.9315 106.776C60.9315 104.743 62.5878 103.093 64.6283 103.093H74.6865C76.7221 103.093 78.3833 104.743 78.3833 106.776Z" fill="#E2E2E2"/>
<path d="M78.3833 94.6698C78.3833 96.7027 76.7269 98.3529 74.6865 98.3529H64.6283C62.5878 98.3529 60.9315 96.7027 60.9315 94.6698C60.9315 92.637 62.5878 90.9868 64.6283 90.9868H74.6865C76.7221 90.9868 78.3833 92.6418 78.3833 94.6698Z" fill="#E2E2E2"/>
<path d="M78.3833 82.5683C78.3833 84.6011 76.7269 86.2513 74.6865 86.2513H64.6283C62.5878 86.2513 60.9315 84.6011 60.9315 82.5683C60.9315 80.5354 62.5878 78.8853 64.6283 78.8853H74.6865C76.7221 78.8853 78.3833 80.5402 78.3833 82.5683Z" fill="#E2E2E2"/>
<path d="M99.8297 130.978C99.8297 133.011 98.1734 134.661 96.1329 134.661H86.0747C84.0343 134.661 82.3779 133.011 82.3779 130.978C82.3779 128.946 84.0343 127.295 86.0747 127.295H96.1329C98.1734 127.295 99.8297 128.95 99.8297 130.978Z" fill="#E2E2E2"/>
<path d="M99.8297 118.877C99.8297 120.91 98.1734 122.56 96.1329 122.56H86.0747C84.0343 122.56 82.3779 120.91 82.3779 118.877C82.3779 116.844 84.0343 115.194 86.0747 115.194H96.1329C98.1734 115.194 99.8297 116.844 99.8297 118.877Z" fill="#E2E2E2"/>
<path d="M99.8297 106.776C99.8297 108.809 98.1734 110.459 96.1329 110.459H86.0747C84.0343 110.459 82.3779 108.809 82.3779 106.776C82.3779 104.743 84.0343 103.093 86.0747 103.093H96.1329C98.1734 103.093 99.8297 104.743 99.8297 106.776Z" fill="#E2E2E2"/>
<path d="M99.8297 94.6698C99.8297 96.7027 98.1734 98.3529 96.1329 98.3529H86.0747C84.0343 98.3529 82.3779 96.7027 82.3779 94.6698C82.3779 92.637 84.0343 90.9868 86.0747 90.9868H96.1329C98.1734 90.9868 99.8297 92.6418 99.8297 94.6698Z" fill="#E2E2E2"/>
<path d="M99.8297 82.5683C99.8297 84.6011 98.1734 86.2513 96.1329 86.2513H86.0747C84.0343 86.2513 82.3779 84.6011 82.3779 82.5683C82.3779 80.5354 84.0343 78.8853 86.0747 78.8853H96.1329C98.1734 78.8853 99.8297 80.5402 99.8297 82.5683Z" fill="#E2E2E2"/>
<path d="M64.628 128.348C63.1733 128.348 61.9874 129.534 61.9874 130.978C61.9874 132.428 63.1733 133.609 64.628 133.609H69.6595V128.348H64.628Z" fill="#FFC9C9"/>
<path d="M77.3267 130.978C77.3267 129.534 76.136 128.348 74.6861 128.348H69.6546V133.609H74.6861C76.136 133.609 77.3267 132.428 77.3267 130.978Z" fill="#DE4967"/>
<path d="M77.3267 118.877C77.3267 117.432 76.136 116.246 74.6861 116.246H69.6546V121.508H74.6861C76.136 121.508 77.3267 120.321 77.3267 118.877Z" fill="#DE4967"/>
<path d="M64.628 116.246C63.1733 116.246 61.9874 117.432 61.9874 118.877C61.9874 120.326 63.1733 121.508 64.628 121.508H69.6595V116.246H64.628Z" fill="#FFC9C9"/>
<path d="M77.3267 106.776C77.3267 105.326 76.136 104.145 74.6861 104.145H69.6546V109.406H74.6861C76.136 109.406 77.3267 108.22 77.3267 106.776Z" fill="#DE4967"/>
<path d="M64.628 104.145C63.1733 104.145 61.9874 105.326 61.9874 106.776C61.9874 108.22 63.1733 109.406 64.628 109.406H69.6595V104.145H64.628Z" fill="#FFC9C9"/>
<path d="M64.628 92.0391C63.1733 92.0391 61.9874 93.2205 61.9874 94.6698C61.9874 96.1191 63.1733 97.3005 64.628 97.3005H69.6595V92.0391H64.628Z" fill="#FFC9C9"/>
<path d="M77.3267 94.6698C77.3267 93.2205 76.136 92.0391 74.6861 92.0391H69.6546V97.3005H74.6861C76.136 97.3005 77.3267 96.1191 77.3267 94.6698Z" fill="#DE4967"/>
<path d="M77.3267 82.5682C77.3267 81.1189 76.136 79.9375 74.6861 79.9375H69.6546V85.199H74.6861C76.136 85.199 77.3267 84.0175 77.3267 82.5682Z" fill="#DE4967"/>
<path d="M64.628 79.9375C63.1733 79.9375 61.9874 81.1189 61.9874 82.5682C61.9874 84.0127 63.1733 85.199 64.628 85.199H69.6595V79.9375H64.628Z" fill="#FFC9C9"/>
<path d="M83.4339 130.978C83.4339 132.428 84.6245 133.609 86.0745 133.609H91.106V128.348H86.0745C84.6245 128.348 83.4339 129.534 83.4339 130.978Z" fill="#FFC9C9"/>
<path d="M96.1327 133.609C97.5874 133.609 98.7733 132.428 98.7733 130.978C98.7733 129.534 97.5874 128.348 96.1327 128.348H91.1012V133.609H96.1327Z" fill="#DE4967"/>
<path d="M83.4339 118.877C83.4339 120.326 84.6245 121.508 86.0745 121.508H91.106V116.246H86.0745C84.6245 116.246 83.4339 117.428 83.4339 118.877Z" fill="#FFC9C9"/>
<path d="M96.1327 121.508C97.5874 121.508 98.7733 120.326 98.7733 118.877C98.7733 117.432 97.5874 116.246 96.1327 116.246H91.1012V121.508H96.1327Z" fill="#DE4967"/>
<path d="M83.4339 106.776C83.4339 108.22 84.6245 109.406 86.0745 109.406H91.106V104.145H86.0745C84.6245 104.145 83.4339 105.326 83.4339 106.776Z" fill="#FFC9C9"/>
<path d="M96.1327 109.406C97.5874 109.406 98.7733 108.22 98.7733 106.776C98.7733 105.326 97.5874 104.145 96.1327 104.145H91.1012V109.406H96.1327Z" fill="#DE4967"/>
<path d="M96.1327 97.3005C97.5874 97.3005 98.7733 96.1191 98.7733 94.6698C98.7733 93.2205 97.5874 92.0391 96.1327 92.0391H91.1012V97.3005H96.1327Z" fill="#DE4967"/>
<path d="M83.4339 94.6698C83.4339 96.1191 84.6245 97.3005 86.0745 97.3005H91.106V92.0391H86.0745C84.6245 92.0391 83.4339 93.2253 83.4339 94.6698Z" fill="#FFC9C9"/>
<path d="M83.4339 82.5682C83.4339 84.0127 84.6245 85.199 86.0745 85.199H91.106V79.9375H86.0745C84.6245 79.9375 83.4339 81.1237 83.4339 82.5682Z" fill="#FFC9C9"/>
<path d="M96.1326 85.199C97.5873 85.199 98.7732 84.0127 98.7732 82.5682C98.7732 81.1189 97.5873 79.9375 96.1326 79.9375H91.1011V85.199H96.1326Z" fill="#DE4967"/>
<path d="M64.59 92.9863H74.6098" stroke="#FB625D" stroke-miterlimit="10" stroke-linecap="round" stroke-linejoin="round"/>
<path d="M86.0411 92.9863H96.0561" stroke="#FB625D" stroke-miterlimit="10" stroke-linecap="round" stroke-linejoin="round"/>
<path d="M64.59 105.078H74.6098" stroke="#FB625D" stroke-miterlimit="10" stroke-linecap="round" stroke-linejoin="round"/>
<path d="M86.0411 105.078H96.0561" stroke="#FB625D" stroke-miterlimit="10" stroke-linecap="round" stroke-linejoin="round"/>
<path d="M64.59 117.175H74.6098" stroke="#FB625D" stroke-miterlimit="10" stroke-linecap="round" stroke-linejoin="round"/>
<path d="M86.0411 117.175H96.0561" stroke="#FB625D" stroke-miterlimit="10" stroke-linecap="round" stroke-linejoin="round"/>
<path d="M64.59 129.271H74.6098" stroke="#FB625D" stroke-miterlimit="10" stroke-linecap="round" stroke-linejoin="round"/>
<path d="M86.0411 129.271H96.0561" stroke="#FB625D" stroke-miterlimit="10" stroke-linecap="round" stroke-linejoin="round"/>
<path d="M64.59 80.8896H74.6098" stroke="#FB625D" stroke-miterlimit="10" stroke-linecap="round" stroke-linejoin="round"/>
<path d="M86.0411 80.8896H96.0561" stroke="#FB625D" stroke-miterlimit="10" stroke-linecap="round" stroke-linejoin="round"/>
<path d="M31.7077 126.057H50.0429C52.2754 126.057 54.0854 124.254 54.0854 122.03V59.7149C54.0854 57.4907 52.2754 55.6875 50.0429 55.6875H31.7077V126.057Z" fill="#CDCDCD"/>
<path d="M13.3676 55.6875C11.1351 55.6875 9.32507 57.4907 9.32507 59.7149V122.035C9.32507 124.259 11.1351 126.062 13.3676 126.062H31.7028V55.6875H13.3676Z" fill="#C2C2C2"/>
<path d="M47.8576 66.7894C48.5082 64.0572 46.8123 61.3168 44.0698 60.6687C41.3273 60.0206 38.5767 61.7102 37.9262 64.4424C37.2757 67.1747 38.9715 69.915 41.714 70.5631C44.4565 71.2113 47.2071 69.5217 47.8576 66.7894Z" fill="#E2E2E2"/>
<path d="M44.8344 82.9492C47.4413 81.8816 48.6859 78.9106 47.6143 76.3134C46.5426 73.7163 43.5606 72.4763 40.9537 73.5439C38.3468 74.6116 37.1022 77.5825 38.1738 80.1797C39.2454 82.7769 42.2275 84.0168 44.8344 82.9492Z" fill="#E2E2E2"/>
<path d="M42.8942 95.9571C40.0808 95.9571 37.7907 93.6755 37.7907 90.8726C37.7907 88.0697 40.0808 85.7881 42.8942 85.7881C45.7076 85.7881 47.9977 88.0697 47.9977 90.8726C47.9977 93.6755 45.7076 95.9571 42.8942 95.9571Z" fill="#E2E2E2"/>
<path d="M42.8942 108.585C40.0808 108.585 37.7907 106.303 37.7907 103.5C37.7907 100.697 40.0808 98.4155 42.8942 98.4155C45.7076 98.4155 47.9977 100.697 47.9977 103.5C47.9977 106.303 45.7076 108.585 42.8942 108.585Z" fill="#E2E2E2"/>
<path d="M42.8942 121.212C40.0808 121.212 37.7907 118.931 37.7907 116.128C37.7907 113.325 40.0808 111.043 42.8942 111.043C45.7076 111.043 47.9977 113.325 47.9977 116.128C47.9977 118.931 45.7076 121.212 42.8942 121.212Z" fill="#E2E2E2"/>
<path d="M26.5935 66.788C27.244 64.0557 25.5482 61.3154 22.8057 60.6673C20.0632 60.0192 17.3126 61.7087 16.6621 64.441C16.0115 67.1732 17.7074 69.9136 20.4499 70.5617C23.1924 71.2098 25.943 69.5202 26.5935 66.788Z" fill="#E2E2E2"/>
<path d="M23.5704 82.9482C26.1773 81.8806 27.4219 78.9097 26.3503 76.3125C25.2787 73.7153 22.2966 72.4753 19.6897 73.543C17.0828 74.6106 15.8382 77.5815 16.9098 80.1787C17.9814 82.7759 20.9635 84.0159 23.5704 82.9482Z" fill="#E2E2E2"/>
<path d="M21.6303 95.9571C18.8169 95.9571 16.5268 93.6755 16.5268 90.8726C16.5268 88.0697 18.8169 85.7881 21.6303 85.7881C24.4437 85.7881 26.7338 88.0697 26.7338 90.8726C26.7338 93.6755 24.4437 95.9571 21.6303 95.9571Z" fill="#E2E2E2"/>
<path d="M21.6303 108.585C18.8169 108.585 16.5268 106.303 16.5268 103.5C16.5268 100.697 18.8169 98.4155 21.6303 98.4155C24.4437 98.4155 26.7338 100.697 26.7338 103.5C26.7338 106.303 24.4437 108.585 21.6303 108.585Z" fill="#E2E2E2"/>
<path d="M21.6303 121.212C18.8169 121.212 16.5268 118.93 16.5268 116.127C16.5268 113.325 18.8169 111.043 21.6303 111.043C24.4437 111.043 26.7338 113.325 26.7338 116.127C26.7338 118.93 24.4437 121.212 21.6303 121.212Z" fill="#E2E2E2"/>
<path d="M24.4913 62.7666L18.7685 68.4633C19.4983 69.1904 20.5113 69.6448 21.6299 69.6448C23.8624 69.6448 25.6772 67.8415 25.6772 65.6126C25.6772 64.5029 25.2211 63.4936 24.4913 62.7666Z" fill="#329BC9"/>
<path d="M21.6301 61.5854C19.3976 61.5854 17.5828 63.3887 17.5828 65.6176C17.5828 66.7321 18.0341 67.7366 18.7686 68.4684L24.4915 62.7669C23.7569 62.0351 22.7487 61.5854 21.6301 61.5854Z" fill="#4AB4D3"/>
<path d="M24.4913 75.394L18.7685 81.0955C19.4983 81.8226 20.5113 82.277 21.6299 82.277C23.8624 82.277 25.6772 80.4737 25.6772 78.2448C25.6772 77.1303 25.2211 76.1211 24.4913 75.394Z" fill="#329BC9"/>
<path d="M21.6301 74.2129C19.3976 74.2129 17.5828 76.0161 17.5828 78.2451C17.5828 79.3596 18.0341 80.364 18.7686 81.0958L24.4915 75.3943C23.7569 74.6625 22.7487 74.2129 21.6301 74.2129Z" fill="#4AB4D3"/>
<path d="M24.4913 88.0215L18.7685 93.723C19.4983 94.45 20.5113 94.9044 21.6299 94.9044C23.8624 94.9044 25.6772 93.1012 25.6772 90.8722C25.6772 89.7578 25.2211 88.7533 24.4913 88.0215Z" fill="#329BC9"/>
<path d="M21.6301 86.8403C19.3976 86.8403 17.5828 88.6436 17.5828 90.8725C17.5828 91.987 18.0341 92.9915 18.7686 93.7233L24.4915 88.0218C23.7569 87.2947 22.7487 86.8403 21.6301 86.8403Z" fill="#4AB4D3"/>
<path d="M24.4913 100.649L18.7685 106.351C19.4983 107.078 20.5113 107.532 21.6299 107.532C23.8624 107.532 25.6772 105.729 25.6772 103.5C25.6772 102.39 25.2211 101.381 24.4913 100.649Z" fill="#329BC9"/>
<path d="M21.6301 99.4727C19.3976 99.4727 17.5828 101.276 17.5828 103.505C17.5828 104.619 18.0341 105.624 18.7686 106.356L24.4915 100.654C23.7569 99.9223 22.7487 99.4727 21.6301 99.4727Z" fill="#4AB4D3"/>
<path d="M24.4913 113.281L18.7685 118.978C19.4983 119.705 20.5113 120.159 21.6299 120.159C23.8624 120.159 25.6772 118.356 25.6772 116.127C25.6772 115.018 25.2211 114.008 24.4913 113.281Z" fill="#329BC9"/>
<path d="M21.6301 112.1C19.3976 112.1 17.5828 113.903 17.5828 116.132C17.5828 117.247 18.0341 118.251 18.7686 118.983L24.4915 113.282C23.7569 112.55 22.7487 112.1 21.6301 112.1Z" fill="#4AB4D3"/>
<path d="M45.7553 62.7666L40.0324 68.4681C40.7622 69.1952 41.7752 69.6496 42.8938 69.6496C45.1263 69.6496 46.9411 67.8463 46.9411 65.6174C46.9411 64.5029 46.485 63.4936 45.7553 62.7666Z" fill="#329BC9"/>
<path d="M42.894 61.5854C40.6615 61.5854 38.8467 63.3887 38.8467 65.6176C38.8467 66.7321 39.298 67.7366 40.0325 68.4684L45.7554 62.7669C45.0256 62.0351 44.0126 61.5854 42.894 61.5854Z" fill="#4AB4D3"/>
<path d="M45.7553 75.394L40.0324 81.0955C40.7622 81.8226 41.7752 82.277 42.8938 82.277C45.1263 82.277 46.9411 80.4737 46.9411 78.2448C46.9411 77.1303 46.485 76.1211 45.7553 75.394Z" fill="#329BC9"/>
<path d="M42.894 74.2129C40.6615 74.2129 38.8467 76.0161 38.8467 78.2451C38.8467 79.3596 39.298 80.364 40.0325 81.0958L45.7554 75.3943C45.0256 74.6625 44.0126 74.2129 42.894 74.2129Z" fill="#4AB4D3"/>
<path d="M45.7553 88.0215L40.0324 93.723C40.7622 94.45 41.7752 94.9044 42.8938 94.9044C45.1263 94.9044 46.9411 93.1012 46.9411 90.8722C46.9411 89.7578 46.485 88.7533 45.7553 88.0215Z" fill="#329BC9"/>
<path d="M42.894 86.8403C40.6615 86.8403 38.8467 88.6436 38.8467 90.8725C38.8467 91.987 39.298 92.9915 40.0325 93.7233L45.7554 88.0218C45.0256 87.2947 44.0126 86.8403 42.894 86.8403Z" fill="#4AB4D3"/>
<path d="M45.7553 100.649L40.0324 106.351C40.7622 107.078 41.7752 107.532 42.8938 107.532C45.1263 107.532 46.9411 105.729 46.9411 103.5C46.9411 102.39 46.485 101.381 45.7553 100.649Z" fill="#329BC9"/>
<path d="M42.894 99.4727C40.6615 99.4727 38.8467 101.276 38.8467 103.505C38.8467 104.619 39.298 105.624 40.0325 106.356L45.7554 100.654C45.0256 99.9223 44.0126 99.4727 42.894 99.4727Z" fill="#4AB4D3"/>
<path d="M45.7553 113.281L40.0324 118.983C40.7622 119.71 41.7752 120.164 42.8938 120.164C45.1263 120.164 46.9411 118.361 46.9411 116.132C46.9411 115.018 46.485 114.008 45.7553 113.281Z" fill="#329BC9"/>
<path d="M42.894 112.1C40.6615 112.1 38.8467 113.903 38.8467 116.132C38.8467 117.247 39.298 118.251 40.0325 118.983L45.7554 113.282C45.0256 112.55 44.0126 112.1 42.894 112.1Z" fill="#4AB4D3"/>
<path opacity="0.75" d="M21.6299 62.7666C20.0504 62.7666 18.7685 64.0437 18.7685 65.6174C18.7685 66.0096 18.8501 66.3874 18.9941 66.727" stroke="#4AB4D3" stroke-miterlimit="10" stroke-linecap="round" stroke-linejoin="round"/>
<path opacity="0.75" d="M42.8938 62.7666C41.3143 62.7666 40.0324 64.0437 40.0324 65.6174C40.0324 66.0096 40.114 66.3874 40.258 66.727" stroke="#4AB4D3" stroke-miterlimit="10" stroke-linecap="round" stroke-linejoin="round"/>
<path opacity="0.75" d="M21.6299 75.394C20.0504 75.394 18.7685 76.6711 18.7685 78.2448C18.7685 78.637 18.8501 79.0149 18.9941 79.3545" stroke="#4AB4D3" stroke-miterlimit="10" stroke-linecap="round" stroke-linejoin="round"/>
<path opacity="0.75" d="M42.8938 75.394C41.3143 75.394 40.0324 76.6711 40.0324 78.2448C40.0324 78.637 40.114 79.0149 40.258 79.3545" stroke="#4AB4D3" stroke-miterlimit="10" stroke-linecap="round" stroke-linejoin="round"/>
<path opacity="0.75" d="M21.6299 87.873C20.0504 87.873 18.7685 89.1501 18.7685 90.7238C18.7685 91.116 18.8501 91.4939 18.9941 91.8335" stroke="#4AB4D3" stroke-miterlimit="10" stroke-linecap="round" stroke-linejoin="round"/>
<path opacity="0.75" d="M42.8938 87.873C41.3143 87.873 40.0324 89.1501 40.0324 90.7238C40.0324 91.116 40.114 91.4939 40.258 91.8335" stroke="#4AB4D3" stroke-miterlimit="10" stroke-linecap="round" stroke-linejoin="round"/>
<path opacity="0.75" d="M21.6299 100.5C20.0504 100.5 18.7685 101.778 18.7685 103.351C18.7685 103.743 18.8501 104.121 18.9941 104.461" stroke="#4AB4D3" stroke-miterlimit="10" stroke-linecap="round" stroke-linejoin="round"/>
<path opacity="0.75" d="M42.8938 100.5C41.3143 100.5 40.0324 101.778 40.0324 103.351C40.0324 103.743 40.114 104.121 40.258 104.461" stroke="#4AB4D3" stroke-miterlimit="10" stroke-linecap="round" stroke-linejoin="round"/>
<path opacity="0.75" d="M21.6299 113.128C20.0504 113.128 18.7685 114.406 18.7685 115.979C18.7685 116.371 18.8501 116.749 18.9941 117.089" stroke="#4AB4D3" stroke-miterlimit="10" stroke-linecap="round" stroke-linejoin="round"/>
<path opacity="0.75" d="M42.8938 113.128C41.3143 113.128 40.0324 114.406 40.0324 115.979C40.0324 116.371 40.114 116.749 40.258 117.089" stroke="#4AB4D3" stroke-miterlimit="10" stroke-linecap="round" stroke-linejoin="round"/>
<path d="M60.1203 144.984H28.0877C26.3066 144.984 24.8662 143.549 24.8662 141.774V94.3208H63.337V141.774C63.3418 143.544 61.8967 144.984 60.1203 144.984Z" fill="#2B1B63"/>
<path d="M64.5856 90.6807H23.623V93.034C23.623 93.7371 24.2039 94.3159 24.9097 94.3159H63.2941C63.9998 94.3159 64.5808 93.7371 64.5808 93.034V90.6807H64.5856Z" fill="#F8F8F8"/>
<path d="M64.8591 85.7256H23.3492C22.9027 85.7256 22.5331 86.0891 22.5331 86.5387V89.8726C22.5331 90.3174 22.8979 90.6857 23.3492 90.6857H64.8639C65.3104 90.6857 65.6801 90.3222 65.6801 89.8726V86.5387C65.6753 86.0939 65.3104 85.7256 64.8591 85.7256Z" fill="#F8F8F8"/>
<path d="M63.337 104.011H24.8662V129.123H63.337V104.011Z" fill="#F3F3F3"/>
<path opacity="0.62" d="M64.5808 90.6807H23.623V92.1108H64.5808V90.6807Z" fill="#E2E2E2"/>
<path d="M46.7541 107.757H41.4489V125.378H46.7541V107.757Z" fill="#DE4967"/>
<path d="M35.2624 113.926V119.211H52.9495V113.926H35.2624Z" fill="#DE4967"/>
<path opacity="0.24" d="M60.1205 144.984C61.9017 144.984 63.342 143.549 63.342 141.774V94.3208H49.5246V144.984H60.1205Z" fill="#2B1B63"/>
</g>
<defs>
<clipPath id="clip0">
<rect width="77.7401" height="144.433" fill="white" transform="translate(123.448 0.520508)"/>
</clipPath>
<clipPath id="clip1">
<rect width="93.3645" height="90.0492" fill="white" transform="translate(9.33664 54.9038)"/>
</clipPath>
</defs>
</svg>
