<svg width="222" height="145" viewBox="0 0 222 145" fill="none" xmlns="http://www.w3.org/2000/svg">
<path d="M14.7497 144.958L12.9729 120.174C12.282 110.535 13.1265 100.848 15.4751 91.474C20.2458 72.4329 31.0299 55.438 46.2264 43.0125L50.2479 39.7243C56.7691 34.3922 64.4579 30.6766 72.6878 28.8802L88.0384 25.5296C102.231 22.4317 117.055 24.2544 130.075 30.698L157.683 44.3616C168.85 49.8887 178.162 58.5555 184.474 69.2987L195.173 87.5071C200.948 97.3361 203.993 108.529 203.993 119.93V144.958H14.7497Z" fill="#F2F2F2"/>
<g clip-path="url(#clip0)">
<path d="M61.4284 83.6524H40.8992C39.7421 83.6524 38.8036 82.7115 38.8036 81.5516V63.5212C38.8036 62.3613 39.7421 61.4204 40.8992 61.4204H61.4284C62.5855 61.4204 63.524 62.3613 63.524 63.5212V81.5516C63.5204 82.7115 62.5855 83.6524 61.4284 83.6524Z" fill="white"/>
<path d="M51.1622 80.9878L57.5169 86.9955C57.8322 87.2936 58.3552 87.071 58.3552 86.6328V79.1743L51.1622 80.9878Z" fill="white"/>
<path d="M43.1086 65.5338C45.3734 63.2634 45.3734 59.5823 43.1086 57.3119C40.8438 55.0414 37.1718 55.0414 34.907 57.3119C32.6422 59.5823 32.6422 63.2634 34.907 65.5338C37.1718 67.8043 40.8438 67.8043 43.1086 65.5338Z" fill="#5887C8"/>
<path d="M36.425 61.7152L38.5958 63.306L41.1821 60.0166" stroke="white" stroke-miterlimit="10" stroke-linecap="round" stroke-linejoin="round"/>
<path d="M56.3418 71.1487L55.4821 70.9978C55.3818 70.6208 55.2313 70.2617 55.0379 69.9241L55.5394 69.2095C55.7221 68.9474 55.6934 68.5883 55.4642 68.362L54.9484 67.8449C54.7191 67.6223 54.3609 67.5971 54.103 67.7839L53.3901 68.2866C53.0534 68.0927 52.6952 67.9419 52.3191 67.8413L52.1722 66.9615C52.1185 66.6491 51.8498 66.4193 51.5346 66.4121H50.7931C50.4707 66.4121 50.1948 66.6419 50.1411 66.9615L49.9907 67.8198C49.6145 67.9203 49.2563 68.0712 48.9196 68.2651L48.2068 67.7839C47.9453 67.6007 47.587 67.6295 47.3614 67.8593L46.8455 68.3764C46.6199 68.6026 46.5876 68.9617 46.7703 69.2239L47.2718 69.9385C47.0784 70.276 46.9279 70.6351 46.8276 71.0122L45.9715 71.163C45.6563 71.2169 45.4234 71.4934 45.4234 71.8166V72.5456C45.4234 72.8688 45.6527 73.1453 45.9715 73.1991L46.8276 73.35C46.9279 73.727 47.0784 74.0861 47.2718 74.4237L46.7703 75.1383C46.5876 75.4004 46.6163 75.7595 46.8455 75.9858L47.3614 76.5029C47.587 76.7291 47.9453 76.7614 48.2068 76.5783L48.9196 76.0755C49.2563 76.2695 49.6145 76.4203 49.9907 76.5208L50.1411 77.3791C50.1948 77.6951 50.4707 77.9285 50.7931 77.9285H51.531C51.8534 77.9285 52.1292 77.6987 52.1829 77.3791L52.3334 76.5208C52.7095 76.4203 53.0677 76.2695 53.4044 76.0755L54.103 76.5675C54.3645 76.7506 54.7227 76.7219 54.9484 76.4921L55.4642 75.975C55.6899 75.7488 55.7221 75.3897 55.5394 75.1275L55.0379 74.4057C55.2313 74.0682 55.3818 73.7091 55.4821 73.332L56.3418 73.1812C56.657 73.1273 56.8899 72.8508 56.8899 72.5276V71.7986C56.8899 71.479 56.657 71.2061 56.3418 71.1487ZM51.162 74.1328C50.0766 74.1328 49.199 73.2494 49.199 72.1649C49.199 71.0768 50.0802 70.197 51.162 70.197C52.2474 70.197 53.125 71.0804 53.125 72.1649C53.125 72.1685 53.125 72.1721 53.125 72.1757C53.1179 73.2602 52.2403 74.1328 51.162 74.1328Z" fill="#2B478B"/>
<path d="M85.2821 140.096C85.2821 142.326 87.0839 144.133 89.3084 144.133H169.083C171.307 144.133 173.109 142.326 173.109 140.096V67.917H85.2821V140.096Z" fill="#2B478B"/>
<path d="M169.096 45.0493H89.322C87.0975 45.0493 85.2957 46.8556 85.2957 49.0856V67.942H173.119V49.082C173.119 46.8556 171.317 45.0493 169.096 45.0493Z" fill="#2B478B"/>
<path d="M78.9666 140.096C78.9666 142.326 80.7685 144.133 82.993 144.133H162.767C164.992 144.133 166.794 142.326 166.794 140.096V67.917H78.9666V140.096Z" fill="white"/>
<path d="M162.764 45.0244H82.9896C80.7651 45.0244 78.9633 46.8307 78.9633 49.0607V67.9171H166.787V49.0607C166.79 46.8307 164.988 45.0244 162.764 45.0244Z" fill="#5887C8"/>
<path d="M103.361 61.6579C105.913 61.6579 107.982 59.5839 107.982 57.0255C107.982 54.4671 105.913 52.3931 103.361 52.3931C100.809 52.3931 98.7402 54.4671 98.7402 57.0255C98.7402 59.5839 100.809 61.6579 103.361 61.6579Z" fill="#2B478B"/>
<path d="M102.387 54.5478C101.058 54.5478 99.9831 53.4705 99.9831 52.1382V42.0654C99.9831 40.9019 100.768 39.8282 101.907 39.6092C103.44 39.3111 104.79 40.4854 104.79 41.9721V45.028H108.86V42.2019C108.86 38.7509 106.266 35.7309 102.831 35.5011C99.0625 35.2497 95.9174 38.2482 95.9174 41.9757V51.9335C95.9174 55.3163 98.4141 58.2896 101.778 58.6021C102.136 58.6344 102.491 58.638 102.838 58.6164C105.399 58.4405 105.188 54.555 102.62 54.555H102.387V54.5478Z" fill="white"/>
<path d="M140.207 61.6579C142.759 61.6579 144.828 59.5839 144.828 57.0255C144.828 54.4671 142.759 52.3931 140.207 52.3931C137.655 52.3931 135.586 54.4671 135.586 57.0255C135.586 59.5839 137.655 61.6579 140.207 61.6579Z" fill="#2B478B"/>
<path d="M139.233 54.5478C137.904 54.5478 136.829 53.4705 136.829 52.1382V42.0654C136.829 40.9019 137.614 39.8282 138.753 39.6092C140.286 39.3111 141.636 40.4854 141.636 41.9721V45.028H145.706V42.2019C145.706 38.7509 143.112 35.7309 139.677 35.5011C135.909 35.2497 132.763 38.2482 132.763 41.9757V51.9335C132.763 55.3163 135.26 58.2896 138.624 58.6021C138.982 58.6344 139.337 58.638 139.684 58.6164C142.245 58.4405 142.034 54.555 139.466 54.555H139.233V54.5478Z" fill="white"/>
<path d="M105.295 78.8335H92.1597V92.0017H105.295V78.8335Z" fill="#E9EEF7"/>
<path d="M105.295 98.2212H92.1597V111.389H105.295V98.2212Z" fill="#E9EEF7"/>
<path d="M105.295 117.609H92.1597V130.778H105.295V117.609Z" fill="#E9EEF7"/>
<path d="M127.583 78.8335H114.448V92.0017H127.583V78.8335Z" fill="#5887C8"/>
<path d="M127.583 98.2212H114.448V111.389H127.583V98.2212Z" fill="#E9EEF7"/>
<path d="M127.583 117.609H114.448V130.778H127.583V117.609Z" fill="#E9EEF7"/>
<path d="M149.871 78.8335H136.736V92.0017H149.871V78.8335Z" fill="#5887C8"/>
<path d="M149.871 98.2212H136.736V111.389H149.871V98.2212Z" fill="#5887C8"/>
<path d="M149.871 117.609H136.736V130.778H149.871V117.609Z" fill="#E9EEF7"/>
<path d="M75.1982 81.1465H66.3324V86.9998H75.1982V81.1465Z" fill="#5887C8"/>
<path d="M78.9558 79.0923H62.5746V82.6618H78.9558V79.0923Z" fill="#2B478B"/>
<path d="M91.5432 135.457C103.077 123.895 103.077 105.148 91.5432 93.5857C80.0093 82.0232 61.309 82.0232 49.7751 93.5857C38.2412 105.148 38.2412 123.895 49.7751 135.457C61.3091 147.02 80.0093 147.02 91.5432 135.457Z" fill="#2B478B"/>
<path d="M94.2899 120.034C97.3258 106.952 89.2084 93.8805 76.1593 90.8371C63.1101 87.7937 50.0707 95.9312 47.0348 109.013C43.9989 122.094 52.1163 135.166 65.1654 138.209C78.2146 141.253 91.254 133.115 94.2899 120.034Z" fill="white"/>
<path d="M56.9579 101.421C56.8003 101.421 56.6463 101.36 56.5281 101.241L55.5143 100.225C55.2743 99.9881 55.2743 99.6002 55.5143 99.3596C55.7543 99.119 56.1376 99.119 56.3776 99.3596L57.3914 100.376C57.6314 100.613 57.6314 101.001 57.3914 101.241C57.2696 101.363 57.1155 101.421 56.9579 101.421Z" fill="#F2C8AA"/>
<path d="M85.6187 130.152C85.4611 130.152 85.3071 130.091 85.1889 129.973L84.1751 128.957C83.9351 128.72 83.9351 128.332 84.1751 128.091C84.4151 127.85 84.7984 127.85 85.0384 128.091L86.0522 129.107C86.2922 129.344 86.2922 129.732 86.0522 129.973C85.9304 130.091 85.7727 130.152 85.6187 130.152Z" fill="#F2C8AA"/>
<path d="M55.9442 130.152C55.7866 130.152 55.6325 130.091 55.5143 129.973C55.2743 129.736 55.2743 129.348 55.5143 129.107L56.5281 128.091C56.7681 127.85 57.1514 127.85 57.3914 128.091C57.6314 128.328 57.6314 128.716 57.3914 128.957L56.3776 129.973C56.2558 130.091 56.1018 130.152 55.9442 130.152Z" fill="#F2C8AA"/>
<path d="M84.605 101.421C84.4473 101.421 84.2933 101.36 84.1751 101.241C83.9351 101.004 83.9351 100.617 84.1751 100.376L85.1889 99.3596C85.4289 99.119 85.8121 99.119 86.0522 99.3596C86.2922 99.5967 86.2922 99.9845 86.0522 100.225L85.0384 101.241C84.9166 101.363 84.759 101.421 84.605 101.421Z" fill="#F2C8AA"/>
<path d="M70.7599 95.5607C71.5315 95.5607 72.157 94.9337 72.157 94.1603C72.157 93.3868 71.5315 92.7598 70.7599 92.7598C69.9884 92.7598 69.3629 93.3868 69.3629 94.1603C69.3629 94.9337 69.9884 95.5607 70.7599 95.5607Z" fill="#2B478B"/>
<path d="M70.7599 136.294C71.5315 136.294 72.157 135.667 72.157 134.893C72.157 134.12 71.5315 133.493 70.7599 133.493C69.9884 133.493 69.3629 134.12 69.3629 134.893C69.3629 135.667 69.9884 136.294 70.7599 136.294Z" fill="#2B478B"/>
<path d="M50.4457 113.128C51.2158 113.128 51.8427 113.756 51.8427 114.528C51.8427 115.3 51.2158 115.929 50.4457 115.929C49.6755 115.929 49.0486 115.3 49.0486 114.528C49.0486 113.753 49.6755 113.128 50.4457 113.128Z" fill="#2B478B"/>
<path d="M91.0781 113.128C91.8483 113.128 92.4752 113.756 92.4752 114.528C92.4752 115.3 91.8483 115.929 91.0781 115.929C90.308 115.929 89.6811 115.3 89.6811 114.528C89.6811 113.753 90.3044 113.128 91.0781 113.128Z" fill="#2B478B"/>
<path d="M79.4398 101.906L69.4707 113.62C69.1662 113.932 68.9835 114.367 69.0229 114.841C69.091 115.706 69.8468 116.356 70.7101 116.288C71.3656 116.238 71.8922 115.789 72.082 115.2L79.7872 102.157C79.9198 101.931 79.6081 101.708 79.4398 101.906Z" fill="#5887C8"/>
</g>
<defs>
<clipPath id="clip0">
<rect width="151.083" height="112.542" fill="white" transform="translate(30.8333 32.4165)"/>
</clipPath>
</defs>
</svg>
