<svg width="41" height="41" viewBox="0 0 41 41" fill="none" xmlns="http://www.w3.org/2000/svg">
<path d="M29.7496 21.6758C29.734 19.0117 30.9428 17.0039 33.3839 15.5234C32.0186 13.5703 29.9531 12.4961 27.2303 12.2891C24.6523 12.0859 21.8317 13.7891 20.7989 13.7891C19.7074 13.7891 17.2116 12.3594 15.2477 12.3594C11.1948 12.4219 6.8877 15.5859 6.8877 22.0234C6.8877 23.9258 7.23587 25.8906 7.93221 27.9141C8.86327 30.5781 12.2198 37.1055 15.7211 37C17.5519 36.957 18.8468 35.7031 21.2292 35.7031C23.5412 35.7031 24.7383 37 26.7804 37C30.313 36.9492 33.3487 31.0156 34.2328 28.3438C29.4954 26.1133 29.7496 21.8125 29.7496 21.6758ZM25.6381 9.76172C27.6215 7.41016 27.4415 5.26953 27.3829 4.5C25.6303 4.60156 23.6038 5.69141 22.4498 7.03125C21.1784 8.46875 20.4312 10.2461 20.5916 12.25C22.485 12.3945 24.2141 11.4219 25.6381 9.76172Z" fill="#373737"/>
</svg>
