<svg width="32" height="32" viewBox="0 0 32 32" fill="none" xmlns="http://www.w3.org/2000/svg">
<path fill-rule="evenodd" clip-rule="evenodd" d="M15.9999 1.3335C7.89993 1.3335 1.33327 7.90016 1.33327 16.0002C1.33327 24.1002 7.89993 30.6668 15.9999 30.6668C24.0999 30.6668 30.6666 24.1002 30.6666 16.0002C30.6666 7.90016 24.0999 1.3335 15.9999 1.3335ZM22.3573 13.5202C22.4743 13.3864 22.5634 13.2305 22.6194 13.0617C22.6753 12.893 22.6969 12.7147 22.683 12.5375C22.669 12.3602 22.6197 12.1876 22.538 12.0297C22.4564 11.8718 22.3439 11.7318 22.2073 11.618C22.0708 11.5041 21.9128 11.4188 21.7427 11.3669C21.5727 11.315 21.394 11.2977 21.2171 11.3159C21.0403 11.3342 20.8688 11.3876 20.7129 11.473C20.557 11.5585 20.4198 11.6742 20.3093 11.8135L14.5759 18.6922L11.6093 15.7242C11.3578 15.4813 11.021 15.3469 10.6714 15.3499C10.3218 15.353 9.98739 15.4932 9.74018 15.7404C9.49297 15.9876 9.35274 16.322 9.3497 16.6716C9.34666 17.0212 9.48106 17.358 9.72393 17.6095L13.7239 21.6095C13.8549 21.7404 14.0118 21.8426 14.1845 21.9096C14.3572 21.9765 14.5419 22.0068 14.727 21.9984C14.912 21.99 15.0932 21.9431 15.2591 21.8608C15.4251 21.7784 15.572 21.6624 15.6906 21.5202L22.3573 13.5202Z" fill="white"/>
</svg>
