<svg width="22" height="24" viewBox="0 0 22 24" fill="none" xmlns="http://www.w3.org/2000/svg">
<path d="M16.2245 15.6679C19.0132 14.1068 21.1272 12.9172 21.3095 12.8247C21.8924 12.5087 22.4944 11.6722 21.3095 11.0224C20.9269 10.8181 18.8672 9.66554 16.2245 8.1792L12.561 11.9513L16.2245 15.6678V15.6679Z" fill="#FFD900"/>
<path d="M12.5614 11.9512L0.896484 23.9374C1.17029 23.9744 1.4794 23.9004 1.84384 23.6961C2.60897 23.2691 10.7201 18.753 16.2248 15.6686L12.5614 11.9512Z" fill="#F43249"/>
<path d="M12.5609 11.9513L16.2244 8.19774C16.2244 8.19774 2.66387 0.652543 1.84341 0.207142C1.5343 0.0204849 1.1879 -0.0349604 0.87793 0.0204849L12.5609 11.9513Z" fill="#00EE76"/>
<path d="M12.5613 11.9523L0.87826 0.0214844C0.404112 0.133251 0.00341797 0.560346 0.00341797 1.43381V22.5262C0.00341797 23.3257 0.313475 23.9015 0.896388 23.957L12.5613 11.9523Z" fill="#00D3FF"/>
</svg>
