<svg width="44" height="44" viewBox="0 0 44 44" fill="none" xmlns="http://www.w3.org/2000/svg">
<path d="M9.91212 0.846191C4.90514 0.846191 0.846191 4.90515 0.846191 9.91212V23.4128H6.61503C8.46857 23.4128 10.2556 22.7223 11.6275 21.4759L24.9654 9.35825L25.0046 9.3131C27.2508 6.72473 31.1359 6.47291 33.6884 8.7452C35.0287 9.93833 35.6111 11.148 35.6579 12.3011C35.7048 13.455 35.2232 14.7427 34.0493 16.1072L27.6187 22.2959C26.7462 23.1356 25.3613 23.1195 24.5085 22.2597L22.0382 19.769C20.459 18.1769 17.912 18.0935 16.232 19.5788L9.15166 25.8387L9.108 25.889C7.67497 27.5404 6.85638 29.4697 6.85592 31.4147C6.85546 33.3788 7.69096 35.2584 9.37743 36.7597C12.7538 39.7653 17.8906 39.4446 20.8773 36.0589L33.6192 24.7794C34.6139 23.8989 35.8963 23.4128 37.2247 23.4128H41.1392V34.088C41.1392 37.9823 37.9823 41.1392 34.0879 41.1392H9.91212C6.01781 41.1392 2.86084 37.9823 2.86084 34.088V26.5493H0.846191V34.088C0.846191 39.0949 4.90515 43.1539 9.91212 43.1539H34.0879C39.0949 43.1539 43.1539 39.0949 43.1539 34.088V21.3982H37.2247C35.4043 21.3982 33.6469 22.0643 32.2838 23.2709L19.4443 34.6369L19.4008 34.687C17.1546 37.2753 13.2695 37.5272 10.717 35.2549C9.43049 34.1096 8.87026 32.7657 8.87057 31.4152C8.87089 30.0622 9.43574 28.6048 10.5872 27.2586L17.5664 21.0881C18.4464 20.3101 19.7806 20.3538 20.6078 21.1878L23.0781 23.6785C24.7061 25.3198 27.35 25.3505 29.0157 23.7475L35.5123 17.4954L35.542 17.4612C36.9601 15.827 37.7452 14.0455 37.6709 12.2193C37.5963 10.3826 36.6607 8.69385 35.028 7.24042C31.6499 4.23325 26.5097 4.55581 23.5236 7.94622L10.2728 19.9847C9.27168 20.8943 7.96761 21.3982 6.61503 21.3982H2.86084V9.91212C2.86084 6.01781 6.01781 2.86084 9.91212 2.86084H34.0879C37.9823 2.86084 41.1392 6.01781 41.1392 9.91212V18.3173H43.1539V9.91212C43.1539 4.90515 39.0949 0.846191 34.0879 0.846191H9.91212Z" fill="white"/>
</svg>
