<svg width="430" height="312" viewBox="0 0 430 312" fill="none" xmlns="http://www.w3.org/2000/svg">
<path d="M318.735 298.626L78.9141 308.381C50.8048 306.232 27.4139 285.94 21.3186 258.416L15.4393 231.866C13.7654 224.308 14.1025 216.442 16.4169 209.054L22.8161 188.627C30.9766 162.578 29.9312 134.515 19.8553 109.144L16.9075 101.722C12.6868 91.0948 13.7111 79.1014 19.6726 69.3438C26.9535 57.4268 40.4163 50.7327 54.3124 52.12L101.506 56.8312C109.221 57.6014 117.012 56.7317 124.367 54.2792L225.774 20.4661C264.268 7.63079 306.597 14.2791 339.302 38.2972L384.284 71.3303C391.629 76.7246 397.396 83.9877 400.984 92.3648C419.863 136.435 424.565 185.535 414.548 232.42C411.14 248.371 400.327 261.841 385.458 268.545L318.735 298.626Z" fill="#E4E6FF"/>
<g clip-path="url(#clip0)">
<path d="M333.42 307.175H142.479C138.057 307.175 134.476 303.595 134.476 299.174V41.8897C134.476 37.4691 138.057 33.8882 142.479 33.8882H333.42C337.842 33.8882 341.423 37.4691 341.423 41.8897V299.166C341.423 303.587 337.842 307.175 333.42 307.175Z" fill="#F39D9D"/>
<path d="M327.565 46.8018H148.335V288.392H327.565V46.8018Z" fill="white"/>
<path d="M327.564 288.391C327.564 286.743 327.485 189.846 327.374 46.8012L327.564 46.9913C273.705 46.9993 212.715 47.0072 148.35 47.0072H148.326L148.532 46.8012C148.516 136.901 148.508 220.386 148.492 288.391L148.326 288.225C256.883 288.328 326.169 288.391 327.564 288.391C326.169 288.391 256.883 288.455 148.334 288.558H148.168V288.391C148.16 220.386 148.144 136.909 148.128 46.8012V46.5952H148.334H148.358C212.723 46.6031 273.713 46.6111 327.572 46.6111H327.762V46.8012C327.643 189.854 327.564 286.743 327.564 288.391Z" fill="#E0E0E0"/>
<path d="M265.33 70.1958H234.569V77.8091H265.33V70.1958Z" fill="#E0E0E0"/>
<path d="M310.433 75.2009C310.433 75.4174 302.018 75.603 291.645 75.603C281.265 75.603 272.85 75.4174 272.85 75.2009C272.85 74.9844 281.265 74.7988 291.645 74.7988C302.018 74.7988 310.433 74.9689 310.433 75.2009Z" fill="#E0E0E0"/>
<path d="M309.728 84.3274C309.728 84.5438 292.897 84.7294 272.145 84.7294C251.384 84.7294 234.562 84.5438 234.562 84.3274C234.562 84.1109 251.384 83.9253 272.145 83.9253C292.905 83.9253 309.728 84.1109 309.728 84.3274Z" fill="#E0E0E0"/>
<path d="M309.728 93.2717C309.728 93.4882 292.897 93.6738 272.145 93.6738C251.384 93.6738 234.562 93.4882 234.562 93.2717C234.562 93.0552 251.384 92.8696 272.145 92.8696C292.905 92.8696 309.728 93.0552 309.728 93.2717Z" fill="#E0E0E0"/>
<path d="M321.454 117.117C321.454 117.334 284.061 117.519 237.952 117.519C191.828 117.519 154.443 117.334 154.443 117.117C154.443 116.901 191.828 116.715 237.952 116.715C284.061 116.715 321.454 116.901 321.454 117.117Z" fill="#E0E0E0"/>
<path d="M321.454 252.177C321.454 252.393 284.061 252.579 237.952 252.579C191.828 252.579 154.443 252.393 154.443 252.177C154.443 251.96 191.828 251.774 237.952 251.774C284.061 251.774 321.454 251.96 321.454 252.177Z" fill="#E0E0E0"/>
<path d="M219.736 130.595H168.208V140.26H219.736V130.595Z" fill="#E0E0E0"/>
<path d="M190.513 265.773H168.208V275.439H190.513V265.773Z" fill="#E0E0E0"/>
<path d="M265.402 265.773H243.096V275.439H265.402V265.773Z" fill="#E0E0E0"/>
<path d="M227.898 272.664C227.898 272.88 220.933 273.066 212.343 273.066C203.746 273.066 196.789 272.88 196.789 272.664C196.789 272.447 203.754 272.262 212.343 272.262C220.933 272.262 227.898 272.432 227.898 272.664Z" fill="#E0E0E0"/>
<path d="M307.984 272.664C307.984 272.88 301.019 273.066 292.43 273.066C283.832 273.066 276.875 272.88 276.875 272.664C276.875 272.447 283.84 272.262 292.43 272.262C301.019 272.262 307.984 272.432 307.984 272.664Z" fill="#E0E0E0"/>
<path d="M306.138 155.002C306.138 155.218 275.615 155.404 237.969 155.404C200.307 155.404 169.792 155.218 169.792 155.002C169.792 154.785 200.307 154.6 237.969 154.6C275.615 154.6 306.138 154.785 306.138 155.002Z" fill="#E0E0E0"/>
<path d="M308.793 166.038C308.793 166.254 277.676 166.44 239.3 166.44C200.909 166.44 169.8 166.254 169.8 166.038C169.8 165.821 200.909 165.636 239.3 165.636C277.676 165.636 308.793 165.806 308.793 166.038Z" fill="#E0E0E0"/>
<path d="M237.169 177.066C237.169 177.282 221.725 177.468 202.684 177.468C183.635 177.468 168.2 177.282 168.2 177.066C168.2 176.849 183.635 176.664 202.684 176.664C221.733 176.664 237.169 176.849 237.169 177.066Z" fill="#E0E0E0"/>
<path d="M301.468 210.873C304.428 222.634 297.28 234.566 285.501 237.523C273.722 240.479 261.774 233.34 258.814 221.579C255.853 209.817 263.001 197.885 274.78 194.929C286.56 191.972 298.508 199.111 301.468 210.873Z" stroke="#FFB5B5"/>
<path d="M264.522 212.936L263.393 217.71C263.074 219.06 262.325 220.269 261.26 221.158L260.816 221.528C260.368 221.901 259.841 222.169 259.276 222.311L258.255 222.567C257.476 222.763 256.653 222.508 256.121 221.907V221.907C255.316 220.999 255.421 219.606 256.352 218.83L257.157 218.159C257.33 218.015 257.517 217.89 257.716 217.786L260.215 216.477C262.285 215.394 264.475 214.559 266.741 213.99L268.051 213.661V213.661C269.985 213.176 271.487 211.654 271.946 209.714L272.01 209.445L269.789 216.362C269.395 217.589 268.851 218.762 268.169 219.855V219.855C267.27 221.296 266.612 222.874 266.221 224.527L266.001 225.458V225.458C265.475 227.683 263.288 231.867 262.13 229.895C262.094 229.833 262.064 229.76 262.043 229.675C261.738 228.462 261.407 227.148 261.28 226.643L261.162 226.173C260.805 224.758 261.664 223.323 263.079 222.968V222.968C263.464 222.871 263.822 222.689 264.127 222.435L266.43 220.515L272.227 215.683C273.028 215.015 274.218 215.752 273.978 216.767V216.767C273.938 216.936 273.939 217.112 273.982 217.281L274.019 217.427C274.325 218.645 275.798 219.124 276.762 218.321L276.968 218.149C277.278 217.89 277.497 217.537 277.59 217.144L278.144 214.799C278.218 214.487 278.372 214.2 278.592 213.967L279.931 212.54C280.682 211.74 282.021 212.339 281.926 213.432L281.907 213.659C281.848 214.34 282.477 214.876 283.14 214.71V214.71C283.285 214.673 283.419 214.605 283.534 214.509L286.126 212.348L288.892 210.042V210.042C289.396 209.622 290.099 210.235 289.752 210.791L289.613 211.013C289.428 211.311 289.526 211.703 289.831 211.878L290.287 212.14C290.813 212.441 291.482 212.273 291.803 211.759L292.189 211.139C292.342 210.895 292.548 210.689 292.792 210.537L296.761 208.067V208.067C297.511 207.442 298.605 208.218 298.261 209.133L295.624 216.163C295.555 216.345 295.469 216.52 295.366 216.685L293.452 219.754C293.242 220.09 293.066 220.446 292.927 220.817L291.863 223.654C291.443 224.773 290.271 225.419 289.1 225.179V225.179C288.186 224.991 287.46 224.296 287.232 223.391L287.055 222.687C286.915 222.13 286.91 221.547 287.043 220.988L287.143 220.564C287.469 219.186 288.327 217.992 289.529 217.244L291.992 215.711L306.966 208.729" stroke="#F59696" stroke-linecap="round" stroke-linejoin="round"/>
<path d="M267.86 31.5674H208.05V54.4311H267.86V31.5674Z" fill="#E0E0E0"/>
<path d="M267.859 54.4305C267.859 54.4305 267.851 54.2879 267.843 54.0186C267.843 53.7334 267.835 53.3373 267.827 52.8302C267.819 51.7766 267.803 50.2476 267.795 48.2908C267.779 44.3455 267.748 38.6493 267.716 31.5747L267.859 31.7173C252.914 31.7332 231.631 31.757 208.049 31.7807L208.255 31.5747C208.255 39.5604 208.247 47.2846 208.247 54.4385L208.049 54.2404C225.323 54.28 240.244 54.3117 250.87 54.3355C256.179 54.3592 260.41 54.3751 263.342 54.3909C264.792 54.3988 265.909 54.4068 266.694 54.4147C267.066 54.4226 267.352 54.4226 267.565 54.4305C267.748 54.4226 267.859 54.4305 267.859 54.4305C267.867 54.4385 267.771 54.4385 267.581 54.4464C267.375 54.4464 267.098 54.4543 266.733 54.4622C265.965 54.4701 264.855 54.4781 263.429 54.486C260.513 54.5018 256.298 54.5177 251.005 54.5415C240.347 54.5652 225.379 54.5969 208.049 54.6365H207.851V54.4385C207.851 47.2846 207.843 39.5683 207.843 31.5747L208.049 31.3608C231.631 31.3846 252.906 31.4084 267.859 31.4242H268.001V31.5668C267.97 38.681 267.946 44.4088 267.922 48.37C267.906 50.3189 267.898 51.832 267.89 52.8778C267.882 53.3769 267.882 53.7651 267.874 54.0423C267.867 54.3038 267.859 54.4305 267.859 54.4305Z" fill="#E0E0E0"/>
</g>
<path d="M78.7498 70.3867H166.101C172.774 70.3867 178.184 75.7898 178.184 82.4536V291.366C178.184 298.03 172.774 303.433 166.101 303.433H79.363C72.7019 303.433 67.2973 298.054 67.2793 291.402L66.6661 82.4896C66.642 75.8078 72.0587 70.3867 78.7498 70.3867Z" fill="white"/>
<g clip-path="url(#clip1)">
<path d="M167.856 166.249L167.025 165.419C166.903 165.297 166.705 165.297 166.582 165.419L163.073 168.923L162.262 168.112C162.203 168.054 162.124 168.021 162.041 168.021C161.958 168.021 161.878 168.054 161.819 168.112L160.988 168.942C160.866 169.064 160.866 169.262 160.988 169.385L162.01 170.405C162.013 170.409 162.017 170.412 162.02 170.416L162.852 171.246C162.91 171.305 162.99 171.338 163.073 171.338C163.156 171.338 163.236 171.305 163.294 171.246L167.856 166.691C167.915 166.632 167.948 166.552 167.948 166.469C167.948 166.386 167.915 166.307 167.856 166.249Z" fill="#ED7979"/>
<path d="M167.587 167.419L166.963 168.042C167.159 168.482 167.261 168.962 167.261 169.458C167.261 170.392 166.897 171.27 166.236 171.93C165.575 172.591 164.696 172.954 163.76 172.954C162.825 172.954 161.946 172.59 161.285 171.93C160.624 171.27 160.259 170.392 160.259 169.458C160.259 168.524 160.624 167.646 161.285 166.986C161.946 166.325 162.825 165.962 163.76 165.962C164.283 165.962 164.789 166.076 165.248 166.291L165.868 165.673C165.732 165.598 165.592 165.529 165.448 165.468C164.913 165.242 164.346 165.128 163.76 165.128C163.175 165.128 162.607 165.242 162.072 165.468C161.556 165.687 161.092 165.999 160.694 166.396C160.296 166.794 159.984 167.257 159.765 167.772C159.539 168.307 159.424 168.874 159.424 169.458C159.424 170.042 159.539 170.609 159.765 171.144C159.984 171.659 160.296 172.122 160.694 172.52C161.092 172.917 161.556 173.23 162.072 173.448C162.607 173.673 163.175 173.788 163.76 173.788C164.346 173.788 164.913 173.674 165.448 173.448C165.965 173.229 166.428 172.917 166.826 172.52C167.225 172.122 167.537 171.659 167.756 171.144C167.982 170.609 168.096 170.042 168.096 169.458C168.096 168.874 167.982 168.307 167.756 167.772C167.704 167.652 167.648 167.534 167.587 167.419Z" fill="#838ADC"/>
</g>
<rect x="82.709" y="166.988" width="44.0279" height="1.99849" rx="0.999245" fill="#B9B9B9"/>
<rect x="82.709" y="170.985" width="12.0076" height="1.99849" rx="0.999245" fill="#B9B9B9"/>
<rect x="130.739" y="166.988" width="16.0102" height="1.99849" rx="0.999245" fill="#B9B9B9"/>
<rect x="98.7197" y="170.985" width="38.0241" height="1.99849" rx="0.999245" fill="#B9B9B9"/>
<path d="M109.41 90.7734V93H108.66V87.3125H110.758C111.38 87.3125 111.867 87.4714 112.219 87.7891C112.573 88.1068 112.75 88.5273 112.75 89.0508C112.75 89.6029 112.577 90.0286 112.23 90.3281C111.887 90.625 111.393 90.7734 110.75 90.7734H109.41ZM109.41 90.1602H110.758C111.159 90.1602 111.466 90.0664 111.68 89.8789C111.893 89.6888 112 89.4154 112 89.0586C112 88.7201 111.893 88.4492 111.68 88.2461C111.466 88.043 111.173 87.9375 110.801 87.9297H109.41V90.1602ZM115.293 93.0781C114.72 93.0781 114.254 92.8906 113.895 92.5156C113.535 92.138 113.355 91.6341 113.355 91.0039V90.8711C113.355 90.4518 113.435 90.0781 113.594 89.75C113.755 89.4193 113.979 89.1615 114.266 88.9766C114.555 88.7891 114.867 88.6953 115.203 88.6953C115.753 88.6953 116.18 88.8763 116.484 89.2383C116.789 89.6003 116.941 90.1185 116.941 90.793V91.0938H114.078C114.089 91.5104 114.21 91.8477 114.441 92.1055C114.676 92.3607 114.973 92.4883 115.332 92.4883C115.587 92.4883 115.803 92.4362 115.98 92.332C116.158 92.2279 116.312 92.0898 116.445 91.918L116.887 92.2617C116.533 92.806 116.001 93.0781 115.293 93.0781ZM115.203 89.2891C114.911 89.2891 114.667 89.3958 114.469 89.6094C114.271 89.8203 114.148 90.1172 114.102 90.5H116.219V90.4453C116.198 90.0781 116.099 89.7943 115.922 89.5938C115.745 89.3906 115.505 89.2891 115.203 89.2891ZM117.844 88.7734H118.57V92.4102H120.516V88.7734H121.238V92.4102H121.742L121.672 94.2539H121.023V93H117.844V88.7734ZM124.277 93.0781C123.704 93.0781 123.238 92.8906 122.879 92.5156C122.52 92.138 122.34 91.6341 122.34 91.0039V90.8711C122.34 90.4518 122.419 90.0781 122.578 89.75C122.74 89.4193 122.964 89.1615 123.25 88.9766C123.539 88.7891 123.852 88.6953 124.188 88.6953C124.737 88.6953 125.164 88.8763 125.469 89.2383C125.773 89.6003 125.926 90.1185 125.926 90.793V91.0938H123.062C123.073 91.5104 123.194 91.8477 123.426 92.1055C123.66 92.3607 123.957 92.4883 124.316 92.4883C124.572 92.4883 124.788 92.4362 124.965 92.332C125.142 92.2279 125.297 92.0898 125.43 91.918L125.871 92.2617C125.517 92.806 124.986 93.0781 124.277 93.0781ZM124.188 89.2891C123.896 89.2891 123.651 89.3958 123.453 89.6094C123.255 89.8203 123.133 90.1172 123.086 90.5H125.203V90.4453C125.182 90.0781 125.083 89.7943 124.906 89.5938C124.729 89.3906 124.49 89.2891 124.188 89.2891ZM130.223 93H129.5V89.3711H127.555V93H126.828V88.7734H130.223V93ZM134.523 89.3594H133.105V93H132.383V89.3594H130.992V88.7734H134.523V89.3594Z" fill="#454B60"/>
<path fill-rule="evenodd" clip-rule="evenodd" d="M169.797 76.9661C169.797 77.2362 169.646 77.4583 169.376 77.4583V76.4738C169.646 76.4738 169.797 76.6959 169.797 76.9661ZM169.238 76.0535V77.8786C169.238 78.1127 169.051 78.2988 168.817 78.2988H163.328C163.094 78.2988 162.907 78.1127 162.907 77.8786V76.0535C162.907 75.8194 163.094 75.6333 163.328 75.6333H168.817C169.045 75.6333 169.238 75.8194 169.238 76.0535ZM163.328 75.7714C163.172 75.7714 163.046 75.8975 163.046 76.0535V77.8786C163.046 78.0347 163.172 78.1607 163.328 78.1607H168.817C168.973 78.1607 169.099 78.0347 169.099 77.8786V76.0535C169.099 75.8975 168.973 75.7714 168.817 75.7714H163.328ZM163.184 76.0535V77.8786C163.184 77.9566 163.25 78.0167 163.322 78.0167H168.811C168.889 78.0167 168.949 77.9566 168.949 77.8786V76.0535C168.949 75.9755 168.889 75.9155 168.811 75.9155H163.322C163.25 75.9095 163.184 75.9755 163.184 76.0535Z" fill="#454B60"/>
<path d="M159.716 75.6333C160.311 75.6333 160.906 75.8674 161.405 76.2877L161.182 76.5338C160.774 76.1916 160.251 75.9995 159.716 75.9995C159.18 75.9995 158.663 76.1856 158.255 76.5338L158.032 76.2877C158.525 75.8614 159.12 75.6333 159.716 75.6333ZM159.716 76.5038C160.118 76.5038 160.509 76.6539 160.834 76.918L160.593 77.1822C160.347 76.9841 160.034 76.87 159.716 76.87C159.397 76.87 159.084 76.9781 158.838 77.1822L158.597 76.918C158.916 76.6479 159.313 76.5038 159.716 76.5038ZM159.716 77.3623C159.902 77.3623 160.094 77.4283 160.257 77.5544L159.716 78.1547L159.174 77.5544C159.337 77.4343 159.523 77.3623 159.716 77.3623Z" fill="#454B60"/>
<path d="M174.998 99.1777H69.4917V99.3158H174.998V99.1777Z" fill="#DADEEA"/>
<path d="M181.334 120.911V83.2038C181.334 73.6644 173.591 65.938 164.044 65.938H80.018C70.1647 65.938 62.1029 73.9886 62.1029 83.8281V97.648C61.5438 97.648 61.0869 98.0983 61.0869 98.6626V105.747C61.0869 106.305 61.5378 106.761 62.1029 106.761V115.196C61.5438 115.196 61.0869 115.646 61.0869 116.211V131.387C61.0869 131.945 61.5378 132.402 62.1029 132.402V137.463C61.5438 137.463 61.0869 137.913 61.0869 138.477V153.654C61.0869 154.212 61.5378 154.668 62.1029 154.668V290.189C62.1029 300.059 70.1887 308.134 80.0721 308.134H164.038C173.549 308.134 181.328 300.365 181.328 290.868V148.905H181.665C182.224 148.905 182.681 148.455 182.681 147.891V121.92C182.681 121.361 182.23 120.905 181.665 120.905H181.334V120.911ZM136.168 73.6464C136.168 74.4628 135.507 75.1232 134.689 75.1232C133.871 75.1232 133.21 74.4628 133.21 73.6464C133.21 72.8299 133.871 72.1695 134.689 72.1695C135.507 72.1695 136.168 72.8299 136.168 73.6464ZM116.077 73.3582H129.248C129.807 73.3582 130.264 73.7064 130.264 74.1987C130.264 74.697 129.813 75.0392 129.248 75.0392H116.077C115.517 75.0392 115.061 74.691 115.061 74.1987C115.061 73.7004 115.511 73.3582 116.077 73.3582ZM174.92 289.385C174.92 295.274 170.567 300.347 164.67 300.347H80.565C74.6675 300.347 69.5395 295.274 69.5395 289.385V82.5374C69.5395 76.6481 74.6675 72.3436 80.565 72.3436H90.2861C92.3421 72.3436 93.0996 72.1095 93.2258 74.709C93.292 76.0597 93.7849 77.1103 94.5845 77.9808C95.378 78.8333 96.4722 79.5357 97.7286 79.9259C98.5823 80.1901 99.5322 80.4362 100.44 80.4362H102.274H143.045H144.879C145.787 80.4362 146.737 80.1421 147.59 79.8719C148.847 79.4817 149.941 78.8213 150.734 77.9868C151.528 77.1343 152.027 76.1258 152.093 74.775C152.219 72.1755 152.977 72.3436 155.033 72.3436H164.664C170.561 72.3436 174.914 76.6481 174.914 82.5374V289.385H174.92Z" fill="#454B60"/>
<path d="M129.247 73.3584H116.075C115.516 73.3584 115.059 73.7066 115.059 74.1989C115.059 74.6972 115.51 75.0394 116.075 75.0394H129.247C129.806 75.0394 130.263 74.6912 130.263 74.1989C130.257 73.7006 129.806 73.3584 129.247 73.3584Z" fill="white"/>
<path d="M134.694 72.1694C133.877 72.1694 133.215 72.8298 133.215 73.6463C133.215 74.4627 133.877 75.1231 134.694 75.1231C135.512 75.1231 136.173 74.4627 136.173 73.6463C136.167 72.8298 135.506 72.1694 134.694 72.1694Z" fill="white"/>
<g clip-path="url(#clip2)">
<path d="M167.856 180.514L167.025 179.684C166.903 179.562 166.705 179.562 166.582 179.684L163.073 183.188L162.262 182.378C162.203 182.319 162.124 182.286 162.041 182.286C161.958 182.286 161.878 182.319 161.819 182.378L160.988 183.207C160.866 183.33 160.866 183.528 160.988 183.65L162.01 184.67C162.013 184.674 162.017 184.678 162.02 184.681L162.852 185.511C162.91 185.57 162.99 185.603 163.073 185.603C163.156 185.603 163.236 185.57 163.294 185.511L167.856 180.956C167.915 180.897 167.948 180.818 167.948 180.735C167.948 180.652 167.915 180.572 167.856 180.514Z" fill="#ED7979"/>
<path d="M167.587 181.685L166.963 182.307C167.159 182.747 167.261 183.227 167.261 183.723C167.261 184.657 166.897 185.535 166.236 186.195C165.575 186.856 164.696 187.219 163.76 187.219C162.825 187.219 161.946 186.856 161.285 186.195C160.624 185.535 160.259 184.657 160.259 183.723C160.259 182.789 160.624 181.911 161.285 181.251C161.946 180.59 162.825 180.227 163.76 180.227C164.283 180.227 164.789 180.341 165.248 180.556L165.868 179.938C165.732 179.863 165.592 179.794 165.448 179.734C164.913 179.508 164.346 179.393 163.76 179.393C163.175 179.393 162.607 179.508 162.072 179.734C161.556 179.952 161.092 180.264 160.694 180.661C160.296 181.059 159.984 181.522 159.765 182.038C159.539 182.572 159.424 183.139 159.424 183.723C159.424 184.308 159.539 184.875 159.765 185.409C159.984 185.924 160.296 186.387 160.694 186.785C161.092 187.182 161.556 187.495 162.072 187.713C162.607 187.939 163.175 188.053 163.76 188.053C164.346 188.053 164.913 187.939 165.448 187.713C165.965 187.495 166.428 187.182 166.826 186.785C167.225 186.387 167.537 185.924 167.756 185.409C167.982 184.875 168.096 184.308 168.096 183.723C168.096 183.139 167.982 182.572 167.756 182.038C167.704 181.917 167.648 181.799 167.587 181.685Z" fill="#838ADC"/>
</g>
<g clip-path="url(#clip3)">
<path d="M167.856 195.169L167.025 194.34C166.903 194.218 166.705 194.218 166.582 194.34L163.073 197.844L162.262 197.033C162.203 196.975 162.124 196.942 162.041 196.942C161.958 196.942 161.878 196.975 161.819 197.033L160.988 197.863C160.866 197.985 160.866 198.183 160.988 198.306L162.01 199.326C162.013 199.329 162.017 199.333 162.02 199.337L162.852 200.167C162.91 200.225 162.99 200.258 163.073 200.258C163.156 200.258 163.236 200.225 163.294 200.167L167.856 195.611C167.915 195.553 167.948 195.473 167.948 195.39C167.948 195.307 167.915 195.228 167.856 195.169Z" fill="#ED7979"/>
<path d="M167.587 196.34L166.963 196.963C167.159 197.403 167.261 197.883 167.261 198.379C167.261 199.313 166.897 200.191 166.236 200.851C165.575 201.512 164.696 201.875 163.76 201.875C162.825 201.875 161.946 201.511 161.285 200.851C160.624 200.191 160.259 199.313 160.259 198.379C160.259 197.445 160.624 196.567 161.285 195.907C161.946 195.246 162.825 194.883 163.76 194.883C164.283 194.883 164.789 194.996 165.248 195.212L165.868 194.594C165.732 194.519 165.592 194.45 165.448 194.389C164.913 194.163 164.346 194.049 163.76 194.049C163.175 194.049 162.607 194.163 162.072 194.389C161.556 194.607 161.092 194.92 160.694 195.317C160.296 195.715 159.984 196.178 159.765 196.693C159.539 197.227 159.424 197.795 159.424 198.379C159.424 198.963 159.539 199.53 159.765 200.064C159.984 200.58 160.296 201.043 160.694 201.441C161.092 201.838 161.556 202.15 162.072 202.368C162.607 202.594 163.175 202.709 163.76 202.709C164.346 202.709 164.913 202.594 165.448 202.368C165.965 202.15 166.428 201.838 166.826 201.441C167.225 201.043 167.537 200.58 167.756 200.064C167.982 199.53 168.096 198.963 168.096 198.379C168.096 197.795 167.982 197.227 167.756 196.693C167.704 196.573 167.648 196.455 167.587 196.34Z" fill="#838ADC"/>
</g>
<rect x="82.709" y="181.53" width="30.019" height="1.99849" rx="0.999245" fill="#B9B9B9"/>
<rect x="82.709" y="185.526" width="12.0076" height="1.99847" rx="0.999237" fill="#B9B9B9"/>
<rect x="115.397" y="181.53" width="31.3532" height="1.99849" rx="0.999245" fill="#B9B9B9"/>
<rect x="98.7197" y="185.526" width="38.0241" height="1.99847" rx="0.999237" fill="#B9B9B9"/>
<ellipse cx="76.3712" cy="182.529" rx="1.00063" ry="0.999245" fill="#838ADC"/>
<ellipse cx="76.3712" cy="167.988" rx="1.00063" ry="0.999245" fill="#838ADC"/>
<rect x="82.709" y="194.853" width="23.3481" height="1.99847" rx="0.999237" fill="#B9B9B9"/>
<rect x="82.709" y="198.85" width="12.0076" height="1.99849" rx="0.999245" fill="#B9B9B9"/>
<rect x="109.392" y="194.853" width="24.0152" height="1.99847" rx="0.999237" fill="#B9B9B9"/>
<rect x="98.7197" y="198.85" width="38.0241" height="1.99849" rx="0.999245" fill="#B9B9B9"/>
<rect x="136.744" y="194.853" width="16.0101" height="1.99847" rx="0.999237" fill="#B9B9B9"/>
<rect x="82.709" y="202.847" width="52.033" height="1.99846" rx="0.999229" fill="#B9B9B9"/>
<ellipse cx="76.3712" cy="195.852" rx="1.00063" ry="0.999237" fill="#838ADC"/>
<rect x="82.9399" y="210.68" width="12.8839" height="2.00229" rx="1.00114" fill="#B9B9B9"/>
<rect x="82.9399" y="214.701" width="23.3521" height="2.00229" rx="1.00114" fill="#B9B9B9"/>
<rect x="107.903" y="214.701" width="28.9888" height="2.00229" rx="1.00114" fill="#B9B9B9"/>
<rect x="99.0449" y="210.68" width="44.2884" height="2.00229" rx="1.00114" fill="#B9B9B9"/>
<rect x="82.709" y="218.674" width="52.033" height="1.99849" rx="0.999245" fill="#B9B9B9"/>
<ellipse cx="76.3712" cy="211.679" rx="1.00063" ry="0.999245" fill="#838ADC"/>
<path d="M167.796 218.32C167.796 220.485 166.037 222.242 163.867 222.242C161.696 222.242 159.938 220.485 159.938 218.32C159.938 216.154 161.696 214.397 163.867 214.397C166.037 214.397 167.796 216.154 167.796 218.32Z" stroke="#838ADC"/>
<path d="M140.57 133.597C140.386 134.087 140.001 134.998 139.274 136.255C139.088 136.575 138.883 136.919 138.651 137.283C137.009 139.86 134.142 143.503 129.248 147.76L122.545 153.587L115.845 147.76C111.376 143.877 108.6 140.504 106.904 137.985C106.66 137.621 106.438 137.279 106.237 136.956C105.235 135.333 104.737 134.174 104.521 133.597C102.554 128.313 105.242 122.429 110.525 120.46C115.028 118.782 119.965 120.485 122.545 124.296C125.126 120.485 130.064 118.782 134.566 120.46C139.852 122.429 142.541 128.313 140.57 133.597Z" fill="#ED7979"/>
<path d="M134.569 120.461C133.395 120.023 132.19 119.816 131.006 119.816C129.327 119.816 127.688 120.23 126.234 121.001C124.777 121.769 123.502 122.889 122.549 124.297C120.639 121.48 117.448 119.816 114.09 119.816C112.908 119.816 111.703 120.021 110.528 120.461C105.244 122.43 102.557 128.314 104.526 133.598C104.743 134.175 105.24 135.334 106.242 136.957H106.24C106.441 137.282 106.662 137.624 106.907 137.986H106.909C108.606 140.505 111.381 143.876 115.85 147.761L122.551 153.588L129.253 147.761C134.149 143.504 137.014 139.861 138.656 137.284C138.889 136.92 139.094 136.576 139.279 136.256C140.005 134.999 140.392 134.087 140.575 133.598C142.543 128.314 139.854 122.43 134.569 120.461ZM128.574 146.983L122.549 152.224L116.523 146.983C113.045 143.961 110.234 140.937 108.157 137.986H123.299L125.075 131.15L127.476 146.045L130.408 134.058L131.818 141.03L133.287 137.266L137.422 137.278C135.883 139.586 133.161 142.995 128.574 146.983ZM139.608 133.238C139.453 133.648 139.094 134.519 138.388 135.74C138.279 135.924 138.179 136.092 138.082 136.254L132.588 136.237L132.136 137.394L130.503 129.343L127.685 140.861L125.311 126.141L122.504 136.957H107.46C107.341 136.773 107.224 136.591 107.116 136.417C106.153 134.856 105.683 133.755 105.489 133.238C103.723 128.494 106.143 123.197 110.886 121.426C111.921 121.039 112.999 120.846 114.09 120.846C117.144 120.846 119.986 122.349 121.694 124.874L122.549 126.134L123.402 124.874C125.11 122.353 127.951 120.846 131.006 120.846C132.097 120.846 133.176 121.039 134.209 121.426C136.509 122.281 138.335 123.984 139.357 126.215C140.374 128.446 140.463 130.94 139.608 133.238Z" fill="white"/>
<defs>
<clipPath id="clip0">
<rect width="206.948" height="275.814" fill="white" transform="translate(134.476 31.3608)"/>
</clipPath>
<clipPath id="clip1">
<rect width="8.67215" height="8.6601" fill="white" transform="translate(159.424 165.128)"/>
</clipPath>
<clipPath id="clip2">
<rect width="8.67215" height="8.66011" fill="white" transform="translate(159.424 179.393)"/>
</clipPath>
<clipPath id="clip3">
<rect width="8.67215" height="8.6601" fill="white" transform="translate(159.424 194.049)"/>
</clipPath>
</defs>
</svg>
