<svg version="1.0" xmlns="http://www.w3.org/2000/svg" xmlns:xlink="http://www.w3.org/1999/xlink" viewBox="0 0 100 100" xml:space="preserve"><svg xmlns="http://www.w3.org/2000/svg" xmlns:xlink="http://www.w3.org/1999/xlink" width="100" height="100" viewBox="0 0 2000 2000" shape-rendering="crispEdges"><path fill="#fff" d="M0 0h2000v2000H0z"/><path d="M776 200h64v64h-64zM1224 200h64v64h-64zM712 264h64v64h-64zM776 264h64v64h-64zM904 264h64v64h-64zM968 264h64v64h-64zM1032 264h64v64h-64zM1096 264h64v64h-64zM776 328h64v64h-64zM840 328h64v64h-64zM904 328h64v64h-64zM1096 328h64v64h-64zM712 392h64v64h-64zM776 392h64v64h-64zM904 392h64v64h-64zM968 392h64v64h-64zM1032 392h64v64h-64zM1160 392h64v64h-64zM840 456h64v64h-64zM968 456h64v64h-64zM1160 456h64v64h-64zM1224 456h64v64h-64zM712 520h64v64h-64zM840 520h64v64h-64zM968 520h64v64h-64zM1032 520h64v64h-64zM1096 520h64v64h-64zM1160 520h64v64h-64zM1224 520h64v64h-64zM712 584h64v64h-64zM840 584h64v64h-64zM968 584h64v64h-64zM1096 584h64v64h-64zM1224 584h64v64h-64zM968 648h64v64h-64zM1096 648h64v64h-64zM1224 648h64v64h-64zM200 712h64v64h-64zM264 712h64v64h-64zM328 712h64v64h-64zM392 712h64v64h-64zM456 712h64v64h-64zM584 712h64v64h-64zM648 712h64v64h-64zM712 712h64v64h-64zM776 712h64v64h-64zM840 712h64v64h-64zM968 712h64v64h-64zM1096 712h64v64h-64zM1160 712h64v64h-64zM1224 712h64v64h-64zM1288 712h64v64h-64zM1416 712h64v64h-64zM1544 712h64v64h-64zM1672 712h64v64h-64zM200 776h64v64h-64zM264 776h64v64h-64zM456 776h64v64h-64zM712 776h64v64h-64zM776 776h64v64h-64zM1096 776h64v64h-64zM1160 776h64v64h-64zM1288 776h64v64h-64zM1416 776h64v64h-64zM1480 776h64v64h-64zM1736 776h64v64h-64zM392 840h64v64h-64zM520 840h64v64h-64zM584 840h64v64h-64zM648 840h64v64h-64zM776 840h64v64h-64zM904 840h64v64h-64zM968 840h64v64h-64zM1032 840h64v64h-64zM1288 840h64v64h-64zM1352 840h64v64h-64zM1480 840h64v64h-64zM1608 840h64v64h-64zM200 904h64v64h-64zM264 904h64v64h-64zM520 904h64v64h-64zM712 904h64v64h-64zM776 904h64v64h-64zM840 904h64v64h-64zM904 904h64v64h-64zM1032 904h64v64h-64zM1224 904h64v64h-64zM1288 904h64v64h-64zM328 968h64v64h-64zM456 968h64v64h-64zM584 968h64v64h-64zM648 968h64v64h-64zM712 968h64v64h-64zM776 968h64v64h-64zM1032 968h64v64h-64zM1096 968h64v64h-64zM1160 968h64v64h-64zM1224 968h64v64h-64zM1288 968h64v64h-64zM1352 968h64v64h-64zM1416 968h64v64h-64zM1480 968h64v64h-64zM1544 968h64v64h-64zM1672 968h64v64h-64zM1736 968h64v64h-64zM200 1032h64v64h-64zM456 1032h64v64h-64zM648 1032h64v64h-64zM712 1032h64v64h-64zM840 1032h64v64h-64zM1096 1032h64v64h-64zM1416 1032h64v64h-64zM1480 1032h64v64h-64zM200 1096h64v64h-64zM392 1096h64v64h-64zM520 1096h64v64h-64zM584 1096h64v64h-64zM712 1096h64v64h-64zM904 1096h64v64h-64zM968 1096h64v64h-64zM1032 1096h64v64h-64zM1096 1096h64v64h-64zM1288 1096h64v64h-64zM1352 1096h64v64h-64zM1480 1096h64v64h-64zM1608 1096h64v64h-64zM200 1160h64v64h-64zM328 1160h64v64h-64zM392 1160h64v64h-64zM648 1160h64v64h-64zM776 1160h64v64h-64zM840 1160h64v64h-64zM904 1160h64v64h-64zM1096 1160h64v64h-64zM1224 1160h64v64h-64zM1672 1160h64v64h-64zM1736 1160h64v64h-64zM200 1224h64v64h-64zM328 1224h64v64h-64zM392 1224h64v64h-64zM456 1224h64v64h-64zM520 1224h64v64h-64zM584 1224h64v64h-64zM648 1224h64v64h-64zM712 1224h64v64h-64zM776 1224h64v64h-64zM968 1224h64v64h-64zM1160 1224h64v64h-64zM1224 1224h64v64h-64zM1288 1224h64v64h-64zM1352 1224h64v64h-64zM1416 1224h64v64h-64zM1480 1224h64v64h-64zM1544 1224h64v64h-64zM1736 1224h64v64h-64zM712 1288h64v64h-64zM776 1288h64v64h-64zM1096 1288h64v64h-64zM1224 1288h64v64h-64zM1480 1288h64v64h-64zM1736 1288h64v64h-64zM712 1352h64v64h-64zM776 1352h64v64h-64zM840 1352h64v64h-64zM1032 1352h64v64h-64zM1096 1352h64v64h-64zM1160 1352h64v64h-64zM1224 1352h64v64h-64zM1352 1352h64v64h-64zM1480 1352h64v64h-64zM1608 1352h64v64h-64zM1672 1352h64v64h-64zM1736 1352h64v64h-64zM904 1416h64v64h-64zM1096 1416h64v64h-64zM1160 1416h64v64h-64zM1224 1416h64v64h-64zM1480 1416h64v64h-64zM1544 1416h64v64h-64zM712 1480h64v64h-64zM776 1480h64v64h-64zM968 1480h64v64h-64zM1032 1480h64v64h-64zM1160 1480h64v64h-64zM1224 1480h64v64h-64zM1288 1480h64v64h-64zM1352 1480h64v64h-64zM1416 1480h64v64h-64zM1480 1480h64v64h-64zM1544 1480h64v64h-64zM712 1544h64v64h-64zM776 1544h64v64h-64zM968 1544h64v64h-64zM1160 1544h64v64h-64zM1224 1544h64v64h-64zM1480 1544h64v64h-64zM1672 1544h64v64h-64zM1736 1544h64v64h-64zM712 1608h64v64h-64zM776 1608h64v64h-64zM904 1608h64v64h-64zM968 1608h64v64h-64zM1032 1608h64v64h-64zM1288 1608h64v64h-64zM1352 1608h64v64h-64zM1480 1608h64v64h-64zM1608 1608h64v64h-64zM1736 1608h64v64h-64zM712 1672h64v64h-64zM776 1672h64v64h-64zM840 1672h64v64h-64zM904 1672h64v64h-64zM1032 1672h64v64h-64zM1160 1672h64v64h-64zM1288 1672h64v64h-64zM1352 1672h64v64h-64zM1416 1672h64v64h-64zM1480 1672h64v64h-64zM1544 1672h64v64h-64zM1672 1672h64v64h-64zM712 1736h64v64h-64zM776 1736h64v64h-64zM968 1736h64v64h-64zM1032 1736h64v64h-64zM1096 1736h64v64h-64zM1288 1736h64v64h-64zM1608 1736h64v64h-64zM1672 1736h64v64h-64zM1736 1736h64v64h-64z"/><svg x="200" y="200" width="448" height="448" viewBox="0 0 699.988 699.986" xml:space="preserve" shape-rendering="auto"><path d="M600.99 0H1V699.986h699.988V0H600.99zm0 199.996v399.992H100.999V99.998H600.99v99.998z"/></svg><svg version="1.0" x="200" y="200" width="448" height="448" viewBox="0 0 699.988 699.988" xml:space="preserve" shape-rendering="auto"><path d="M399.994 199.997H199.998v299.994H499.99V199.997z"/></svg><svg x="1352" y="200" width="448" height="448" viewBox="0 0 699.988 699.986" xml:space="preserve" shape-rendering="auto"><path d="M600.99 0H1V699.986h699.988V0H600.99zm0 199.996v399.992H100.999V99.998H600.99v99.998z"/></svg><svg version="1.0" x="1352" y="200" width="448" height="448" viewBox="0 0 699.988 699.988" xml:space="preserve" shape-rendering="auto"><path d="M399.994 199.997H199.998v299.994H499.99V199.997z"/></svg><svg x="200" y="1352" width="448" height="448" viewBox="0 0 699.988 699.986" xml:space="preserve" shape-rendering="auto"><path d="M600.99 0H1V699.986h699.988V0H600.99zm0 199.996v399.992H100.999V99.998H600.99v99.998z"/></svg><svg version="1.0" x="200" y="1352" width="448" height="448" viewBox="0 0 699.988 699.988" xml:space="preserve" shape-rendering="auto"><path d="M399.994 199.997H199.998v299.994H499.99V199.997z"/></svg></svg></svg>