<svg xmlns="http://www.w3.org/2000/svg" width="167" height="40" fill="none"><style><![CDATA[.B{fill-rule:evenodd}]]></style><g clip-path="url(#A)"><g fill="#fff"><path d="M101.324 25.27l-.075-.31-.07-.27-.055-.215-.006-.089a.81.81 0 0 0-.028.096c-.014.056-.035.117-.048.201-.028.082-.049.171-.076.276l-.083.31-.468 1.751h1.372l-.463-1.751zm1.082 4.269l-.413-1.557h-1.765l-.42 1.557h-.972l1.682-6.094h1.171l1.682 6.094h-.965zm-4.811-5.111v5.111h-.979v-5.111h-1.51v-.982h3.998v.982h-1.51zm-4.391.842l-.077-.31-.075-.27-.049-.215c-.004-.03-.007-.059-.007-.089a.79.79 0 0 0-.026.096l-.056.201-.068.276-.084.31-.468 1.751h1.372l-.462-1.751zm1.082 4.269l-.414-1.557h-1.764l-.414 1.557h-.986l1.689-6.094h1.171l1.682 6.094h-.965zm-4.812-5.111v5.111h-.979v-5.111h-1.51v-.982h3.998v.982h-1.51zm-8.887 5.111v-6.094h.869v3.97l-.014.38-.014.38 2.042-4.73h1.096v6.094h-.869v-3.964l.014-.352.014-.38-2.035 4.696h-1.103zm-4.148-6.094h.977v2.593a.38.38 0 0 0 .18-.063 1.05 1.05 0 0 0 .187-.2 3.11 3.11 0 0 0 .22-.368l.283-.566.696-1.397h.958l-.876 1.735-.157.298-.152.298-.138.235c-.031.05-.068.097-.11.138l1.606 3.39h-1.061l-1.222-2.767c-.026.019-.054.033-.089.054a.4.4 0 0 1-.11.049.53.53 0 0 1-.11.035c-.035.007-.07.011-.105.012v2.616h-.977v-6.094zm-4.889 6.094v-6.094h.869v3.97l-.014.38-.014.38 2.033-4.73h1.103v6.094h-.869v-3.964l.007-.352.021-.38-2.033 4.696H71.55zm-1.855-5.036h-1.323l-.18 1.501-.152 1.238a6.88 6.88 0 0 1-.15.933 5.39 5.39 0 0 1-.201.679 1.6 1.6 0 0 1-.262.434.85.85 0 0 1-.332.243 1.12 1.12 0 0 1-.421.075.83.83 0 0 1-.185-.021c-.052-.006-.102-.025-.145-.054v-1.066c.024.011.049.018.075.021s.046.008.07.007a.29.29 0 0 0 .145-.042.58.58 0 0 0 .124-.164 1.79 1.79 0 0 0 .117-.333 6.23 6.23 0 0 0 .124-.546l.11-.809.131-1.107.236-2.047h3.157v6.094h-.939v-5.036zm-4.405 3.196a.8.8 0 0 0-.234-.623c-.093-.081-.202-.142-.319-.18a.91.91 0 0 0-.363-.041h-1.297v1.695h1.318a.91.91 0 0 0 .36-.043.9.9 0 0 0 .315-.18.85.85 0 0 0 .22-.629zm.993-.021a2.27 2.27 0 0 1-.117.727 1.57 1.57 0 0 1-.318.594 1.5 1.5 0 0 1-.544.396 1.8 1.8 0 0 1-.75.145h-2.461v-6.094h3.522v.982h-2.538v1.444h1.579c.246-.006.49.039.717.131a1.37 1.37 0 0 1 .503.366c.138.165.24.359.297.567a2.47 2.47 0 0 1 .11.741zm-6.363.471l-.248.636a2.2 2.2 0 0 1-.283.464 1.01 1.01 0 0 1-.358.284 1.25 1.25 0 0 1-.71.075 1.08 1.08 0 0 1-.227-.049c-.074-.025-.145-.055-.215-.089a.89.89 0 0 1-.18-.103l.269-1.066a2.4 2.4 0 0 0 .264.14.86.86 0 0 0 .276.04.64.64 0 0 0 .206-.035.52.52 0 0 0 .166-.145c.067-.08.123-.168.166-.263l.159-.401.054-.159-1.846-4.031h1.012l1.255 2.863 1.028-2.863h.951l-1.738 4.703zm-3.915 1.39v-5.036h-2.068v5.036h-.979v-6.094h3.991v6.094h-.944zm-5.763-.914a1.04 1.04 0 0 0 .475-.103 1.15 1.15 0 0 0 .353-.263 1.77 1.77 0 0 0 .248-.375 3.18 3.18 0 0 0 .159-.42l.846.42c-.066.223-.154.439-.262.644-.114.205-.256.393-.421.56a1.85 1.85 0 0 1-.592.387 1.94 1.94 0 0 1-.806.152c-.363.008-.723-.072-1.049-.235-.294-.158-.547-.384-.738-.659a3.1 3.1 0 0 1-.433-1.001 5.98 5.98 0 0 1 0-2.553c.08-.351.225-.685.428-.982a1.89 1.89 0 0 1 .723-.622c.321-.151.673-.225 1.028-.215a2.35 2.35 0 0 1 .799.124c.219.078.42.198.593.354a1.76 1.76 0 0 1 .414.532 2.68 2.68 0 0 1 .255.678l-.862.312a1.44 1.44 0 0 0-.138-.375c-.06-.121-.145-.229-.248-.317a1.19 1.19 0 0 0-.346-.229 1.32 1.32 0 0 0-.447-.082c-.215-.006-.427.046-.614.152a1.16 1.16 0 0 0-.414.429c-.118.204-.202.425-.248.657a4.71 4.71 0 0 0-.077.872c-.001.292.025.583.077.87a2.26 2.26 0 0 0 .248.679 1.25 1.25 0 0 0 .428.448 1.11 1.11 0 0 0 .621.16zm-6.716.914v-6.094h3.669v.982h-2.696v1.541h2.496v.982h-2.496v1.606h2.827v.983h-3.799zm-1.675-4.138c.021-.259-.058-.516-.22-.718a.8.8 0 0 0-.296-.196c-.112-.042-.232-.058-.351-.048H39.97v1.972h1.04a.84.84 0 0 0 .38-.075.68.68 0 0 0 .255-.201.9.9 0 0 0 .159-.326 1.52 1.52 0 0 0 .047-.408zm.986-.026c.001.257-.034.513-.103.76a1.75 1.75 0 0 1-.311.643 1.44 1.44 0 0 1-.531.45 1.64 1.64 0 0 1-.757.166H39.97v2.145h-.979v-6.094h2.103a1.85 1.85 0 0 1 .771.145c.212.083.399.219.545.394a1.68 1.68 0 0 1 .325.608 2.87 2.87 0 0 1 .103.782zm115.284-5.859v-6.094h.87v3.54l-.007.429-.014.382-.014.38 2.04-4.731h1.096v6.094h-.868v-3.963l.013-.354.014-.38-2.027 4.696h-1.103zm-1.902 0v-2.614h-2.026v2.614h-.979v-6.094h.979v2.427h2.026v-2.427h.979v6.094h-.979zm-7.534 0v-6.094h3.667v.989h-2.697v1.536h2.496v.982h-2.496v1.604h2.828v.982h-3.798zm-1.897 0v-2.614h-2.033v2.614h-.979v-6.094h.979v2.427h2.033v-2.427h.972v6.094h-.972zm-5.707-4.267l-.084-.312-.068-.277-.049-.2-.014-.098c0 .007-.014.042-.028.098l-.047.2-.077.27-.544 2.068h1.372l-.461-1.749zm1.075 4.267l-.407-1.564h-1.771l-.414 1.564h-.979l1.683-6.093h1.171l1.682 6.093h-.965zm-4.225-4.143a1.04 1.04 0 0 0-.222-.713.81.81 0 0 0-.654-.242h-1.007v1.972h1.042a.98.98 0 0 0 .371-.07.76.76 0 0 0 .262-.207.96.96 0 0 0 .152-.326 1.57 1.57 0 0 0 .056-.415zm.984-.021a2.76 2.76 0 0 1-.103.762 2.07 2.07 0 0 1-.311.65 1.57 1.57 0 0 1-1.295.609h-1.158v2.143h-.979v-6.093h2.096c.266-.006.531.043.778.145a1.38 1.38 0 0 1 .544.394 1.75 1.75 0 0 1 .325.609 2.75 2.75 0 0 1 .103.781zm-5.391 4.164l-1.178-2.427-1.171 2.427h-1.035l1.62-3.203-1.482-2.891h1.035l1.033 2.152 1.04-2.152h1.007l-1.414 2.863 1.573 3.231h-1.028zm-4.412-3.071a4.17 4.17 0 0 0-.089-.87 2.21 2.21 0 0 0-.262-.665 1.29 1.29 0 0 0-.427-.429 1.16 1.16 0 0 0-.587-.145 1.18 1.18 0 0 0-.598.145 1.35 1.35 0 0 0-.428.429c-.126.204-.214.43-.262.665a4.17 4.17 0 0 0-.083.87c-.003.293.025.585.083.872a2.23 2.23 0 0 0 .262.678c.106.181.252.335.428.45a1.14 1.14 0 0 0 .598.159 1.18 1.18 0 0 0 .615-.159 1.26 1.26 0 0 0 .42-.457c.124-.209.21-.439.255-.678a4.82 4.82 0 0 0 .075-.865zm1 0c.006.437-.05.873-.166 1.294a2.94 2.94 0 0 1-.468 1.003c-.193.267-.446.485-.738.636a2.14 2.14 0 0 1-.993.228 2.21 2.21 0 0 1-1.033-.234 2.15 2.15 0 0 1-.731-.657 3.01 3.01 0 0 1-.449-1.003 5.29 5.29 0 0 1-.145-1.266 4.93 4.93 0 0 1 .152-1.285 2.8 2.8 0 0 1 .456-.975c.192-.269.448-.486.745-.63a2.22 2.22 0 0 1 1.005-.221 2.27 2.27 0 0 1 1.014.221c.291.151.544.366.738.63a2.87 2.87 0 0 1 .454.981 4.81 4.81 0 0 1 .159 1.28zm-6.286 0a4.17 4.17 0 0 0-.091-.87 2.15 2.15 0 0 0-.262-.665 1.29 1.29 0 0 0-.427-.429 1.29 1.29 0 0 0-1.186 0 1.35 1.35 0 0 0-.427.429c-.125.205-.214.43-.262.665-.058.286-.085.578-.082.87a4.25 4.25 0 0 0 .082.872 2.29 2.29 0 0 0 .262.678 1.28 1.28 0 0 0 .427.45 1.22 1.22 0 0 0 1.206 0 1.23 1.23 0 0 0 .428-.457c.119-.211.203-.44.248-.677a4.19 4.19 0 0 0 .084-.865zm1 0a4.71 4.71 0 0 1-.166 1.294 3.05 3.05 0 0 1-.463 1.003 2.14 2.14 0 0 1-.75.636c-.308.156-.649.234-.993.228a2.05 2.05 0 0 1-.997-.218 2.06 2.06 0 0 1-.768-.673c-.206-.305-.355-.645-.441-1.003a5.14 5.14 0 0 1-.145-1.266 4.84 4.84 0 0 1 .152-1.285 2.76 2.76 0 0 1 .454-.975c.191-.267.444-.484.738-.63a2.42 2.42 0 0 1 2.019 0 2.11 2.11 0 0 1 .745.63 2.88 2.88 0 0 1 .456.98c.109.418.162.848.159 1.28zm-6.095 1.231c.006-.137-.018-.274-.069-.401-.046-.102-.114-.192-.199-.263s-.194-.119-.304-.145c-.119-.029-.242-.043-.365-.042h-1.241v1.744h1.281a1.43 1.43 0 0 0 .353-.042.73.73 0 0 0 .29-.145c.086-.07.15-.164.185-.27.051-.139.075-.288.069-.436zm-.268-2.544c.01-.107-.003-.214-.038-.316a.75.75 0 0 0-.163-.273.91.91 0 0 0-.599-.173h-1.11v1.515h1.122a.81.81 0 0 0 .594-.186.75.75 0 0 0 .194-.567zm1.254 2.649a1.85 1.85 0 0 1-.144.788c-.083.209-.216.394-.386.539a1.59 1.59 0 0 1-.58.312 2.51 2.51 0 0 1-.689.096h-2.344v-6.093h2.143c.247-.002.493.031.732.096.199.051.385.146.544.277a1.2 1.2 0 0 1 .337.485 1.82 1.82 0 0 1 .112.678 1.69 1.69 0 0 1-.215.879 1.18 1.18 0 0 1-.668.483c.335.036.643.199.862.457.209.291.314.645.296 1.003zm-6.839-2.532l-.075-.312-.077-.277-.054-.2c0-.033-.003-.066-.007-.098a.82.82 0 0 1-.021.098l-.056.2-.068.27-.091.312-.468 1.756h1.379l-.462-1.749zm1.075 4.267l-.407-1.564h-1.764l-.421 1.564h-.979l1.689-6.093h1.173l1.674 6.093h-.965zm-4.225-4.143c.019-.256-.057-.51-.213-.713a.83.83 0 0 0-.663-.242h-1.006v1.972h1.04a.98.98 0 0 0 .372-.07.71.71 0 0 0 .264-.207.83.83 0 0 0 .15-.326 1.57 1.57 0 0 0 .056-.415zm.986-.021a2.84 2.84 0 0 1-.103.762 2.12 2.12 0 0 1-.311.65 1.6 1.6 0 0 1-.531.443 1.67 1.67 0 0 1-.766.166h-1.157v2.143h-.979v-6.093h2.096a1.92 1.92 0 0 1 .778.145 1.41 1.41 0 0 1 .545.394 1.79 1.79 0 0 1 .325.609 3.12 3.12 0 0 1 .103.781zm-5.985 3.113v-3.992h-.867l-.105 1.018-.103.781-.131.811-.166.753-.185.63h1.557zm.944 0h.615v2.807h-.827v-1.756h-2.999v1.756h-.834v-2.807h.517l.219-.616.194-.748.173-.842.124-.914.199-1.923h2.619v5.043zm-6.237 1.14c-.253.004-.505-.035-.745-.117a1.53 1.53 0 0 1-.552-.324 1.98 1.98 0 0 1-.4-.52c-.117-.23-.209-.471-.276-.72l.876-.401c.044.149.099.295.164.436a1.63 1.63 0 0 0 .229.347.91.91 0 0 0 .304.235c.125.057.262.086.4.082a.83.83 0 0 0 .345-.05.84.84 0 0 0 .295-.185.87.87 0 0 0 .18-.302c.039-.112.055-.23.047-.348a.75.75 0 0 0-.054-.35.76.76 0 0 0-.207-.287 1.45 1.45 0 0 0-.828-.186h-.185v-.989h.185a1.05 1.05 0 0 0 .738-.208c.086-.08.153-.179.195-.29a.77.77 0 0 0 .046-.346.8.8 0 0 0-.042-.322.81.81 0 0 0-.164-.28.74.74 0 0 0-.257-.163.73.73 0 0 0-.301-.044.77.77 0 0 0-.635.326 1.42 1.42 0 0 0-.192.338 2.3 2.3 0 0 0-.131.401l-.883-.263a3.79 3.79 0 0 1 .255-.72 2.19 2.19 0 0 1 .386-.546 1.41 1.41 0 0 1 .525-.345 1.77 1.77 0 0 1 .696-.131 1.95 1.95 0 0 1 .689.117c.197.07.379.176.538.312a1.5 1.5 0 0 1 .344.504c.08.21.119.432.117.657a1.82 1.82 0 0 1-.069.54 1.36 1.36 0 0 1-.186.422 1.28 1.28 0 0 1-.29.298 1.32 1.32 0 0 1-.386.194 1.34 1.34 0 0 1 .414.145c.127.073.24.169.332.284a1.57 1.57 0 0 1 .226.422 1.92 1.92 0 0 1 .077.558 2.04 2.04 0 0 1-.125.734 1.6 1.6 0 0 1-.351.574 1.65 1.65 0 0 1-.58.373c-.243.095-.503.142-.764.138zm-5.295-3.16c.002-.292-.025-.584-.082-.87-.051-.234-.14-.459-.262-.665a1.3 1.3 0 0 0-.428-.429 1.16 1.16 0 0 0-.586-.145 1.18 1.18 0 0 0-.6.145 1.41 1.41 0 0 0-.435.429 2.25 2.25 0 0 0-.255.665 3.83 3.83 0 0 0-.082.87 3.87 3.87 0 0 0 .082.872c.05.239.139.467.262.678a1.25 1.25 0 0 0 .428.45c.18.106.385.161.593.159a1.21 1.21 0 0 0 .621-.159 1.34 1.34 0 0 0 .419-.457 2.23 2.23 0 0 0 .249-.678c.054-.285.079-.575.075-.865zm1.007 0c.004.436-.05.872-.159 1.294a3.2 3.2 0 0 1-.476 1.003 2.05 2.05 0 0 1-.744.636 2.14 2.14 0 0 1-.993.228 2.19 2.19 0 0 1-1.028-.235 2.17 2.17 0 0 1-.736-.657 3.08 3.08 0 0 1-.442-1.003 4.96 4.96 0 0 1-.152-1.266 5.2 5.2 0 0 1 .152-1.285 2.88 2.88 0 0 1 .462-.975 2 2 0 0 1 .737-.63 2.28 2.28 0 0 1 1.014-.221 2.25 2.25 0 0 1 1.007.221c.294.148.549.364.744.63a2.84 2.84 0 0 1 .455.981 4.89 4.89 0 0 1 .159 1.28zm-6.094 1.231c.003-.137-.022-.274-.075-.401-.039-.106-.109-.197-.201-.263a.73.73 0 0 0-.29-.145 1.61 1.61 0 0 0-.379-.042h-1.234v1.744h1.276a1.44 1.44 0 0 0 .358-.042.72.72 0 0 0 .29-.145c.082-.075.146-.167.187-.27a1.18 1.18 0 0 0 .068-.436zm-.276-2.544a.73.73 0 0 0-.201-.588.89.89 0 0 0-.591-.173h-1.11v1.515h1.117a.82.82 0 0 0 .599-.186.78.78 0 0 0 .187-.567zm1.262 2.649a1.95 1.95 0 0 1-.145.788c-.087.207-.219.391-.386.539a1.59 1.59 0 0 1-.579.312 2.56 2.56 0 0 1-.696.096h-2.337v-6.093h2.136c.249-.002.498.03.738.096.199.053.384.147.544.277.151.131.267.298.339.485a1.85 1.85 0 0 1 .11.678 1.68 1.68 0 0 1-.215.879 1.16 1.16 0 0 1-.675.483 1.31 1.31 0 0 1 .869.457 1.58 1.58 0 0 1 .297 1.003zm-6.19-3.369v5.104h-.979v-5.104h-1.51v-.989h3.998v.989h-1.51zm-4.62 4.192a1.02 1.02 0 0 0 .476-.105 1.19 1.19 0 0 0 .351-.263c.1-.109.182-.238.248-.373s.117-.277.159-.422l.855.422c-.073.221-.163.436-.269.643a2.53 2.53 0 0 1-.421.56c-.172.165-.374.296-.593.387a2.02 2.02 0 0 1-.806.152 2.25 2.25 0 0 1-1.047-.235c-.294-.157-.547-.382-.738-.657a3.17 3.17 0 0 1-.435-1.003 5.97 5.97 0 0 1 0-2.551 2.78 2.78 0 0 1 .428-.975 1.93 1.93 0 0 1 .724-.63 2.29 2.29 0 0 1 1.028-.221 2.32 2.32 0 0 1 .799.131 1.73 1.73 0 0 1 .592.352 1.87 1.87 0 0 1 .414.532 2.65 2.65 0 0 1 .257.678l-.862.312a1.26 1.26 0 0 0-.145-.373 1.03 1.03 0 0 0-.241-.326 1.19 1.19 0 0 0-.346-.221 1.14 1.14 0 0 0-.448-.084 1.2 1.2 0 0 0-.606.145 1.27 1.27 0 0 0-.421.429 2.2 2.2 0 0 0-.248.665 4.7 4.7 0 0 0-.077.87c.001.292.025.584.077.872a2.22 2.22 0 0 0 .248.678 1.22 1.22 0 0 0 .428.45 1.16 1.16 0 0 0 .62.159zm-3.653-3.23c.019-.256-.057-.51-.215-.713a.82.82 0 0 0-.654-.242h-1.014v1.972h1.042a.99.99 0 0 0 .379-.07c.101-.049.191-.119.262-.207a.95.95 0 0 0 .152-.326c.035-.135.052-.275.049-.415zm.986-.021a2.75 2.75 0 0 1-.098.762 2.09 2.09 0 0 1-.309.65 1.69 1.69 0 0 1-.539.443c-.235.116-.495.173-.757.166h-1.166v2.143h-.972v-6.093h2.096a1.95 1.95 0 0 1 .78.145 1.42 1.42 0 0 1 .544.394c.147.178.255.386.316.609a2.75 2.75 0 0 1 .105.781zm-8.377 4.164v-6.094h3.675v.989h-2.696v1.536h2.496v.982h-2.496v1.604h2.827v.982h-3.806zm-2.047-5.104v5.104h-.979v-5.104h-1.503v-.989h3.991v.989h-1.51zm-4.618 4.192a.99.99 0 0 0 .475-.105 1.13 1.13 0 0 0 .353-.263 1.56 1.56 0 0 0 .248-.373 3.32 3.32 0 0 0 .159-.422l.848.422a4.07 4.07 0 0 1-.262.643 2.42 2.42 0 0 1-.414.56 2.06 2.06 0 0 1-.593.387 2.09 2.09 0 0 1-.813.152 2.26 2.26 0 0 1-1.049-.235 2.09 2.09 0 0 1-.736-.657 2.8 2.8 0 0 1-.435-1.003 5.97 5.97 0 0 1 0-2.551 2.6 2.6 0 0 1 .428-.975 1.92 1.92 0 0 1 .722-.63c.576-.259 1.229-.291 1.827-.089a1.67 1.67 0 0 1 .593.352 1.87 1.87 0 0 1 .414.532 3.02 3.02 0 0 1 .262.678l-.862.312a1.66 1.66 0 0 0-.145-.373 1.22 1.22 0 0 0-.248-.326c-.102-.093-.216-.17-.344-.221-.14-.058-.29-.087-.441-.084a1.26 1.26 0 0 0-.621.145 1.35 1.35 0 0 0-.414.429 2.05 2.05 0 0 0-.241.665c-.058.286-.085.578-.082.87-.003.293.024.585.082.872a2.09 2.09 0 0 0 .241.678 1.15 1.15 0 0 0 .437.456 1.14 1.14 0 0 0 .611.154zm-7.073.912v-6.093h.869v3.97l-.014.382-.014.38 2.033-4.731h1.103v6.094h-.869v-3.963l.014-.354.014-.38-2.026 4.696h-1.11zm-1.895 0v-2.614h-2.028v2.614h-.977v-6.094h.977v2.427h2.028v-2.427h.979v6.094h-.979zm-7.894 0v-6.093h.869v3.54l-.007.429-.014.382-.014.38 2.04-4.731h1.096v6.094h-.867v-3.963l.012-.354.014-.38-2.026 4.696h-1.103zm-1.785 0v-4.15l.014-.422.014-.45-.138.651s-.014.089-.056.263l-.054.27-.056.242-.042.201-.834 3.395h-.703l-.813-3.395-.047-.194-.049-.242-.068-.263-.063-.27-.152-.645.021.492.014.434v4.082h-.869v-6.093h1.325l.806 3.409.075.34.084.366.103.436.014-.45.014-.186.04-.187a1.43 1.43 0 0 0 .035-.166l.042-.152.813-3.409h1.4v6.094h-.869zm81.722 10.023v-2.614h-2.035v2.614h-.977v-6.093h.977v2.427h2.035v-2.427h.972v6.093h-.972zm-5.709-4.267l-.082-.312a2.63 2.63 0 0 0-.069-.277l-.055-.207a.55.55 0 0 0-.007-.091.33.33 0 0 1-.028.091 2.09 2.09 0 0 1-.048.207l-.076.27-.083.312-.461 1.756h1.372l-.463-1.749zm1.075 4.267l-.406-1.564h-1.772l-.413 1.564h-.979l1.682-6.093h1.171l1.683 6.093h-.966zm-4.804-5.111v5.111h-.979v-5.111h-1.51v-.982h3.991v.982h-1.502zm-4.625 4.199a1.05 1.05 0 0 0 .482-.105 1.11 1.11 0 0 0 .345-.263 1.56 1.56 0 0 0 .248-.373 3.5 3.5 0 0 0 .159-.422l.848.422c-.064.223-.153.439-.264.643a2.29 2.29 0 0 1-.413.553c-.171.167-.372.301-.592.394a2.07 2.07 0 0 1-.813.152 2.28 2.28 0 0 1-1.049-.235 2.05 2.05 0 0 1-.737-.664c-.204-.302-.352-.64-.434-.996-.184-.841-.184-1.712 0-2.553a2.99 2.99 0 0 1 .427-.982 1.97 1.97 0 0 1 .723-.622 2.3 2.3 0 0 1 1.028-.221 2.19 2.19 0 0 1 .806.131 1.72 1.72 0 0 1 .594.345 2.26 2.26 0 0 1 .413.532 3.4 3.4 0 0 1 .255.685l-.862.312a1.61 1.61 0 0 0-.145-.38 1.33 1.33 0 0 0-.241-.319 1.13 1.13 0 0 0-.792-.305 1.19 1.19 0 0 0-.622.152 1.18 1.18 0 0 0-.413.429 2.14 2.14 0 0 0-.241.657c-.058.287-.086.579-.082.872-.003.293.024.585.082.872.045.237.126.466.241.678a1.27 1.27 0 0 0 .427.45 1.19 1.19 0 0 0 .622.159zm-3.648-3.231c.021-.257-.058-.512-.22-.713-.084-.087-.187-.154-.3-.197a.83.83 0 0 0-.356-.051h-1.005v1.979h1.04a.87.87 0 0 0 .373-.077c.103-.047.192-.118.262-.207s.125-.203.152-.319c.036-.135.054-.275.054-.415zm.986-.021a2.79 2.79 0 0 1-.103.76 1.97 1.97 0 0 1-.31.651 1.54 1.54 0 0 1-.574.464 1.53 1.53 0 0 1-.723.143h-1.157v2.145h-.979v-6.093h2.103a1.88 1.88 0 0 1 .771.145 1.37 1.37 0 0 1 .545.394 1.72 1.72 0 0 1 .324.609c.071.254.106.517.103.781z"/><path d="M167 13.423v6.094h-.986v-2.309h-1.152l-1.096 2.31h-1.096l1.227-2.586c-.146-.045-.282-.118-.4-.215a1.25 1.25 0 0 1-.316-.366c-.091-.154-.161-.319-.207-.492a2.45 2.45 0 0 1-.075-.615c-.005-.256.032-.511.11-.755.067-.214.18-.41.331-.574s.338-.283.545-.359c.246-.093.508-.137.771-.131H167zm-3.058 2.242a1.24 1.24 0 0 1-.049-.373c-.017-.118-.006-.238.031-.351s.1-.216.184-.3a.76.76 0 0 1 .298-.187c.112-.038.232-.05.349-.034h1.262v1.791h-1.283c-.128.002-.257-.018-.378-.061a.72.72 0 0 1-.262-.194.89.89 0 0 1-.152-.291z" class="B"/><path d="M3.5 34.5l-1.5-2L3 31l6.5-3.5c.4 0 .833-1.333 1-2l-1-7 1-9.5 1-1L13 7l2.5-1v2l.5 13 12-8 .5 12.5-8 4.5 8 7.5-3 1H22h-1l-6.5-6-11 2z"/></g><g class="B"><g fill="#dd1d14"><path d="M5.555 12.244l5.804-4.26c-.45 8.146-.133 15.289 2.464 19.437a59.12 59.12 0 0 1-11.603 5.52L0 30.002a61.88 61.88 0 0 0 8.521-4.921 39.77 39.77 0 0 1-2.966-12.838zm23.208 9.478l-.058 5.879a30.56 30.56 0 0 1-6.365 3.456A36.7 36.7 0 0 0 30 37.14l-4.319 1.378c-3.949-2.312-7.188-5.604-9.383-9.535 4.36-2.074 8.53-4.503 12.465-7.261"/></g><path d="M18.021 31.643l-.143-.195c.196-.344.492-.626.851-.809a3.85 3.85 0 0 0-.708 1.003" fill="#a11a18"/><path d="M14.794 29.568c2.448 3.631 5.669 6.712 9.447 9.038L20.619 39a21.94 21.94 0 0 1-6.365-5.162 55.13 55.13 0 0 1-9.505 2.345c-.677-.742-1.401-1.689-2.077-2.432 4.147-1.084 8.2-2.483 12.121-4.183" fill="#1a8acb"/><path d="M13.305 6.836L22.841 0c-3.464 5.658-5.401 12.07-5.63 18.644 1.751-.809 6.016-5.002 10.419-9.387a57.3 57.3 0 0 1 .762 8.5 109.85 109.85 0 0 1-13.232 9.017c-2.093-3.482-3.028-9.309-1.855-19.939z" fill="#008e39"/><g fill="#2da63a"><path d="M25.398 20.065l-.497.364a1.57 1.57 0 0 0-.1-.795c-.122-.123-.186-.137-.306-.092a.56.56 0 0 1-.278.241c-.118.047-.249.055-.372.021a.62.62 0 0 1-.304-.317.59.59 0 0 1-.013-.432.62.62 0 0 1 .284-.334.65.65 0 0 1 .44-.07.53.53 0 0 1 .237.17.5.5 0 0 1 .107.266c.126.097.206.071.28.009a1.36 1.36 0 0 1 .196-.871c.162-.262.409-.464.702-.577a2.39 2.39 0 0 0-.386 1.679 1.8 1.8 0 0 1 .011.737m-2.146 1.543l-2.004 1.368a2.26 2.26 0 0 1 1.068-1.209c.528-.3.925-.777 1.115-1.34a1.49 1.49 0 0 1 .034.609 1.5 1.5 0 0 1-.214.573zm-3.604 2.413l-.021.016a.66.66 0 0 1-.258.087c-.031.034-.053.074-.064.118l-.988.625a2.64 2.64 0 0 1-1.423-.845c.645.2 1.105.548 1.914.287.127-.118.143-.179.095-.302a.54.54 0 0 1-.239-.275.52.52 0 0 1-.004-.36.55.55 0 0 1 .133-.182.59.59 0 0 1 .195-.118.6.6 0 0 1 .45.014.59.59 0 0 1 .348.277.56.56 0 0 1 .048.434c-.035.093-.099.172-.185.226m-6.198-1.76l-.206-1.05c.004-.011.006-.023.005-.035l-.016-.041-.048-.302a.47.47 0 0 1 .053-.184c.03-.057.072-.108.122-.149a.65.65 0 0 1 .434-.083.64.64 0 0 1 .385.212c.098.113.151.256.149.404s-.059.289-.16.4a.55.55 0 0 1-.565.066c-.149.057-.165.134-.149.231.284.129.518.345.664.613s.199.577.149.877c-.215-.362-.492-.686-.819-.958"/><path d="M18.191 18.039l.106-.076a2.56 2.56 0 0 1 1.109.175 2.49 2.49 0 0 1 .916.629 2.55 2.55 0 0 0 1.581.788 1.49 1.49 0 0 1-.906.152c-.311-.046-.598-.189-.818-.407-.095.019-.163.056-.169.215a.52.52 0 0 1 .139.252.51.51 0 0 1-.017.285.63.63 0 0 1-.337.284c-.144.052-.303.051-.447-.002s-.263-.155-.334-.287-.091-.285-.056-.429a.55.55 0 0 1 .254-.265.58.58 0 0 1 .37-.052c.117-.062.147-.123.127-.288-.403-.67-.937-.747-1.518-.972"/><path d="M17.259 17.299l-.048 1.347c.162-.078.319-.166.471-.262.054.072.083.158.084.246-.013.148-.082.286-.193.389a.64.64 0 0 1-.41.169.65.65 0 0 1-.424-.135.61.61 0 0 1-.226-.372c0-.124.043-.244.123-.341s.191-.165.316-.192c.084-.102.084-.165.005-.312-.688-.497-1.233-.307-1.914-.312.327-.198.697-.322 1.081-.361s.772.007 1.134.135zm-4.316 1.533l-.032-.41a1.63 1.63 0 0 0 .724-.134c.122-.122.138-.184.08-.307a.54.54 0 0 1-.258-.257.52.52 0 0 1-.033-.357.57.57 0 0 1 .12-.19.59.59 0 0 1 .186-.131.61.61 0 0 1 .223-.052c.077-.003.154.009.227.035.152.035.284.127.367.255a.56.56 0 0 1 .077.431.52.52 0 0 1-.164.237.54.54 0 0 1-.269.116c-.019.017-.035.039-.045.063s-.015.049-.015.075.007.051.018.074.027.044.047.061c.311-.046.629.009.904.156a1.4 1.4 0 0 1 .619.658c-.523-.307-1.144-.417-1.745-.307a2.01 2.01 0 0 1-1.03-.016m5.629-9.046l-.158.554a1.29 1.29 0 0 0-.222-.062c-.17.036-.217.077-.244.205.06.109.081.235.058.357a.54.54 0 0 1-.185.314.59.59 0 0 1-.21.088.6.6 0 0 1-.229.003.59.59 0 0 1-.212-.083.57.57 0 0 1-.162-.156.56.56 0 0 1 .036-.804c.08-.058.176-.094.276-.103s.201.009.29.052a.19.19 0 0 0 .073-.027c.022-.014.042-.032.057-.053s.025-.045.03-.07a.18.18 0 0 0-.001-.076 1.42 1.42 0 0 1-.65-.631 1.36 1.36 0 0 1-.122-.884c.349.531.629 1.019 1.247 1.224a1.87 1.87 0 0 1 .328.153m.793-2.424l-.163.456a3.61 3.61 0 0 0-1.528-.354 2.72 2.72 0 0 1 1.692-.102m-1.574-3.746l.228-.163a1.97 1.97 0 0 0 1.242-.375 2.51 2.51 0 0 1 1.006-.38 2.54 2.54 0 0 1 1.077.073l-.074.149a2.11 2.11 0 0 0-.796.128c-.254.093-.486.234-.684.415-.058.158-.047.224.053.311a.57.57 0 0 1 .34.144.54.54 0 0 1 .173.318.6.6 0 0 1-.165.4.64.64 0 0 1-.827.085.61.61 0 0 1-.249-.357.5.5 0 0 1 .057-.28.53.53 0 0 1 .202-.208c.01-.024.015-.049.014-.075s-.007-.051-.017-.074-.027-.044-.046-.062-.042-.031-.067-.039a1.37 1.37 0 0 1-1.464-.011m-3.188 2.292l.111-.082c-.159.625-.466 1.09-.138 1.843.127.118.19.128.312.071a.56.56 0 0 1 .266-.249.58.58 0 0 1 .368-.037c.14.061.253.169.317.304a.6.6 0 0 1 .033.431.62.62 0 0 1-.267.346.65.65 0 0 1-.436.091.54.54 0 0 1-.244-.159c-.065-.074-.107-.164-.122-.259-.127-.092-.201-.062-.274.005a1.36 1.36 0 0 1-.158.877c-.15.268-.386.481-.672.607.311-.51.42-1.112.306-1.694a2.33 2.33 0 0 1 .041-1.116 2.39 2.39 0 0 1 .556-.979m1.286-.923l1-.722a.56.56 0 0 1 0 .604c.009.128.058.174.221.226.846-.108 1.105-.614 1.597-1.071-.097.393-.294.756-.574 1.055s-.633.525-1.028.656c-.575.202-1.055.599-1.353 1.116-.032-.303.039-.609.202-.869s.41-.463.703-.575c.021-.097.011-.174-.133-.236-.094.035-.195.045-.294.028s-.191-.06-.266-.125a.41.41 0 0 1-.074-.087m10.686 8.361c.14.066.248.182.301.323a.56.56 0 0 1-.016.435c-.022.072-.059.138-.108.196a.58.58 0 0 1-.178.141.6.6 0 0 1-.22.064.61.61 0 0 1-.229-.023.56.56 0 0 1-.273-.246.53.53 0 0 1-.055-.358c-.063-.113-.122-.144-.296-.123-.74.41-.778.972-1.052 1.578-.066-.399-.027-.808.113-1.188a2.39 2.39 0 0 1 .691-.988 2.41 2.41 0 0 0 .814-1.531 1.36 1.36 0 0 1 .159.878 1.38 1.38 0 0 1-.424.791c.016.092.059.163.217.169a.54.54 0 0 1 .26-.137.55.55 0 0 1 .295.019m-1.791 2.303a.65.65 0 0 1 .436.086.62.62 0 0 1 .272.341.6.6 0 0 1-.025.431c-.061.136-.171.246-.309.31a.59.59 0 0 1-.369-.033c-.116-.05-.211-.136-.271-.244-.126-.05-.185-.04-.312.078-.312.768.016 1.239.191 1.873a2.4 2.4 0 0 1-.673-1 2.33 2.33 0 0 1-.093-1.191 2.4 2.4 0 0 0-.344-1.69 1.43 1.43 0 0 1 .684.593c.155.264.218.57.178.872a.19.19 0 0 0 .062.046c.024.011.05.017.076.017s.053-.004.077-.014.046-.025.064-.044a.51.51 0 0 1 .114-.264.54.54 0 0 1 .241-.166m-11.593-1.591c-.137-.068-.245-.181-.302-.32a.6.6 0 0 1-.01-.433.62.62 0 0 1 .287-.332.66.66 0 0 1 .442-.067c.118.047.216.131.278.239a.54.54 0 0 1 .066.355c.063.118.127.139.296.118.729-.434.751-.998 1.009-1.607.076.397.048.806-.081 1.19s-.356.73-.659 1.007c-.444.411-.718.963-.771 1.556a1.37 1.37 0 0 1-.182-.875 1.39 1.39 0 0 1 .398-.804c-.016-.092-.064-.159-.222-.165-.069.071-.157.122-.254.147a.54.54 0 0 1-.296-.008"/><path d="M14.505 11.516a.66.66 0 0 1-.436-.091.62.62 0 0 1-.267-.346.6.6 0 0 1 .032-.431.63.63 0 0 1 .316-.305c.125-.029.256-.015.373.038a.56.56 0 0 1 .267.254c.122.05.186.04.312-.078.328-.762.011-1.234-.147-1.873.3.279.523.627.649 1.012a2.34 2.34 0 0 1 .07 1.189 2.39 2.39 0 0 0 .306 1.701c-.287-.126-.523-.339-.673-.608a1.36 1.36 0 0 1-.157-.878c-.017-.02-.039-.035-.062-.046a.18.18 0 0 0-.076-.017c-.026 0-.053.004-.077.014s-.046.025-.064.044a.51.51 0 0 1-.121.261.54.54 0 0 1-.245.159m2.013 12.692c-.066.134-.18.239-.321.298s-.298.066-.444.02a.63.63 0 0 1-.348-.268.6.6 0 0 1-.081-.424.56.56 0 0 1 .239-.277.59.59 0 0 1 .365-.076c.116-.061.142-.123.111-.287-.466-.696-1.048-.701-1.682-.937a2.55 2.55 0 0 1 1.23.047 2.5 2.5 0 0 1 1.055.614 2.56 2.56 0 0 0 1.618.707 1.48 1.48 0 0 1-.896.199 1.47 1.47 0 0 1-.839-.364c-.095.016-.159.062-.159.215.074.066.128.151.155.245a.51.51 0 0 1-.001.288m1.988-3.037c.206.052.349.184.323.302-.032.113-.222.163-.434.113-.206-.05-.349-.184-.317-.302s.222-.163.428-.113zm-1.941-.535c.206.05.349.184.317.302s-.222.163-.428.113-.349-.184-.323-.302c.032-.113.222-.163.434-.113z"/><path d="M17.476 20.779a.35.35 0 0 1 .24.099.33.33 0 0 1 .099.234c0 .088-.035.171-.099.234a.35.35 0 0 1-.24.099.35.35 0 0 1-.242-.098c-.064-.062-.1-.147-.1-.235a.33.33 0 0 1 .1-.235.35.35 0 0 1 .242-.098m10.071-6.025c.052-.205.195-.338.312-.312.122.031.169.22.116.42-.059.205-.195.338-.317.312-.116-.031-.165-.22-.111-.42z"/><path d="M26.98 16.634c.052-.2.195-.338.312-.307s.169.215.117.415c-.059.205-.195.344-.317.313-.111-.031-.169-.22-.111-.42m.156-.881a.32.32 0 0 1 .059-.183.34.34 0 0 1 .154-.121.35.35 0 0 1 .197-.017.34.34 0 0 1 .174.092c.047.047.079.106.092.17a.32.32 0 0 1-.021.191.33.33 0 0 1-.127.147.35.35 0 0 1-.19.054c-.045 0-.089-.009-.131-.026a.34.34 0 0 1-.11-.072c-.032-.031-.056-.068-.073-.108a.31.31 0 0 1-.024-.127m-11.031-.535a.35.35 0 0 1 .191.057.34.34 0 0 1 .126.15.32.32 0 0 1 .018.193.33.33 0 0 1-.095.17.35.35 0 0 1-.177.09c-.067.012-.136.005-.199-.021a.34.34 0 0 1-.153-.124c-.037-.055-.056-.12-.056-.186a.33.33 0 0 1 .102-.233.35.35 0 0 1 .242-.095"/><path d="M15.969 14.557a.35.35 0 0 1 .243.097c.064.062.1.147.1.235s-.036.173-.1.235a.35.35 0 0 1-.243.097.35.35 0 0 1-.24-.099.33.33 0 0 1-.099-.234c0-.088.035-.171.099-.233a.35.35 0 0 1 .24-.099zm-.483.997a.35.35 0 0 1 .242.098c.064.062.1.147.1.235a.33.33 0 0 1-.1.235.35.35 0 0 1-.242.098.35.35 0 0 1-.24-.099.33.33 0 0 1-.099-.234c0-.088.035-.171.099-.234a.35.35 0 0 1 .24-.099m1.045.175a.35.35 0 0 1 .243.098.33.33 0 0 1 .101.236c0 .089-.036.173-.101.236a.35.35 0 0 1-.243.098.35.35 0 0 1-.24-.099.33.33 0 0 1-.099-.234.33.33 0 0 1 .099-.234.35.35 0 0 1 .24-.099m5.016 1.361a.32.32 0 0 1 .01-.13c.012-.042.033-.081.061-.116a.33.33 0 0 1 .102-.084c.039-.021.083-.034.128-.039a.35.35 0 0 1 .252.069c.035.027.065.061.087.099a.32.32 0 0 1 .041.123c.005.043.002.087-.011.129s-.033.081-.061.115a.34.34 0 0 1-.102.084.35.35 0 0 1-.127.04.35.35 0 0 1-.134-.009.34.34 0 0 1-.12-.059.33.33 0 0 1-.087-.1.31.31 0 0 1-.039-.124"/><path d="M20.888 17.299a.32.32 0 0 1 .072-.243c.028-.034.062-.062.101-.084a.35.35 0 0 1 .127-.04c.044-.005.089-.002.133.01s.083.032.118.059.064.06.086.098a.32.32 0 0 1 .041.123.33.33 0 0 1-.073.247c-.056.07-.139.115-.23.127a.35.35 0 0 1-.251-.073.33.33 0 0 1-.124-.224m1.071.353c-.007-.065.005-.13.036-.188s.079-.105.138-.137a.35.35 0 0 1 .377.03.33.33 0 0 1 .113.157.32.32 0 0 1 .004.191.33.33 0 0 1-.106.161.35.35 0 0 1-.315.067.34.34 0 0 1-.119-.059.33.33 0 0 1-.087-.099c-.022-.038-.036-.08-.04-.124zm.062-1.028c-.009-.087.018-.173.075-.241s.138-.111.228-.121.179.014.25.068a.33.33 0 0 1 .13.218c.01.088-.017.175-.073.244s-.139.114-.229.124c-.045.005-.09.002-.134-.01a.34.34 0 0 1-.119-.059.33.33 0 0 1-.087-.099.32.32 0 0 1-.041-.124"/></g><g fill="#a11a18"><path d="M20.823 26.68c.916.413 1.945.526 2.933.323a4.69 4.69 0 0 0 2.544-1.449c-1.12.18-2.264.151-3.373-.087l-2.104 1.213zm3.736 1.675c.29 0 .529.066.529.154 0 .082-.238.153-.529.153s-.529-.071-.529-.153c0-.088.238-.154.529-.154z"/><path d="M28.167 25.722c.022 0 .044.004.065.012s.039.02.055.035.028.033.037.053a.15.15 0 0 1 .012.063c0 .022-.003.044-.011.065s-.02.039-.036.055a.17.17 0 0 1-.056.037c-.021.009-.043.013-.066.013s-.045-.004-.066-.013a.17.17 0 0 1-.055-.037c-.016-.016-.028-.035-.036-.055s-.012-.043-.011-.065a.19.19 0 0 1 .012-.063.15.15 0 0 1 .037-.053c.016-.015.035-.027.055-.035s.043-.012.065-.012m-8.339 1.586c-.862 2.545 2.792 2.76 4.598 2.715-1.434.231-2.906.048-4.233-.528-.962-.625-1.137-1.649-.365-2.187m1.591 5.268c.436.393.931.72 1.47.968l.127-.288c-.567-.14-1.107-.37-1.597-.681m-.7-1.827a3.71 3.71 0 0 0 2.347 1.127c.042-.097-.286-.255-.243-.354a4.68 4.68 0 0 1-2.104-.773m-.283-3.74l-.227.082a1.93 1.93 0 0 0 .233 1.137 3.77 3.77 0 0 1-.006-1.219m2.269 9.481a18.04 18.04 0 0 0 5.218-.507 11.61 11.61 0 0 1-4.858.788l-.36-.281"/><path d="M23.823 37.302a17.81 17.81 0 0 0 5.138-.661 11.45 11.45 0 0 1-4.767.927l-.371-.266m.901-3.794c.195 0 .36.066.36.154 0 .082-.165.153-.36.153-.201 0-.36-.071-.36-.153 0-.088.159-.154.36-.154z"/></g></g><g stroke="#68bbe9" stroke-width=".564" stroke-miterlimit="22.926"><path d="M15.97 31.159l-1.447-.067-2.141 1.552.222 1.75"/><path d="M11.531 30.914l1.76 1.07.217 2.12m-4.215-2.376l-.19 1.3h1.881l1.591 1.137"/><path d="M11.896 34.606l-2.279-1.578-2.595-.081-1.942 1.331 2.297 1.417m-2.887-2.45l.591 1.035-.798 1.368m13.247-2.585l-2.364 1.802"/><path d="M14.599 34.245l.608-.408 3.136.059m-1.157 2.816l2.586-.159.638-.697"/><path d="M19.303 34.916l.227 3.446m3.283-.655l-.047.538-.968.625"/></g><g fill="#fff" class="B"><path d="M10.607 15.126l.269 1.234c-.219.606-.609 1.14-1.126 1.541-.423.153-.751-.057-.984-.64-.025-.486.222-1.137.201-1.623.339-.63.414-1.101.756-1.731l.328.481c-.497.906-.545.635-.418 1.506.048.311-.016.379-.127.445-.098.052-.181.127-.242.217s-.1.193-.111.3c.074.462.237.553.428.528.248-.118.396-.343.301-.83l.724-1.429M6.4 18.334c.963-.126 1.938-.151 2.907-.076l-2.822.43-.084-.354m1.016 3.693c1.629.047 3.494.384 4.383-.363.1.255.126.245.226.507a8.35 8.35 0 0 1-4.419.424l-.19-.568m.611 1.773a4.05 4.05 0 0 0 2.638-.497l.254.231c-.725.859-1.486.583-2.76.62l-.132-.354"/><path d="M8.516 25.082l.713.318c.292-.061.565-.191.793-.377s.407-.425.518-.693l.301.333a2.07 2.07 0 0 1-.466.708 2.15 2.15 0 0 1-.718.471c-.042.352-.193.682-.434.948s-.56.455-.914.541c-.545.231.507.344 3.215 1.368-.254.11-.501.235-.74.373-1.375-.669-2.893-1.013-4.431-1.003-2.14 1.347.756 1.869 2.02 2.114l-.808.594c-.717-.294-1.401-.66-2.041-1.09-1.432-1.495 2.141-1.802-.645-2.269.455-.302.26-.137.72-.436 2.432.021 2.527-.101 3.462-.972a1.82 1.82 0 0 1-.85.122 1.8 1.8 0 0 1-.809-.281c.337-.267.776-.503 1.115-.769"/></g><path d="M2.915 28.508l3.557 2.75-.428.184-3.573-2.698.444-.236" fill="#da4837" class="B"/><path d="M.213 30.283l5.026 1.489-.618.247-3.51-.548-.897-1.188z" fill="#9f1a16" class="B"/></g><defs><clipPath id="A"><path fill="#fff" d="M0 0h167v40H0z"/></clipPath></defs></svg>